G04 start of page 12 for group -4014 idx -4014 *
G04 Title: (unknown), bottompaste *
G04 Creator: pcb 20110918 *
G04 CreationDate: Tue 10 Apr 2012 05:20:11 AM GMT UTC *
G04 For: haunma *
G04 Format: Gerber/RS-274X *
G04 PCB-Dimensions: 360000 400000 *
G04 PCB-Coordinate-Origin: lower left *
%MOIN*%
%FSLAX25Y25*%
%LNBOTTOMPASTE*%
%ADD227C,0.0001*%
%ADD226R,0.0394X0.0394*%
%ADD225R,0.0512X0.0512*%
%ADD224R,0.0276X0.0276*%
G54D224*X167400Y277752D02*Y276965D01*
Y272635D02*Y271848D01*
G54D225*X137907Y328860D02*X138693D01*
X137907Y336340D02*X138693D01*
X90240Y309893D02*Y309107D01*
X82760Y309893D02*Y309107D01*
G54D226*X286500Y214543D02*Y214149D01*
Y207851D02*Y207457D01*
G54D225*X221240Y89893D02*Y89107D01*
X213760Y89893D02*Y89107D01*
G54D226*X253000Y235243D02*Y234849D01*
Y228551D02*Y228157D01*
X316957Y149100D02*X317351D01*
X323649D02*X324043D01*
G54D225*X317160Y158393D02*Y157607D01*
X324640Y158393D02*Y157607D01*
G54D227*G36*
X165366Y261042D02*X169541Y256867D01*
X165922Y253248D01*
X161747Y257423D01*
X165366Y261042D01*
G37*
G36*
X160077Y255753D02*X164252Y251578D01*
X160633Y247959D01*
X156458Y252134D01*
X160077Y255753D01*
G37*
G54D226*X166500Y237351D02*Y236957D01*
Y244043D02*Y243649D01*
G54D224*X148648Y258300D02*X149435D01*
X153765D02*X154552D01*
G54D225*X90240Y258393D02*Y257607D01*
X82760Y258393D02*Y257607D01*
G54D226*X166500Y229043D02*Y228649D01*
Y222351D02*Y221957D01*
G54D225*X111240Y284793D02*Y284007D01*
X103760Y284793D02*Y284007D01*
G54D224*X109348Y257000D02*X110135D01*
X114465D02*X115252D01*
X88565Y317163D02*X89352D01*
X83448D02*X84235D01*
X129165Y326700D02*X129952D01*
X124048D02*X124835D01*
X164300Y319835D02*Y319048D01*
Y324952D02*Y324165D01*
X95800Y296235D02*Y295448D01*
Y301352D02*Y300565D01*
X126065Y258200D02*X126852D01*
X120948D02*X121735D01*
X95800Y287652D02*Y286865D01*
Y282535D02*Y281748D01*
G54D225*X105307Y311260D02*X106093D01*
X105307Y318740D02*X106093D01*
G54D226*X268400Y334543D02*Y334149D01*
Y327851D02*Y327457D01*
X286600Y322451D02*Y322057D01*
Y329143D02*Y328749D01*
X267500Y212951D02*Y212557D01*
Y219643D02*Y219249D01*
X241000Y350043D02*Y349649D01*
Y343351D02*Y342957D01*
G54D225*X171700Y288000D02*Y287214D01*
X179180Y288000D02*Y287214D01*
G54D224*X114465Y326300D02*X115252D01*
X109348D02*X110135D01*
G54D225*X177760Y260893D02*Y260107D01*
X185240Y260893D02*Y260107D01*
X238240Y89893D02*Y89107D01*
X230760Y89893D02*Y89107D01*
X173107Y157940D02*X173893D01*
X173107Y150460D02*X173893D01*
X173107Y144340D02*X173893D01*
X173107Y136860D02*X173893D01*
M02*
