M48
INCH
T144C0.130
T143C0.014
T142C0.019
T141C0.016
T140C0.020
T139C0.066
T138C0.062
T137C0.094
T136C0.013
T135C0.039
T134C0.038
T133C0.030
T132C0.041
T131C0.042
%
T144
X029500Y011500
X029500Y038500
X001500Y038500
X001500Y001500
T136
X021956Y009250
X022350Y009250
X022350Y008660
X021956Y008660
X022153Y008955
X025840Y020720
X023620Y030420
X023470Y030090
X023300Y029750
X031790Y012230
X031790Y011670
X031790Y011950
X031480Y013990
X031350Y013020
X032790Y016550
X032340Y008460
X031800Y016280
X030580Y013020
X028540Y005850
X029930Y005850
X031390Y008460
X012620Y021390
X006730Y021620
X014520Y020080
X014450Y019110
X014450Y019650
X014610Y020440
X012750Y021020
X016750Y014750
X012290Y016950
X010450Y013030
X011800Y014580
X011030Y015330
X014040Y011340
X016180Y011320
X011000Y012060
X011470Y011590
X021060Y009030
X020780Y009030
X020590Y009240
X020590Y008820
X018710Y009960
X018350Y010230
X017930Y010450
X017460Y010450
X014040Y010440
X020500Y006050
X017040Y006660
X017550Y006660
X017290Y006270
X017990Y006660
X022220Y033220
X023080Y033220
X022460Y032100
X022820Y032500
X023100Y032770
X023340Y033570
X024460Y034690
X024200Y034400
X023790Y030750
X023690Y031110
X023990Y034220
X022730Y034180
X025300Y036330
X024960Y035280
X025280Y034730
X025280Y033290
X011650Y035850
X011400Y036110
X011140Y036380
X017870Y033520
X015240Y024380
X014890Y024380
X015920Y024580
X016170Y024330
X006970Y032700
X007100Y036410
X007560Y036600
X007480Y036320
X007880Y036440
X009670Y036620
X009860Y036420
X008010Y036180
X007110Y035500
X008330Y036210
X008630Y036030
X003590Y018750
X006390Y021770
X007320Y020950
X007320Y022060
X008290Y022060
X008290Y020890
X017640Y025580
X019210Y024800
X020870Y031820
X019390Y031820
X020340Y032770
X020070Y032500
X019680Y032100
X017870Y032780
X019450Y033150
X020480Y033150
X002050Y034840
X002450Y034820
X002870Y034800
X003280Y034790
X001620Y034860
X003850Y037230
X004160Y037150
X004470Y037070
X004780Y036990
X005090Y036910
X005420Y036830
X005100Y037220
X005980Y037560
X006070Y036670
X006600Y036540
X006860Y036670
X007190Y036670
X006350Y036670
X006290Y037560
X006600Y037560
X008180Y037280
X008510Y037110
X008840Y036940
X010870Y036660
X010580Y036950
X010290Y037240
X009970Y037570
X009160Y036780
X009400Y036650
X009220Y037070
X009040Y037330
X006710Y035560
X006290Y035610
X005880Y035550
X005680Y035860
X005420Y035570
X005250Y035970
X004970Y035590
X004820Y036080
X004510Y035610
X004280Y036210
X003840Y036320
X003960Y035640
X003450Y035660
X002960Y035680
X002440Y035700
X001900Y035730
X001620Y036040
T143
X011460Y032950
X012210Y032990
X011220Y034540
X011220Y033920
X011220Y034230
X013150Y032990
X011460Y032340
X011000Y032950
X011800Y032340
X010630Y025510
X011830Y025510
X012480Y025500
X010470Y025800
X010290Y025510
X010660Y026070
X008200Y027900
X007890Y027900
X007890Y027590
X007720Y030270
X007580Y027900
X007630Y029980
X016750Y032600
X016750Y031810
X016740Y026830
X015350Y033010
X015660Y033010
X015040Y033010
X014770Y025510
X015560Y025510
X012020Y024370
X007580Y027590
X008150Y030270
X007930Y030050
X013570Y024480
X012730Y024520
X013000Y024670
X013000Y024360
X012020Y024670
X016740Y028130
X016740Y027140
X016750Y029550
X016750Y029860
X016750Y030170
X016750Y030480
X009870Y029590
X009250Y030240
X009260Y028860
X009260Y028070
X009260Y029450
T141
X009550Y003290
X009240Y003290
X009550Y003660
X011260Y003270
X010640Y003290
X010950Y003290
X010950Y003670
X010640Y003670
X010330Y003670
X010330Y003290
T142
X024140Y016720
X024140Y016360
X024140Y016000
X024460Y016540
X024460Y016180
X024460Y015820
X024780Y016360
X024780Y016720
X024780Y016000
X024460Y016900
X016550Y020770
X017700Y023000
X017950Y023250
X017950Y022750
X017450Y023250
X016550Y021730
X018200Y023000
X024670Y008950
X025400Y009310
X025180Y009030
X024890Y009230
X024960Y008750
X025110Y009510
X008310Y032200
X007950Y032200
X017450Y023750
X007590Y032200
X017200Y023500
X017700Y023500
X019400Y024070
X019400Y024430
T140
X008980Y004720
X008570Y004720
X008160Y004720
X009260Y004380
X007340Y004720
X007750Y004720
X006520Y004720
X006110Y004720
X006930Y004720
X010930Y001360
X010520Y001360
X010110Y001360
X010110Y002320
X010520Y002320
X010930Y002320
X011340Y002360
X007400Y001360
X006110Y002580
X006110Y003070
X009290Y002320
X009700Y002320
X007880Y001360
X009290Y001360
X009700Y001360
X028510Y026540
X027160Y029630
X028150Y029720
X028100Y026540
X028020Y020780
X026840Y020770
X027530Y020820
X026680Y024050
X027560Y023990
X026300Y020750
X032220Y029090
X031160Y029180
X031680Y029580
X032200Y028500
X032200Y028050
X027850Y024280
X027170Y018170
X028160Y018170
X031800Y017810
X025520Y029880
X025130Y022860
X025510Y018420
X025150Y024760
X025820Y032380
X023850Y031990
X025060Y024370
X024670Y024280
X028650Y020320
X035100Y019310
X035100Y020310
X035100Y021310
X035100Y022310
X035100Y023310
X035100Y024310
X035100Y025310
X035100Y026300
X035100Y030320
X032550Y028300
X032190Y012930
X032600Y010000
X033100Y009590
X032750Y006550
X033200Y006550
X033650Y006550
X032750Y007000
X033200Y007000
X033650Y007000
X031700Y015270
X033520Y009590
X029980Y007540
X029980Y004940
X027210Y007270
X027210Y007630
X026000Y008060
X026000Y007650
X026000Y007240
X026000Y006830
X028370Y007450
X024210Y022040
X025510Y022040
X025510Y021630
X024210Y021630
X024210Y021220
X025510Y021220
X013720Y023160
X015620Y012160
X015210Y012160
X015210Y014340
X015620Y014340
X014900Y010200
X012290Y014180
X010700Y015820
X009830Y014780
X026070Y009020
X025750Y008400
X025810Y008760
X023770Y008950
X025250Y002950
X024850Y002950
X019850Y010600
X016900Y008550
X016500Y008550
X017100Y008250
X016700Y008250
X016300Y008250
X013940Y008340
X012710Y008340
X013120Y008340
X013530Y008340
X012590Y007950
X014350Y008340
X014760Y008340
X015170Y008340
X015430Y008020
X015430Y007610
X015310Y004570
X014900Y004570
X015540Y007210
X012380Y005130
X012590Y005490
X013260Y004570
X012850Y004570
X013670Y004570
X012590Y007540
X012590Y007130
X012590Y006720
X012590Y006310
X012590Y005900
X015820Y006910
X015820Y006500
X015820Y006090
X015820Y005680
X015820Y005270
X015820Y004860
X017800Y004300
X017390Y004300
X017110Y003990
X017110Y003580
X017110Y003170
X016050Y002020
X015820Y002400
X015030Y001360
X017080Y001360
X016670Y001360
X015440Y001360
X015850Y001360
X016260Y001360
X014620Y001360
X014210Y001360
X016870Y002020
X016460Y002020
X015640Y002020
X012980Y001360
X012570Y001360
X013390Y001360
X013800Y001360
X011340Y001360
X011750Y001360
X012160Y001360
X011580Y002030
X011990Y002030
X012330Y002260
X015820Y004450
X015820Y004040
X015820Y003630
X015820Y003220
X015820Y002810
X012380Y003900
X012380Y003490
X012380Y003080
X012380Y002670
X012380Y004310
X012380Y004720
X014080Y004570
X014490Y004570
X017900Y001360
X017490Y001360
X018140Y001700
X018140Y002110
X018140Y002520
X017910Y002860
X017770Y003250
X017800Y003660
X018050Y003980
X017110Y002760
X017110Y002350
X024180Y033310
X024180Y032720
X024260Y031340
X026300Y029880
X027980Y037470
X027050Y037470
X027530Y037110
X028020Y035360
X028160Y035740
X026310Y032210
X025520Y033720
X028420Y037110
X029400Y037070
X028660Y031780
X035100Y031320
X028080Y032240
X026900Y032210
X027390Y032240
X035100Y032320
X035100Y035320
X035100Y034320
X035100Y033320
X035100Y036320
X035100Y037320
X012480Y027000
X013880Y032940
X013880Y032500
X014320Y032500
X014320Y032940
X013450Y032500
X012760Y036580
X009300Y032060
X009740Y032060
X009380Y031630
X009820Y031630
X010580Y027010
X012480Y026560
X012100Y026780
X012860Y026780
X012710Y031850
X013150Y031410
X012710Y031410
X016120Y028470
X015570Y028950
X015130Y028950
X015350Y028570
X015350Y029330
X016330Y031090
X007410Y033400
X007000Y033400
X007200Y033050
X002070Y023750
X002430Y022750
X003070Y023750
X002070Y026750
X002430Y025750
X003520Y024510
X003070Y025750
X003520Y026750
X005250Y020750
X005250Y021750
X005250Y019750
X007750Y020400
X014380Y025560
X014370Y026000
X013150Y031850
X016600Y028470
X016560Y031470
X016110Y031470
X016350Y028130
X016440Y026520
X016110Y026800
X016300Y027160
X016110Y027520
X010800Y027380
X010360Y027380
X010580Y027750
X010360Y029150
X010360Y029590
X010800Y029590
X010800Y029150
X009310Y026790
X009530Y026420
X009750Y026790
T133
X023350Y016250
X023350Y013250
X017350Y016250
X017350Y013250
T134
X017950Y035150
X018950Y035150
X019950Y035150
X020950Y035150
X021950Y035150
X022950Y035150
X011134Y020019
X011134Y019019
X007934Y016119
X007934Y015119
X007934Y014119
X007934Y013119
X000950Y030250
X000950Y031250
X000950Y032250
X000950Y033250
X027390Y026950
X026683Y027657
T135
X004234Y009344
X005266Y010328
X005266Y009344
X005266Y008556
X005266Y007572
X004234Y010328
X004234Y008556
X004234Y007572
T132
X028520Y028660
X006750Y019250
T131
X032940Y019350
X031940Y019350
X032940Y020350
X031940Y020350
X032940Y021350
X031940Y021350
X032940Y022350
X032940Y023350
X032940Y024350
X032940Y025350
X032940Y026350
X032940Y030360
X031940Y022350
X031940Y023350
X031940Y024350
X031940Y025350
X031940Y026350
X031940Y030360
X032940Y031360
X031940Y031360
X031940Y032360
X031940Y033360
X032940Y032360
X032940Y033360
X032940Y034360
X032940Y035360
X032940Y036360
X032940Y037360
X031940Y034360
X031940Y035360
X031940Y036360
X031940Y037360
X034950Y011200
X034950Y012200
X034950Y013200
X033950Y011200
X033950Y012200
X033950Y013200
X033950Y014200
X033950Y015200
X033950Y016200
X034950Y014200
X034950Y015200
X034950Y016200
X034950Y017200
X033950Y017200
X001750Y019250
X001750Y020250
X001750Y021250
X002750Y019250
X002750Y020250
X002750Y021250
X002750Y022250
X002750Y023250
X002750Y024250
X001750Y016250
X002750Y016250
X001750Y017250
X002750Y017250
X001750Y014250
X002750Y014250
X001750Y015250
X002750Y015250
X001750Y018250
X002750Y018250
X002750Y026250
X002750Y027250
X004750Y027250
X001750Y022250
X001750Y023250
X001750Y024250
X001750Y025250
X002750Y025250
X004750Y025250
X005750Y025250
X001750Y026250
X001750Y027250
X005750Y022250
X004750Y023250
X005750Y023250
X004750Y024250
X005750Y024250
X004750Y026250
X005750Y026250
X005750Y027250
X018750Y037750
X018750Y038750
X019750Y037750
X019750Y038750
X020750Y038750
X021750Y038750
X022750Y038750
X023750Y038750
X020750Y037750
X021750Y037750
X022750Y037750
X023750Y037750
X010790Y023350
X010790Y022350
X009790Y023350
X008790Y023350
X009790Y022350
X008790Y022350
X004750Y014250
X005750Y014250
X004750Y015250
X005750Y015250
X004750Y016250
X004750Y017250
X004750Y018250
X005750Y016250
X005750Y017250
X005750Y018250
X005750Y019250
X005750Y020250
X005750Y021250
X004750Y019250
X004750Y020250
X004750Y021250
X004750Y022250
X012250Y037750
X012250Y038750
X013250Y037750
X013250Y038750
X014250Y037750
X014250Y038750
X015250Y037750
X015250Y038750
X016250Y037750
X017250Y037750
X016250Y038750
X017250Y038750
X007790Y023350
X007790Y022350
X020950Y031200
X021950Y031200
X020950Y030200
X021950Y030200
X020950Y029200
X021950Y029200
X020950Y028200
X021950Y028200
X020950Y026200
X021950Y026200
X020950Y027200
X021950Y027200
X012790Y023350
X012790Y022350
X011790Y023350
X011790Y022350
T138
X007630Y002830
T139
X006630Y003830
X006630Y001830
X008630Y003830
X008630Y001830
T137
X005404Y006363
X003167Y011537
X005404Y011537
X003167Y006363
M30
