G04 start of page 8 for group -4062 idx -4062 *
G04 Title: (unknown), soldermask *
G04 Creator: pcb 20110918 *
G04 CreationDate: Tue 10 Apr 2012 05:20:11 AM GMT UTC *
G04 For: haunma *
G04 Format: Gerber/RS-274X *
G04 PCB-Dimensions: 360000 400000 *
G04 PCB-Coordinate-Origin: lower left *
%MOIN*%
%FSLAX25Y25*%
%LNBOTTOMMASK*%
%ADD192R,0.0335X0.0335*%
%ADD191R,0.0572X0.0572*%
%ADD190R,0.0454X0.0454*%
%ADD189C,0.1060*%
%ADD188C,0.1020*%
%ADD187C,0.1640*%
%ADD186C,0.0250*%
%ADD185C,0.0680*%
%ADD184C,0.0700*%
%ADD183C,0.2500*%
%ADD182C,0.0660*%
%ADD181C,0.0760*%
%ADD180C,0.0780*%
%ADD179C,0.0001*%
G54D179*G36*
X325500Y197400D02*Y189600D01*
X333300D01*
Y197400D01*
X325500D01*
G37*
G54D180*X319400Y193500D03*
X329400Y203500D03*
X319400D03*
X329400Y213500D03*
X319400D03*
X329400Y223500D03*
Y233500D03*
Y243500D03*
Y253500D03*
Y263500D03*
G54D179*G36*
X325500Y307500D02*Y299700D01*
X333300D01*
Y307500D01*
X325500D01*
G37*
G54D180*X319400Y223500D03*
Y233500D03*
Y243500D03*
Y253500D03*
Y263500D03*
G54D181*X285200Y286600D03*
G54D180*X319400Y303600D03*
X329400Y313600D03*
X319400D03*
Y323600D03*
Y333600D03*
X329400Y323600D03*
Y333600D03*
Y343600D03*
Y353600D03*
Y363600D03*
Y373600D03*
X319400Y343600D03*
Y353600D03*
Y363600D03*
Y373600D03*
G54D182*X233500Y162500D03*
Y132500D03*
G54D179*G36*
X345600Y115900D02*Y108100D01*
X353400D01*
Y115900D01*
X345600D01*
G37*
G54D180*X349500Y122000D03*
Y132000D03*
X339500Y112000D03*
Y122000D03*
Y132000D03*
Y142000D03*
Y152000D03*
Y162000D03*
X349500Y142000D03*
Y152000D03*
Y162000D03*
Y172000D03*
X339500D03*
G54D183*X295000Y115000D03*
G54D184*X17500Y192500D03*
Y202500D03*
Y212500D03*
X27500Y192500D03*
Y202500D03*
Y212500D03*
Y222500D03*
Y232500D03*
Y242500D03*
X17500Y162500D03*
X27500D03*
X17500Y172500D03*
X27500D03*
G54D179*G36*
X14000Y146000D02*Y139000D01*
X21000D01*
Y146000D01*
X14000D01*
G37*
G54D184*X27500Y142500D03*
X17500Y152500D03*
X27500D03*
X17500Y182500D03*
X27500D03*
G54D181*X67500Y192500D03*
G54D184*X27500Y262500D03*
Y272500D03*
X47500D03*
X17500Y222500D03*
Y232500D03*
Y242500D03*
Y252500D03*
X27500D03*
X47500D03*
X57500D03*
X17500Y262500D03*
Y272500D03*
X57500Y222500D03*
X47500Y232500D03*
X57500D03*
X47500Y242500D03*
X57500D03*
X47500Y262500D03*
X57500D03*
Y272500D03*
G54D179*G36*
X183600Y381400D02*Y373600D01*
X191400D01*
Y381400D01*
X183600D01*
G37*
G54D180*X187500Y387500D03*
X197500Y377500D03*
Y387500D03*
X207500D03*
X217500D03*
X227500D03*
X237500D03*
X207500Y377500D03*
X217500D03*
X227500D03*
X237500D03*
G54D183*X295000Y385000D03*
G54D179*G36*
X176200Y354800D02*Y348200D01*
X182800D01*
Y354800D01*
X176200D01*
G37*
G54D182*X189500Y351500D03*
X199500D03*
X209500D03*
X219500D03*
X229500D03*
G54D179*G36*
X108038Y203489D02*Y196889D01*
X114638D01*
Y203489D01*
X108038D01*
G37*
G54D182*X111338Y190189D03*
G54D184*X107900Y233500D03*
Y223500D03*
X97900Y233500D03*
X87900D03*
X97900Y223500D03*
X87900D03*
G54D179*G36*
X76038Y164489D02*Y157889D01*
X82638D01*
Y164489D01*
X76038D01*
G37*
G54D182*X79338Y151189D03*
Y141189D03*
Y131189D03*
G54D179*G36*
X44000Y146000D02*Y139000D01*
X51000D01*
Y146000D01*
X44000D01*
G37*
G54D184*X57500Y142500D03*
X47500Y152500D03*
X57500D03*
X47500Y162500D03*
Y172500D03*
Y182500D03*
X57500Y162500D03*
Y172500D03*
Y182500D03*
Y192500D03*
Y202500D03*
Y212500D03*
X47500Y192500D03*
Y202500D03*
Y212500D03*
Y222500D03*
G54D183*X15000Y385000D03*
G54D179*G36*
X118600Y381400D02*Y373600D01*
X126400D01*
Y381400D01*
X118600D01*
G37*
G54D180*X122500Y387500D03*
X132500Y377500D03*
Y387500D03*
X142500Y377500D03*
Y387500D03*
X152500Y377500D03*
Y387500D03*
X162500Y377500D03*
X172500D03*
X162500Y387500D03*
X172500D03*
G54D184*X77900Y233500D03*
Y223500D03*
G54D179*G36*
X6200Y305800D02*Y299200D01*
X12800D01*
Y305800D01*
X6200D01*
G37*
G54D182*X9500Y312500D03*
Y322500D03*
Y332500D03*
G54D179*G36*
X206000Y315500D02*Y308500D01*
X213000D01*
Y315500D01*
X206000D01*
G37*
G54D184*X219500Y312000D03*
X209500Y302000D03*
X219500D03*
X209500Y292000D03*
X219500D03*
X209500Y282000D03*
X219500D03*
X209500Y262000D03*
X219500D03*
G54D179*G36*
X270600Y272800D02*Y266200D01*
X277200D01*
Y272800D01*
X270600D01*
G37*
G54D182*X266828Y276571D03*
G54D184*X209500Y272000D03*
X219500D03*
G54D182*X173500Y162500D03*
Y132500D03*
G54D185*X42343Y93437D03*
G54D186*X219564Y92500D03*
X223500D03*
Y86596D03*
X219564D03*
X221532Y89548D03*
G54D179*G36*
X124400Y237000D02*Y230000D01*
X131400D01*
Y237000D01*
X124400D01*
G37*
G54D184*X127900Y223500D03*
X117900Y233500D03*
Y223500D03*
G54D185*X52657Y103280D03*
Y93437D03*
Y85563D03*
Y75720D03*
G54D187*X54035Y63634D03*
G54D185*X42343Y103280D03*
G54D187*X31673Y115366D03*
X54035D03*
G54D185*X42343Y85563D03*
Y75720D03*
G54D187*X31673Y63634D03*
G54D188*X76300Y28300D03*
G54D189*X66300Y38300D03*
Y18300D03*
X86300Y38300D03*
Y18300D03*
G54D183*X15000Y15000D03*
G54D190*X166500Y237351D02*Y236957D01*
Y229043D02*Y228649D01*
Y222351D02*Y221957D01*
Y244043D02*Y243649D01*
G54D191*X173107Y157940D02*X173893D01*
X173107Y150460D02*X173893D01*
X173107Y144340D02*X173893D01*
X173107Y136860D02*X173893D01*
X213760Y89893D02*Y89107D01*
X221240Y89893D02*Y89107D01*
X238240Y89893D02*Y89107D01*
X230760Y89893D02*Y89107D01*
G54D190*X316957Y149100D02*X317351D01*
G54D191*X317160Y158393D02*Y157607D01*
G54D190*X323649Y149100D02*X324043D01*
G54D191*X324640Y158393D02*Y157607D01*
X185240Y260893D02*Y260107D01*
X177760Y260893D02*Y260107D01*
G54D192*X167400Y277752D02*Y276965D01*
Y272635D02*Y271848D01*
G54D191*X171700Y288000D02*Y287214D01*
X179180Y288000D02*Y287214D01*
G54D190*X253000Y235243D02*Y234849D01*
Y228551D02*Y228157D01*
X267500Y212951D02*Y212557D01*
Y219643D02*Y219249D01*
X286500Y214543D02*Y214149D01*
Y207851D02*Y207457D01*
G54D191*X137907Y328860D02*X138693D01*
X137907Y336340D02*X138693D01*
G54D192*X129165Y326700D02*X129952D01*
X164300Y319835D02*Y319048D01*
Y324952D02*Y324165D01*
X124048Y326700D02*X124835D01*
G54D191*X105307Y311260D02*X106093D01*
X105307Y318740D02*X106093D01*
G54D192*X114465Y326300D02*X115252D01*
X109348D02*X110135D01*
G54D179*G36*
X165366Y261466D02*X169965Y256867D01*
X165922Y252824D01*
X161323Y257423D01*
X165366Y261466D01*
G37*
G36*
X160077Y256177D02*X164676Y251578D01*
X160633Y247535D01*
X156034Y252134D01*
X160077Y256177D01*
G37*
G54D192*X148648Y258300D02*X149435D01*
X153765D02*X154552D01*
G54D191*X82760Y258393D02*Y257607D01*
X90240Y258393D02*Y257607D01*
G54D192*X109348Y257000D02*X110135D01*
X114465D02*X115252D01*
X126065Y258200D02*X126852D01*
X120948D02*X121735D01*
G54D191*X90240Y309893D02*Y309107D01*
X82760Y309893D02*Y309107D01*
G54D192*X88565Y317163D02*X89352D01*
X83448D02*X84235D01*
G54D191*X111240Y284793D02*Y284007D01*
X103760Y284793D02*Y284007D01*
G54D192*X95800Y296235D02*Y295448D01*
Y301352D02*Y300565D01*
Y287652D02*Y286865D01*
Y282535D02*Y281748D01*
G54D190*X286600Y322451D02*Y322057D01*
Y329143D02*Y328749D01*
X268400Y334543D02*Y334149D01*
Y327851D02*Y327457D01*
X241000Y350043D02*Y349649D01*
Y343351D02*Y342957D01*
M02*
