G04 start of page 9 for group -4079 idx -4079 *
G04 Title: (unknown), topsilk *
G04 Creator: pcb 20110918 *
G04 CreationDate: Tue 10 Apr 2012 05:20:11 AM GMT UTC *
G04 For: haunma *
G04 Format: Gerber/RS-274X *
G04 PCB-Dimensions: 360000 400000 *
G04 PCB-Coordinate-Origin: lower left *
%MOIN*%
%FSLAX25Y25*%
%LNTOPSILK*%
%ADD195C,0.0050*%
%ADD194C,0.0100*%
%ADD193C,0.0080*%
G54D193*X266720Y30760D02*Y23400D01*
X265800Y30760D02*X269480D01*
X270400Y29840D01*
Y28000D01*
X269480Y27080D02*X270400Y28000D01*
X266720Y27080D02*X269480D01*
X275368D02*X276288Y26160D01*
X273528Y27080D02*X275368D01*
X272608Y26160D02*X273528Y27080D01*
X272608Y26160D02*Y24320D01*
X273528Y23400D01*
X276288Y27080D02*Y24320D01*
X277208Y23400D01*
X273528D02*X275368D01*
X276288Y24320D01*
X280336Y26160D02*Y23400D01*
Y26160D02*X281256Y27080D01*
X282176D01*
X283096Y26160D01*
Y23400D01*
X279416Y27080D02*X280336Y26160D01*
X288984Y30760D02*Y23400D01*
X288064D02*X288984Y24320D01*
X286224Y23400D02*X288064D01*
X285304Y24320D02*X286224Y23400D01*
X285304Y26160D02*Y24320D01*
Y26160D02*X286224Y27080D01*
X288064D01*
X288984Y26160D01*
X293952Y27080D02*X294872Y26160D01*
X292112Y27080D02*X293952D01*
X291192Y26160D02*X292112Y27080D01*
X291192Y26160D02*Y24320D01*
X292112Y23400D01*
X294872Y27080D02*Y24320D01*
X295792Y23400D01*
X292112D02*X293952D01*
X294872Y24320D01*
X298920Y30760D02*Y23400D01*
X301680Y30760D02*X302600Y29840D01*
Y24320D01*
X301680Y23400D02*X302600Y24320D01*
X298000Y23400D02*X301680D01*
X298000Y30760D02*X301680D01*
X304808Y29840D02*Y23400D01*
Y29840D02*X305728Y30760D01*
X308488D01*
X309408Y29840D01*
Y23400D01*
X304808Y27080D02*X309408D01*
X311616Y29840D02*Y24320D01*
Y29840D02*X312536Y30760D01*
X314376D01*
X315296Y29840D01*
Y24320D01*
X314376Y23400D02*X315296Y24320D01*
X312536Y23400D02*X314376D01*
X311616Y24320D02*X312536Y23400D01*
X313456Y25240D02*X315296Y23400D01*
X324128Y27080D02*Y25240D01*
X325968Y23400D01*
X327808Y25240D01*
Y27080D02*Y25240D01*
X330936Y23400D02*X332776D01*
X331856Y30760D02*Y23400D01*
X330016Y28920D02*X331856Y30760D01*
X334984Y23400D02*X335904D01*
X339032D02*X340872D01*
X339952Y30760D02*Y23400D01*
X338112Y28920D02*X339952Y30760D01*
X266600Y14005D02*X267355Y13250D01*
X266600Y18535D02*X267355Y19290D01*
X266600Y18535D02*Y14005D01*
X269922Y16270D02*X272187D01*
X269167Y15515D02*X269922Y16270D01*
X269167Y15515D02*Y14005D01*
X269922Y13250D01*
X272187D01*
X273999Y19290D02*X274754Y18535D01*
Y14005D01*
X273999Y13250D02*X274754Y14005D01*
X279284Y18535D02*X280039Y19290D01*
X282304D01*
X283059Y18535D01*
Y17025D01*
X279284Y13250D02*X283059Y17025D01*
X279284Y13250D02*X283059D01*
X284871Y14005D02*X285626Y13250D01*
X284871Y18535D02*Y14005D01*
Y18535D02*X285626Y19290D01*
X287136D01*
X287891Y18535D01*
Y14005D01*
X287136Y13250D02*X287891Y14005D01*
X285626Y13250D02*X287136D01*
X284871Y14760D02*X287891Y17780D01*
X290458Y13250D02*X291968D01*
X291213Y19290D02*Y13250D01*
X289703Y17780D02*X291213Y19290D01*
X293780Y18535D02*X294535Y19290D01*
X296800D01*
X297555Y18535D01*
Y17025D01*
X293780Y13250D02*X297555Y17025D01*
X293780Y13250D02*X297555D01*
X304803Y19290D02*Y13250D01*
Y19290D02*X307068Y17025D01*
X309333Y19290D01*
Y13250D01*
X313410Y16270D02*X314165Y15515D01*
X311900Y16270D02*X313410D01*
X311145Y15515D02*X311900Y16270D01*
X311145Y15515D02*Y14005D01*
X311900Y13250D01*
X314165Y16270D02*Y14005D01*
X314920Y13250D01*
X311900D02*X313410D01*
X314165Y14005D01*
X317487Y15515D02*Y13250D01*
Y15515D02*X318242Y16270D01*
X319752D01*
X316732D02*X317487Y15515D01*
X321564Y19290D02*Y13250D01*
Y15515D02*X323829Y13250D01*
X321564Y15515D02*X323074Y17025D01*
X328359Y19290D02*Y13250D01*
X332134Y19290D02*Y13250D01*
X328359Y16270D02*X332134D01*
X336211D02*X336966Y15515D01*
X334701Y16270D02*X336211D01*
X333946Y15515D02*X334701Y16270D01*
X333946Y15515D02*Y14005D01*
X334701Y13250D01*
X336966Y16270D02*Y14005D01*
X337721Y13250D01*
X334701D02*X336211D01*
X336966Y14005D01*
X339533Y16270D02*Y14005D01*
X340288Y13250D01*
X341798D01*
X342553Y14005D01*
Y16270D02*Y14005D01*
X345120Y15515D02*Y13250D01*
Y15515D02*X345875Y16270D01*
X346630D01*
X347385Y15515D01*
Y13250D01*
X344365Y16270D02*X345120Y15515D01*
G54D194*X162952Y99799D02*Y84201D01*
X154048Y99799D02*X162952D01*
X154048D02*Y84201D01*
X162952D01*
X237500Y168000D02*Y152625D01*
X232375Y147500D02*X237500Y152625D01*
Y142375D02*X232375Y147500D01*
X237500Y142375D02*Y127000D01*
X169500D02*X237500D01*
X169500Y168000D02*Y127000D01*
Y168000D02*X237500D01*
X142599Y91848D02*X127001D01*
X142599Y100752D02*Y91848D01*
X127001Y100752D02*X142599D01*
X127001Y91848D02*Y100752D01*
X130952Y135299D02*Y119701D01*
X122048Y135299D02*X130952D01*
X122048D02*Y119701D01*
X130952D01*
G54D193*X149500Y123200D02*X163200D01*
X149500Y141800D02*X163200D01*
X149500D02*Y123200D01*
X163200Y141800D02*Y123200D01*
G54D194*X131548Y135299D02*Y119701D01*
X140452D01*
Y135299D02*Y119701D01*
X131548Y135299D02*X140452D01*
X139377Y161630D02*X123779D01*
X139377Y170534D02*Y161630D01*
X123779Y170534D02*X139377D01*
X123779Y161630D02*Y170534D01*
G54D195*X151809Y94074D02*G75*G03X151809Y94074I-250J0D01*G01*
G54D194*X169032Y103611D02*X175968D01*
Y89589D01*
X169032D02*X175968D01*
X169032Y103611D02*Y89589D01*
X219799Y106548D02*X204201D01*
X219799Y115452D02*Y106548D01*
X204201Y115452D02*X219799D01*
X204201Y106548D02*Y115452D01*
Y105952D02*X219799D01*
X204201D02*Y97048D01*
X219799D01*
Y105952D02*Y97048D01*
X202952Y105299D02*Y89701D01*
X194048Y105299D02*X202952D01*
X194048D02*Y89701D01*
X202952D01*
X204989Y122968D02*X219011D01*
X204989D02*Y116032D01*
X219011D01*
Y122968D02*Y116032D01*
X229952Y81799D02*Y66201D01*
X221048Y81799D02*X229952D01*
X221048D02*Y66201D01*
X229952D01*
X219799Y63548D02*X204201D01*
X219799Y72452D02*Y63548D01*
X204201Y72452D02*X219799D01*
X204201Y63548D02*Y72452D01*
Y81952D02*X219799D01*
X204201D02*Y73048D01*
X219799D01*
Y81952D02*Y73048D01*
X221048Y112799D02*Y97201D01*
X229952D01*
Y112799D02*Y97201D01*
X221048Y112799D02*X229952D01*
X224567Y95772D02*X227732D01*
X218497D02*X215332D01*
X224567Y83324D02*X227732D01*
X218497D02*X215332D01*
G54D193*X215232Y97772D02*G75*G03X215232Y97772I100J0D01*G01*
G54D194*X178600Y66350D02*X186400D01*
X178600Y65850D02*X186400D01*
Y74600D03*
Y63400D01*
D03*
X178600Y74600D03*
Y63400D01*
D03*
X176968Y86011D02*Y71989D01*
X170032Y86011D02*X176968D01*
X170032D02*Y71989D01*
X176968D01*
X100894Y168066D02*Y155000D01*
Y150000D02*Y136934D01*
Y168066D02*X122106D01*
Y136934D01*
X100894D02*X122106D01*
X100894Y150000D02*G75*G03X100894Y155000I0J2500D01*G01*
X112648Y135299D02*Y119701D01*
X121552D01*
Y135299D02*Y119701D01*
X112648Y135299D02*X121552D01*
X19941Y54500D02*X63248D01*
X19941Y124500D02*X63248D01*
X19941D02*Y54500D01*
X63248Y124500D02*Y54500D01*
X59839Y107314D02*X80161D01*
X59839D02*Y93686D01*
X80161D01*
Y107314D02*Y93686D01*
X58839Y90514D02*X79161D01*
X58839D02*Y76886D01*
X79161D01*
Y90514D02*Y76886D01*
X108899Y69848D02*X93301D01*
X108899Y78752D02*Y69848D01*
X93301Y78752D02*X108899D01*
X93301Y69848D02*Y78752D01*
X105299Y60248D02*X89701D01*
X105299Y69152D02*Y60248D01*
X89701Y69152D02*X105299D01*
X89701Y60248D02*Y69152D01*
X106739Y118255D02*X91141D01*
X106739Y127159D02*Y118255D01*
X91141Y127159D02*X106739D01*
X91141Y118255D02*Y127159D01*
X7750Y15000D02*G75*G03X7750Y15000I7250J0D01*G01*
X244601Y376352D02*X260199D01*
X244601D02*Y367448D01*
X260199D01*
Y376352D02*Y367448D01*
G54D193*X285385Y359285D02*X288285Y356385D01*
X249715Y359285D02*X285385D01*
X249715D02*Y320715D01*
X288285D01*
Y356385D02*Y320715D01*
X285385Y357385D02*G75*G03X285385Y357385I0J-1000D01*G01*
G54D194*X259532Y313611D02*Y299589D01*
X266468D01*
Y313611D02*Y299589D01*
X259532Y313611D02*X266468D01*
X251708Y313597D02*Y299575D01*
X258644D01*
Y313597D02*Y299575D01*
X251708Y313597D02*X258644D01*
X293068Y374311D02*Y360289D01*
X286132Y374311D02*X293068D01*
X286132D02*Y360289D01*
X293068D01*
X287750Y385000D02*G75*G03X287750Y385000I7250J0D01*G01*
X335655Y337659D02*X351253D01*
X335655D02*Y328755D01*
X351253D01*
Y337659D02*Y328755D01*
X351199Y358748D02*X335601D01*
X351199Y367652D02*Y358748D01*
X335601Y367652D02*X351199D01*
X335601Y358748D02*Y367652D01*
X351259Y348741D02*X335661D01*
X351259Y357645D02*Y348741D01*
X335661Y357645D02*X351259D01*
X335661Y348741D02*Y357645D01*
X351159Y368741D02*X335561D01*
X351159Y377645D02*Y368741D01*
X335561Y377645D02*X351159D01*
X335561Y368741D02*Y377645D01*
X334400Y378100D02*Y299100D01*
X314400Y378100D02*X334400D01*
X314400D02*Y299100D01*
X334400D01*
X351239Y338741D02*X335641D01*
X351239Y347645D02*Y338741D01*
X335641Y347645D02*X351239D01*
X335641Y338741D02*Y347645D01*
X335661Y327659D02*X351259D01*
X335661D02*Y318755D01*
X351259D01*
Y327659D02*Y318755D01*
X335661Y317659D02*X351259D01*
X335661D02*Y308755D01*
X351259D01*
Y317659D02*Y308755D01*
X335721Y307652D02*X351319D01*
X335721D02*Y298748D01*
X351319D01*
Y307652D02*Y298748D01*
X267248Y198099D02*Y182501D01*
X276152D01*
Y198099D02*Y182501D01*
X267248Y198099D02*X276152D01*
X277148D02*Y182501D01*
X286052D01*
Y198099D02*Y182501D01*
X277148Y198099D02*X286052D01*
X251632Y199011D02*Y184989D01*
X258568D01*
Y199011D02*Y184989D01*
X251632Y199011D02*X258568D01*
X259425Y198971D02*Y184949D01*
X266361D01*
Y198971D02*Y184949D01*
X259425Y198971D02*X266361D01*
X351279Y258569D02*X335681D01*
X351279Y267473D02*Y258569D01*
X335681Y267473D02*X351279D01*
X335681Y258569D02*Y267473D01*
X334400Y268000D02*Y189000D01*
X314400Y268000D02*X334400D01*
X314400D02*Y189000D01*
X334400D01*
X335761Y207545D02*X351359D01*
X335761D02*Y198641D01*
X351359D01*
Y207545D02*Y198641D01*
X351339Y238655D02*X335741D01*
X351339Y247559D02*Y238655D01*
X335741Y247559D02*X351339D01*
X335741Y238655D02*Y247559D01*
X335761Y217545D02*X351359D01*
X335761D02*Y208641D01*
X351359D01*
Y217545D02*Y208641D01*
X351339Y248641D02*X335741D01*
X351339Y257545D02*Y248641D01*
X335741Y257545D02*X351339D01*
X335741Y248641D02*Y257545D01*
X351359Y228655D02*X335761D01*
X351359Y237559D02*Y228655D01*
X335761Y237559D02*X351359D01*
X335761Y228655D02*Y237559D01*
X335741Y227545D02*X351339D01*
X335741D02*Y218641D01*
X351339D01*
Y227545D02*Y218641D01*
X335801Y197552D02*X351399D01*
X335801D02*Y188648D01*
X351399D01*
Y197552D02*Y188648D01*
X288568Y264911D02*Y250889D01*
X281632Y264911D02*X288568D01*
X281632D02*Y250889D01*
X288568D01*
G54D193*X285285Y244685D02*X288185Y241785D01*
X249615Y244685D02*X285285D01*
X249615D02*Y206115D01*
X288185D01*
Y241785D02*Y206115D01*
X285285Y242785D02*G75*G03X285285Y242785I0J-1000D01*G01*
G54D194*X132052Y364699D02*Y349101D01*
X123148Y364699D02*X132052D01*
X123148D02*Y349101D01*
X132052D01*
X182392Y345414D02*Y341600D01*
Y336600D02*Y332786D01*
Y345414D02*X195808D01*
Y332786D01*
X182392D02*X195808D01*
X242000Y372500D02*X183000D01*
X242000Y392500D02*Y372500D01*
X183000Y392500D02*X242000D01*
X183000Y372500D02*Y392500D01*
X248999Y254248D02*X233401D01*
X248999Y263152D02*Y254248D01*
X233401Y263152D02*X248999D01*
X233401Y254248D02*Y263152D01*
X204500Y316500D02*Y257500D01*
X224500D01*
Y316500D02*Y257500D01*
X204500Y316500D02*X224500D01*
X247999Y314748D02*X232401D01*
X247999Y323652D02*Y314748D01*
X232401Y323652D02*X247999D01*
X232401Y314748D02*Y323652D01*
G54D193*X91030Y328570D02*X93930Y331470D01*
X91030Y328570D02*Y253530D01*
X168970D01*
Y331470D02*Y253530D01*
X93930Y331470D02*X168970D01*
X92930Y328570D02*G75*G03X92930Y328570I1000J0D01*G01*
G54D194*X179048Y263799D02*Y248201D01*
X187952D01*
Y263799D02*Y248201D01*
X179048Y263799D02*X187952D01*
X311100Y291400D02*Y279200D01*
X288600Y291400D02*X311100D01*
X288600D02*Y279200D01*
X297400D01*
X302400D02*X311100D01*
X302400D02*G75*G03X297400Y279200I-2500J0D01*G01*
X312448Y294899D02*Y279301D01*
X321352D01*
Y294899D02*Y279301D01*
X312448Y294899D02*X321352D01*
X266828Y269500D02*X273900Y262429D01*
Y276571D02*X266828Y269500D01*
X280971D02*X273900Y262429D01*
X259757Y276571D02*X273900Y262429D01*
X266828Y283642D02*X259757Y276571D01*
X266828Y283642D02*X280971Y269500D01*
X288268Y279911D02*Y265889D01*
X281332Y279911D02*X288268D01*
X281332D02*Y265889D01*
X288268D01*
X277048Y313599D02*Y298001D01*
X285952D01*
Y313599D02*Y298001D01*
X277048Y313599D02*X285952D01*
X267148Y312699D02*Y297101D01*
X276052D01*
Y312699D02*Y297101D01*
X267148Y312699D02*X276052D01*
X311174Y174066D02*Y161000D01*
Y156000D02*Y142934D01*
Y174066D02*X329826D01*
Y142934D01*
X311174D02*X329826D01*
X311174Y156000D02*G75*G03X311174Y161000I0J2500D01*G01*
X341248Y94399D02*Y78801D01*
X350152D01*
Y94399D02*Y78801D01*
X341248Y94399D02*X350152D01*
X331248D02*Y78801D01*
X340152D01*
Y94399D02*Y78801D01*
X331248Y94399D02*X340152D01*
X354500Y176500D02*Y107500D01*
X334500Y176500D02*X354500D01*
X334500D02*Y107500D01*
X354500D01*
X330299Y90548D02*X314701D01*
X330299Y99452D02*Y90548D01*
X314701Y99452D02*X330299D01*
X314701Y90548D02*Y99452D01*
X300461Y70841D02*X316059D01*
Y79745D02*Y70841D01*
X300461Y79745D02*X316059D01*
X300461D02*Y70841D01*
X329511Y100532D02*X315489D01*
X329511Y107468D02*Y100532D01*
X315489Y107468D02*X329511D01*
X315489Y100532D02*Y107468D01*
X317808Y70092D02*Y54494D01*
X326712D01*
Y70092D02*Y54494D01*
X317808Y70092D02*X326712D01*
X287750Y115000D02*G75*G03X287750Y115000I7250J0D01*G01*
X310010Y60093D02*Y56193D01*
X306510D02*X310010D01*
X306510Y60093D02*Y56193D01*
X310010Y68393D02*Y64493D01*
X307735Y68393D02*X310010D01*
X306510Y67168D02*X307735Y68393D01*
X306510Y67168D02*Y64493D01*
X258701Y100452D02*X274299D01*
X258701D02*Y91548D01*
X274299D01*
Y100452D02*Y91548D01*
X248874Y116400D02*Y91400D01*
X231126Y116400D02*X248874D01*
X231126D02*Y91400D01*
X248874D01*
X231088Y87900D02*Y67900D01*
X244112D01*
Y87900D02*Y67900D01*
X231088Y87900D02*X244112D01*
X246599Y89441D02*X286401D01*
X246599D02*Y59559D01*
X286401D01*
Y89441D02*Y59559D01*
X311174Y139066D02*Y126000D01*
Y121000D02*Y107934D01*
Y139066D02*X329826D01*
Y107934D01*
X311174D02*X329826D01*
X311174Y121000D02*G75*G03X311174Y126000I0J2500D01*G01*
X300461Y53745D02*X316059D01*
X300461D02*Y44841D01*
X316059D01*
Y53745D02*Y44841D01*
X186952Y59799D02*Y44201D01*
X178048Y59799D02*X186952D01*
X178048D02*Y44201D01*
X186952D01*
X186500Y41000D02*X190500D01*
X188500Y39000D02*Y43000D01*
X189697Y27000D02*G75*G03X189697Y27000I24803J0D01*G01*
X107914Y58061D02*Y37739D01*
X94286Y58061D02*X107914D01*
X94286D02*Y37739D01*
X107914D01*
X102277Y37130D02*Y25470D01*
X96523Y37130D02*X102277D01*
X96523D02*Y25470D01*
X102277D01*
X116984Y82996D02*Y20004D01*
X165016Y82996D02*Y20004D01*
X116984D02*X165016D01*
X116984Y82996D02*X165016D01*
G54D193*X126000Y79000D02*G75*G03X126000Y79000I-1000J0D01*G01*
G54D194*X92300Y12300D02*X60300D01*
X92300Y44300D02*Y12300D01*
X60300Y44300D02*X92300D01*
X60300Y12300D02*Y44300D01*
X177000Y372500D02*X118000D01*
X177000Y392500D02*Y372500D01*
X118000Y392500D02*X177000D01*
X118000Y372500D02*Y392500D01*
X174500Y356500D02*X184500D01*
Y346500D01*
X174500Y356500D02*Y346500D01*
Y356500D02*X234500D01*
Y346500D01*
X174500D02*X234500D01*
X116338Y195189D02*Y205189D01*
X106338Y195189D02*X116338D01*
Y205189D02*X106338D01*
X116338Y185189D02*Y205189D01*
X106338Y185189D02*X116338D01*
X106338Y205189D02*Y185189D01*
X90714Y249159D02*X86900D01*
X78086D02*X81900D01*
X90714Y242041D02*Y249159D01*
X78086Y242041D02*X90714D01*
X78086Y249159D02*Y242041D01*
X73400Y238500D02*X132400D01*
X73400D02*Y218500D01*
X132400D01*
Y238500D02*Y218500D01*
X32500Y277000D02*Y138000D01*
X12500Y277000D02*X32500D01*
X12500D02*Y138000D01*
X32500D01*
X62500Y277000D02*Y138000D01*
X42500Y277000D02*X62500D01*
X42500D02*Y138000D01*
X62500D01*
X93538Y171339D02*Y178989D01*
X87338Y171339D02*X93538D01*
X87338Y178989D02*Y171339D01*
X93538Y191039D02*Y183389D01*
X90938Y191039D02*X93538D01*
X87338Y187439D02*X90938Y191039D01*
X87338Y183389D02*Y187439D01*
X87204Y206748D02*Y202934D01*
Y197934D02*Y194120D01*
Y206748D02*X100620D01*
Y194120D01*
X87204D02*X100620D01*
X85306Y207551D02*Y193529D01*
X78370Y207551D02*X85306D01*
X78370D02*Y193529D01*
X85306D01*
X84338Y156189D02*Y166189D01*
X74338Y156189D02*X84338D01*
Y166189D02*X74338D01*
X84338Y126189D02*Y166189D01*
X74338Y126189D02*X84338D01*
X74338Y166189D02*Y126189D01*
X91032Y151511D02*Y137489D01*
X97968D01*
Y151511D02*Y137489D01*
X91032Y151511D02*X97968D01*
X92126Y128348D02*X95940D01*
X100940D02*X104754D01*
X92126Y135466D02*Y128348D01*
Y135466D02*X104754D01*
Y128348D01*
X197299Y238048D02*X181701D01*
X197299Y246952D02*Y238048D01*
X181701Y246952D02*X197299D01*
X181701Y238048D02*Y246952D01*
X150380Y231543D02*Y209857D01*
X133420Y231543D02*X150380D01*
X133420D02*Y209857D01*
X150380D01*
G54D195*X148900Y210950D02*G75*G03X148900Y210950I0J250D01*G01*
G54D194*X7750Y385000D02*G75*G03X7750Y385000I7250J0D01*G01*
X74201Y337452D02*X89799D01*
X74201D02*Y328548D01*
X89799D01*
Y337452D02*Y328548D01*
X54301Y336252D02*X69899D01*
X54301D02*Y327348D01*
X69899D01*
Y336252D02*Y327348D01*
X36501Y342352D02*X52099D01*
X36501D02*Y333448D01*
X52099D01*
Y342352D02*Y333448D01*
X36501Y334152D02*X52099D01*
X36501D02*Y325248D01*
X52099D01*
Y334152D02*Y325248D01*
X28532Y331411D02*Y317389D01*
X35468D01*
Y331411D02*Y317389D01*
X28532Y331411D02*X35468D01*
X4500Y307500D02*Y297500D01*
Y307500D02*X14500D01*
X4500Y297500D02*X14500D01*
X4500Y337500D02*Y297500D01*
Y337500D02*X14500D01*
Y297500D01*
G54D193*X4300Y343700D02*X18000D01*
X4300Y362300D02*X18000D01*
X4300D02*Y343700D01*
X18000Y362300D02*Y343700D01*
X26300Y358600D02*X40000D01*
X26300Y377200D02*X40000D01*
X26300D02*Y358600D01*
X40000Y377200D02*Y358600D01*
G54D194*X20532Y331411D02*Y317389D01*
X27468D01*
Y331411D02*Y317389D01*
X20532Y331411D02*X27468D01*
G54D193*X128000Y106500D02*X130000D01*
X130500Y106000D01*
Y105000D01*
X130000Y104500D02*X130500Y105000D01*
X128500Y104500D02*X130000D01*
X128500Y106500D02*Y102500D01*
Y104500D02*X130500Y102500D01*
X131700Y106000D02*X132200Y106500D01*
X133700D01*
X134200Y106000D01*
Y105000D01*
X131700Y102500D02*X134200Y105000D01*
X131700Y102500D02*X134200D01*
X135400Y103000D02*X135900Y102500D01*
X135400Y106000D02*Y103000D01*
Y106000D02*X135900Y106500D01*
X136900D01*
X137400Y106000D01*
Y103000D01*
X136900Y102500D02*X137400Y103000D01*
X135900Y102500D02*X136900D01*
X135400Y103500D02*X137400Y105500D01*
X138600Y102500D02*X140600Y104500D01*
Y106000D02*Y104500D01*
X140100Y106500D02*X140600Y106000D01*
X139100Y106500D02*X140100D01*
X138600Y106000D02*X139100Y106500D01*
X138600Y106000D02*Y105000D01*
X139100Y104500D01*
X140600D01*
X125400Y138800D02*Y136800D01*
Y138800D02*X125900Y139300D01*
X126900D01*
X127400Y138800D02*X126900Y139300D01*
X127400Y138800D02*Y137300D01*
X125400D02*X129400D01*
X127400D02*X129400Y139300D01*
X125900Y140500D02*X125400Y141000D01*
Y142000D02*Y141000D01*
Y142000D02*X125900Y142500D01*
X128900D01*
X129400Y142000D02*X128900Y142500D01*
X129400Y142000D02*Y141000D01*
X128900Y140500D02*X129400Y141000D01*
X127400Y142500D02*Y141000D01*
X128900Y143700D02*X129400Y144200D01*
X125900Y143700D02*X128900D01*
X125900D02*X125400Y144200D01*
Y145200D02*Y144200D01*
Y145200D02*X125900Y145700D01*
X128900D01*
X129400Y145200D02*X128900Y145700D01*
X129400Y145200D02*Y144200D01*
X128400Y143700D02*X126400Y145700D01*
X125400Y148400D02*X125900Y148900D01*
X125400Y148400D02*Y147400D01*
X125900Y146900D02*X125400Y147400D01*
X125900Y146900D02*X128900D01*
X129400Y147400D01*
X127400Y148400D02*X127900Y148900D01*
X127400Y148400D02*Y146900D01*
X129400Y148400D02*Y147400D01*
Y148400D02*X128900Y148900D01*
X127900D02*X128900D01*
X149500Y122000D02*X151000D01*
Y118500D01*
X150500Y118000D02*X151000Y118500D01*
X150000Y118000D02*X150500D01*
X149500Y118500D02*X150000Y118000D01*
X152700D02*X153700D01*
X153200Y122000D02*Y118000D01*
X152200Y121000D02*X153200Y122000D01*
X154900Y118500D02*X155400Y118000D01*
X154900Y121500D02*Y118500D01*
Y121500D02*X155400Y122000D01*
X156400D01*
X156900Y121500D01*
Y118500D01*
X156400Y118000D02*X156900Y118500D01*
X155400Y118000D02*X156400D01*
X154900Y119000D02*X156900Y121000D01*
X158600Y118000D02*X159600D01*
X159100Y122000D02*Y118000D01*
X158100Y121000D02*X159100Y122000D01*
X134600Y137000D02*X138600D01*
Y139000D02*Y137000D01*
X136600Y141700D02*Y140200D01*
X138600Y142200D02*Y140200D01*
X134600D02*X138600D01*
X134600Y142200D02*Y140200D01*
Y143900D02*X138600D01*
X134600Y145400D02*X135100Y145900D01*
X138100D01*
X138600Y145400D02*X138100Y145900D01*
X138600Y145400D02*Y143400D01*
X134600Y145400D02*Y143400D01*
X135100Y147100D02*X134600Y147600D01*
Y148600D02*Y147600D01*
Y148600D02*X135100Y149100D01*
X138100D01*
X138600Y148600D02*X138100Y149100D01*
X138600Y148600D02*Y147600D01*
X138100Y147100D02*X138600Y147600D01*
X136600Y149100D02*Y147600D01*
X138100Y150300D02*X138600Y150800D01*
X135100Y150300D02*X138100D01*
X135100D02*X134600Y150800D01*
Y151800D02*Y150800D01*
Y151800D02*X135100Y152300D01*
X138100D01*
X138600Y151800D02*X138100Y152300D01*
X138600Y151800D02*Y150800D01*
X137600Y150300D02*X135600Y152300D01*
X138600Y155000D02*Y154000D01*
X134600Y154500D02*X138600D01*
X135600Y153500D02*X134600Y154500D01*
X268721Y179299D02*Y177799D01*
X269221Y179799D02*X268721Y179299D01*
X269221Y179799D02*X272221D01*
X272721Y179299D01*
Y177799D01*
X270721Y176599D02*X272721Y174599D01*
X270721Y176599D02*Y174099D01*
X268721Y174599D02*X272721D01*
X268721Y172399D02*Y171399D01*
Y171899D02*X272721D01*
X271721Y172899D02*X272721Y171899D01*
X272221Y170199D02*X272721Y169699D01*
Y168699D01*
X272221Y168199D01*
X269221D02*X272221D01*
X268721Y168699D02*X269221Y168199D01*
X268721Y169699D02*Y168699D01*
X269221Y170199D02*X268721Y169699D01*
X270721D02*Y168199D01*
X226000Y173500D02*Y170000D01*
X226500Y169500D01*
X227500D01*
X228000Y170000D01*
Y173500D02*Y170000D01*
X229700Y169500D02*X230700D01*
X230200Y173500D02*Y169500D01*
X229200Y172500D02*X230200Y173500D01*
X231900Y170000D02*X232400Y169500D01*
X231900Y173000D02*Y170000D01*
Y173000D02*X232400Y173500D01*
X233400D01*
X233900Y173000D01*
Y170000D01*
X233400Y169500D02*X233900Y170000D01*
X232400Y169500D02*X233400D01*
X231900Y170500D02*X233900Y172500D01*
X235100Y173000D02*X235600Y173500D01*
X236600D01*
X237100Y173000D01*
Y170000D01*
X236600Y169500D02*X237100Y170000D01*
X235600Y169500D02*X236600D01*
X235100Y170000D02*X235600Y169500D01*
Y171500D02*X237100D01*
X189500Y111000D02*X191500D01*
X192000Y110500D01*
Y109500D01*
X191500Y109000D02*X192000Y109500D01*
X190000Y109000D02*X191500D01*
X190000Y111000D02*Y107000D01*
Y109000D02*X192000Y107000D01*
X193200Y110500D02*X193700Y111000D01*
X195200D01*
X195700Y110500D01*
Y109500D01*
X193200Y107000D02*X195700Y109500D01*
X193200Y107000D02*X195700D01*
X196900Y107500D02*X197400Y107000D01*
X196900Y110500D02*Y107500D01*
Y110500D02*X197400Y111000D01*
X198400D01*
X198900Y110500D01*
Y107500D01*
X198400Y107000D02*X198900Y107500D01*
X197400Y107000D02*X198400D01*
X196900Y108000D02*X198900Y110000D01*
X200100Y110500D02*X200600Y111000D01*
X201600D01*
X202100Y110500D01*
Y107500D01*
X201600Y107000D02*X202100Y107500D01*
X200600Y107000D02*X201600D01*
X200100Y107500D02*X200600Y107000D01*
Y109000D02*X202100D01*
X251079Y103101D02*X255079D01*
Y105101D02*Y103101D01*
X251579Y106301D02*X251079Y106801D01*
Y108301D02*Y106801D01*
Y108301D02*X251579Y108801D01*
X252579D01*
X255079Y106301D02*X252579Y108801D01*
X255079D02*Y106301D01*
X254579Y110001D02*X255079Y110501D01*
X251579Y110001D02*X254579D01*
X251579D02*X251079Y110501D01*
Y111501D02*Y110501D01*
Y111501D02*X251579Y112001D01*
X254579D01*
X255079Y111501D02*X254579Y112001D01*
X255079Y111501D02*Y110501D01*
X254079Y110001D02*X252079Y112001D01*
X251579Y113201D02*X251079Y113701D01*
Y115201D02*Y113701D01*
Y115201D02*X251579Y115701D01*
X252579D01*
X255079Y113201D02*X252579Y115701D01*
X255079D02*Y113201D01*
X226500Y115500D02*Y114000D01*
X226000Y113500D02*X226500Y114000D01*
X223000Y113500D02*X226000D01*
X223000D02*X222500Y114000D01*
Y115500D02*Y114000D01*
X223000Y116700D02*X222500Y117200D01*
Y118700D02*Y117200D01*
Y118700D02*X223000Y119200D01*
X224000D01*
X226500Y116700D02*X224000Y119200D01*
X226500D02*Y116700D01*
X226000Y120400D02*X226500Y120900D01*
X223000Y120400D02*X226000D01*
X223000D02*X222500Y120900D01*
Y121900D02*Y120900D01*
Y121900D02*X223000Y122400D01*
X226000D01*
X226500Y121900D02*X226000Y122400D01*
X226500Y121900D02*Y120900D01*
X225500Y120400D02*X223500Y122400D01*
X223000Y123600D02*X222500Y124100D01*
Y125100D02*Y124100D01*
Y125100D02*X223000Y125600D01*
X226000D01*
X226500Y125100D02*X226000Y125600D01*
X226500Y125100D02*Y124100D01*
X226000Y123600D02*X226500Y124100D01*
X224500Y125600D02*Y124100D01*
X190500Y118000D02*X192000D01*
X190000Y118500D02*X190500Y118000D01*
X190000Y121500D02*Y118500D01*
Y121500D02*X190500Y122000D01*
X192000D01*
X193200Y121500D02*X193700Y122000D01*
X195200D01*
X195700Y121500D01*
Y120500D01*
X193200Y118000D02*X195700Y120500D01*
X193200Y118000D02*X195700D01*
X196900Y118500D02*X197400Y118000D01*
X196900Y121500D02*Y118500D01*
Y121500D02*X197400Y122000D01*
X198400D01*
X198900Y121500D01*
Y118500D01*
X198400Y118000D02*X198900Y118500D01*
X197400Y118000D02*X198400D01*
X196900Y119000D02*X198900Y121000D01*
X200100Y121500D02*X200600Y122000D01*
X202100D01*
X202600Y121500D01*
Y120500D01*
X200100Y118000D02*X202600Y120500D01*
X200100Y118000D02*X202600D01*
X113100Y118100D02*Y114100D01*
X115100D01*
X116300Y116100D02*X117800D01*
X116300Y114100D02*X118300D01*
X116300Y118100D02*Y114100D01*
Y118100D02*X118300D01*
X120000D02*Y114100D01*
X121500Y118100D02*X122000Y117600D01*
Y114600D01*
X121500Y114100D02*X122000Y114600D01*
X119500Y114100D02*X121500D01*
X119500Y118100D02*X121500D01*
X123700Y114100D02*X124700D01*
X124200Y118100D02*Y114100D01*
X123200Y117100D02*X124200Y118100D01*
X125900Y114600D02*X126400Y114100D01*
X125900Y117600D02*Y114600D01*
Y117600D02*X126400Y118100D01*
X127400D01*
X127900Y117600D01*
Y114600D01*
X127400Y114100D02*X127900Y114600D01*
X126400Y114100D02*X127400D01*
X125900Y115100D02*X127900Y117100D01*
X129600Y114100D02*X130600D01*
X130100Y118100D02*Y114100D01*
X129100Y117100D02*X130100Y118100D01*
X301201Y92921D02*X302701D01*
X300701Y93421D02*X301201Y92921D01*
X300701Y96421D02*Y93421D01*
Y96421D02*X301201Y96921D01*
X302701D01*
X303901Y94921D02*X305901Y96921D01*
X303901Y94921D02*X306401D01*
X305901Y96921D02*Y92921D01*
X307601Y93421D02*X308101Y92921D01*
X307601Y96421D02*Y93421D01*
Y96421D02*X308101Y96921D01*
X309101D01*
X309601Y96421D01*
Y93421D01*
X309101Y92921D02*X309601Y93421D01*
X308101Y92921D02*X309101D01*
X307601Y93921D02*X309601Y95921D01*
X310801Y96421D02*X311301Y96921D01*
X312301D01*
X312801Y96421D01*
Y93421D01*
X312301Y92921D02*X312801Y93421D01*
X311301Y92921D02*X312301D01*
X310801Y93421D02*X311301Y92921D01*
Y94921D02*X312801D01*
X300798Y101544D02*X302298D01*
X300298Y102044D02*X300798Y101544D01*
X300298Y105044D02*Y102044D01*
Y105044D02*X300798Y105544D01*
X302298D01*
X303498Y103544D02*X305498Y105544D01*
X303498Y103544D02*X305998D01*
X305498Y105544D02*Y101544D01*
X307198Y102044D02*X307698Y101544D01*
X307198Y105044D02*Y102044D01*
Y105044D02*X307698Y105544D01*
X308698D01*
X309198Y105044D01*
Y102044D01*
X308698Y101544D02*X309198Y102044D01*
X307698Y101544D02*X308698D01*
X307198Y102544D02*X309198Y104544D01*
X310398Y103544D02*X312398Y105544D01*
X310398Y103544D02*X312898D01*
X312398Y105544D02*Y101544D01*
X303700Y138200D02*X307200D01*
X303700D02*X303200Y137700D01*
Y136700D01*
X303700Y136200D01*
X307200D01*
X305200Y135000D02*X307200Y133000D01*
X305200Y135000D02*Y132500D01*
X303200Y133000D02*X307200D01*
X303700Y131300D02*X303200Y130800D01*
X303700Y131300D02*X306700D01*
X307200Y130800D01*
Y129800D01*
X306700Y129300D01*
X303700D02*X306700D01*
X303200Y129800D02*X303700Y129300D01*
X303200Y130800D02*Y129800D01*
X304200Y131300D02*X306200Y129300D01*
X306700Y128100D02*X307200Y127600D01*
Y126600D01*
X306700Y126100D01*
X303700D02*X306700D01*
X303200Y126600D02*X303700Y126100D01*
X303200Y127600D02*Y126600D01*
X303700Y128100D02*X303200Y127600D01*
X305200D02*Y126100D01*
X356200Y82200D02*Y80700D01*
X355700Y80200D02*X356200Y80700D01*
X352700Y80200D02*X355700D01*
X352700D02*X352200Y80700D01*
Y82200D02*Y80700D01*
X356200Y84900D02*Y83900D01*
X352200Y84400D02*X356200D01*
X353200Y83400D02*X352200Y84400D01*
X355700Y86100D02*X356200Y86600D01*
X352700Y86100D02*X355700D01*
X352700D02*X352200Y86600D01*
Y87600D02*Y86600D01*
Y87600D02*X352700Y88100D01*
X355700D01*
X356200Y87600D02*X355700Y88100D01*
X356200Y87600D02*Y86600D01*
X355200Y86100D02*X353200Y88100D01*
X352700Y89300D02*X352200Y89800D01*
Y90800D02*Y89800D01*
Y90800D02*X352700Y91300D01*
X355700D01*
X356200Y90800D02*X355700Y91300D01*
X356200Y90800D02*Y89800D01*
X355700Y89300D02*X356200Y89800D01*
X354200Y91300D02*Y89800D01*
X318747Y73194D02*X320247D01*
X318247Y73694D02*X318747Y73194D01*
X318247Y76694D02*Y73694D01*
Y76694D02*X318747Y77194D01*
X320247D01*
X321447Y76694D02*X321947Y77194D01*
X323447D01*
X323947Y76694D01*
Y75694D01*
X321447Y73194D02*X323947Y75694D01*
X321447Y73194D02*X323947D01*
X325147Y76694D02*X325647Y77194D01*
X327147D01*
X327647Y76694D01*
Y75694D01*
X325147Y73194D02*X327647Y75694D01*
X325147Y73194D02*X327647D01*
X328847D02*X331347Y75694D01*
Y77194D02*Y75694D01*
X328847Y77194D02*X331347D01*
X325565Y80821D02*Y78821D01*
Y80821D02*X326065Y81321D01*
X327065D01*
X327565Y80821D02*X327065Y81321D01*
X327565Y80821D02*Y79321D01*
X325565D02*X329565D01*
X327565D02*X329565Y81321D01*
Y84021D02*Y83021D01*
X325565Y83521D02*X329565D01*
X326565Y82521D02*X325565Y83521D01*
X329065Y85221D02*X329565Y85721D01*
X326065Y85221D02*X329065D01*
X326065D02*X325565Y85721D01*
Y86721D02*Y85721D01*
Y86721D02*X326065Y87221D01*
X329065D01*
X329565Y86721D02*X329065Y87221D01*
X329565Y86721D02*Y85721D01*
X328565Y85221D02*X326565Y87221D01*
X325565Y90421D02*Y88421D01*
X327565D01*
X327065Y88921D01*
Y89921D02*Y88921D01*
Y89921D02*X327565Y90421D01*
X329065D01*
X329565Y89921D02*X329065Y90421D01*
X329565Y89921D02*Y88921D01*
X329065Y88421D02*X329565Y88921D01*
X332681Y70092D02*Y68092D01*
X332181Y67592D01*
X331181D02*X332181D01*
X330681Y68092D02*X331181Y67592D01*
X330681Y69592D02*Y68092D01*
X328681Y69592D02*X332681D01*
X330681D02*X328681Y67592D01*
X332181Y66392D02*X332681Y65892D01*
Y64392D01*
X332181Y63892D01*
X331181D02*X332181D01*
X328681Y66392D02*X331181Y63892D01*
X328681Y66392D02*Y63892D01*
X329181Y62692D02*X328681Y62192D01*
X329181Y62692D02*X332181D01*
X332681Y62192D01*
Y61192D01*
X332181Y60692D01*
X329181D02*X332181D01*
X328681Y61192D02*X329181Y60692D01*
X328681Y62192D02*Y61192D01*
X329681Y62692D02*X331681Y60692D01*
X332681Y57992D02*X332181Y57492D01*
X332681Y58992D02*Y57992D01*
X332181Y59492D02*X332681Y58992D01*
X329181Y59492D02*X332181D01*
X329181D02*X328681Y58992D01*
X330681Y57992D02*X330181Y57492D01*
X330681Y59492D02*Y57992D01*
X328681Y58992D02*Y57992D01*
X329181Y57492D01*
X330181D01*
X334900Y105300D02*X336400D01*
Y101800D01*
X335900Y101300D02*X336400Y101800D01*
X335400Y101300D02*X335900D01*
X334900Y101800D02*X335400Y101300D01*
X337600Y103300D02*X339600Y105300D01*
X337600Y103300D02*X340100D01*
X339600Y105300D02*Y101300D01*
X341300Y101800D02*X341800Y101300D01*
X341300Y104800D02*Y101800D01*
Y104800D02*X341800Y105300D01*
X342800D01*
X343300Y104800D01*
Y101800D01*
X342800Y101300D02*X343300Y101800D01*
X341800Y101300D02*X342800D01*
X341300Y102300D02*X343300Y104300D01*
X344500Y104800D02*X345000Y105300D01*
X346000D01*
X346500Y104800D01*
Y101800D01*
X346000Y101300D02*X346500Y101800D01*
X345000Y101300D02*X346000D01*
X344500Y101800D02*X345000Y101300D01*
Y103300D02*X346500D01*
X318247Y50194D02*X320247D01*
X320747Y49694D01*
Y48694D01*
X320247Y48194D02*X320747Y48694D01*
X318747Y48194D02*X320247D01*
X318747Y50194D02*Y46194D01*
Y48194D02*X320747Y46194D01*
X321947Y49694D02*X322447Y50194D01*
X323947D01*
X324447Y49694D01*
Y48694D01*
X321947Y46194D02*X324447Y48694D01*
X321947Y46194D02*X324447D01*
X325647Y46694D02*X326147Y46194D01*
X325647Y49694D02*Y46694D01*
Y49694D02*X326147Y50194D01*
X327147D01*
X327647Y49694D01*
Y46694D01*
X327147Y46194D02*X327647Y46694D01*
X326147Y46194D02*X327147D01*
X325647Y47194D02*X327647Y49194D01*
X328847Y46194D02*X331347Y48694D01*
Y50194D02*Y48694D01*
X328847Y50194D02*X331347D01*
X274900Y129900D02*Y125900D01*
X277400Y129900D02*Y125900D01*
X274900Y127900D02*X277400D01*
X278600Y129400D02*X279100Y129900D01*
X280600D01*
X281100Y129400D01*
Y128400D01*
X278600Y125900D02*X281100Y128400D01*
X278600Y125900D02*X281100D01*
X282300Y126400D02*X282800Y125900D01*
X282300Y129400D02*Y126400D01*
Y129400D02*X282800Y129900D01*
X283800D01*
X284300Y129400D01*
Y126400D01*
X283800Y125900D02*X284300Y126400D01*
X282800Y125900D02*X283800D01*
X282300Y126900D02*X284300Y128900D01*
X285500Y127900D02*X287500Y129900D01*
X285500Y127900D02*X288000D01*
X287500Y129900D02*Y125900D01*
X304300Y172800D02*X307800D01*
X304300D02*X303800Y172300D01*
Y171300D01*
X304300Y170800D01*
X307800D01*
X305800Y169600D02*X307800Y167600D01*
X305800Y169600D02*Y167100D01*
X303800Y167600D02*X307800D01*
X304300Y165900D02*X303800Y165400D01*
X304300Y165900D02*X307300D01*
X307800Y165400D01*
Y164400D01*
X307300Y163900D01*
X304300D02*X307300D01*
X303800Y164400D02*X304300Y163900D01*
X303800Y165400D02*Y164400D01*
X304800Y165900D02*X306800Y163900D01*
X307300Y162700D02*X307800Y162200D01*
Y160700D01*
X307300Y160200D01*
X306300D02*X307300D01*
X303800Y162700D02*X306300Y160200D01*
X303800Y162700D02*Y160200D01*
X299500Y195000D02*X301500D01*
X302000Y194500D01*
Y193500D01*
X301500Y193000D02*X302000Y193500D01*
X300000Y193000D02*X301500D01*
X300000Y195000D02*Y191000D01*
Y193000D02*X302000Y191000D01*
X303200Y193000D02*X305200Y195000D01*
X303200Y193000D02*X305700D01*
X305200Y195000D02*Y191000D01*
X306900Y191500D02*X307400Y191000D01*
X306900Y194500D02*Y191500D01*
Y194500D02*X307400Y195000D01*
X308400D01*
X308900Y194500D01*
Y191500D01*
X308400Y191000D02*X308900Y191500D01*
X307400Y191000D02*X308400D01*
X306900Y192000D02*X308900Y194000D01*
X310100Y191000D02*X312100Y193000D01*
Y194500D02*Y193000D01*
X311600Y195000D02*X312100Y194500D01*
X310600Y195000D02*X311600D01*
X310100Y194500D02*X310600Y195000D01*
X310100Y194500D02*Y193500D01*
X310600Y193000D01*
X312100D01*
X279521Y180099D02*Y178599D01*
X280021Y180599D02*X279521Y180099D01*
X280021Y180599D02*X283021D01*
X283521Y180099D01*
Y178599D01*
X281521Y177399D02*X283521Y175399D01*
X281521Y177399D02*Y174899D01*
X279521Y175399D02*X283521D01*
X280021Y173699D02*X279521Y173199D01*
X280021Y173699D02*X283021D01*
X283521Y173199D01*
Y172199D01*
X283021Y171699D01*
X280021D02*X283021D01*
X279521Y172199D02*X280021Y171699D01*
X279521Y173199D02*Y172199D01*
X280521Y173699D02*X282521Y171699D01*
X279521Y170499D02*X282021Y167999D01*
X283521D01*
Y170499D02*Y167999D01*
X184000Y232000D02*X185500D01*
X183500Y232500D02*X184000Y232000D01*
X183500Y235500D02*Y232500D01*
Y235500D02*X184000Y236000D01*
X185500D01*
X186700Y235500D02*X187200Y236000D01*
X188700D01*
X189200Y235500D01*
Y234500D01*
X186700Y232000D02*X189200Y234500D01*
X186700Y232000D02*X189200D01*
X190900D02*X191900D01*
X191400Y236000D02*Y232000D01*
X190400Y235000D02*X191400Y236000D01*
X193100Y235500D02*X193600Y236000D01*
X195100D01*
X195600Y235500D01*
Y234500D01*
X193100Y232000D02*X195600Y234500D01*
X193100Y232000D02*X195600D01*
X193821Y262699D02*Y260699D01*
X193321Y260199D01*
X192321D02*X193321D01*
X191821Y260699D02*X192321Y260199D01*
X191821Y262199D02*Y260699D01*
X189821Y262199D02*X193821D01*
X191821D02*X189821Y260199D01*
X193321Y258999D02*X193821Y258499D01*
Y257499D01*
X193321Y256999D01*
X190321D02*X193321D01*
X189821Y257499D02*X190321Y256999D01*
X189821Y258499D02*Y257499D01*
X190321Y258999D02*X189821Y258499D01*
X191821D02*Y256999D01*
X190321Y255799D02*X189821Y255299D01*
X190321Y255799D02*X193321D01*
X193821Y255299D01*
Y254299D01*
X193321Y253799D01*
X190321D02*X193321D01*
X189821Y254299D02*X190321Y253799D01*
X189821Y255299D02*Y254299D01*
X190821Y255799D02*X192821Y253799D01*
X191821Y252599D02*X193821Y250599D01*
X191821Y252599D02*Y250099D01*
X189821Y250599D02*X193821D01*
X211200Y254400D02*X212700D01*
Y250900D01*
X212200Y250400D02*X212700Y250900D01*
X211700Y250400D02*X212200D01*
X211200Y250900D02*X211700Y250400D01*
X213900Y253900D02*X214400Y254400D01*
X215900D01*
X216400Y253900D01*
Y252900D01*
X213900Y250400D02*X216400Y252900D01*
X213900Y250400D02*X216400D01*
X217600Y250900D02*X218100Y250400D01*
X217600Y253900D02*Y250900D01*
Y253900D02*X218100Y254400D01*
X219100D01*
X219600Y253900D01*
Y250900D01*
X219100Y250400D02*X219600Y250900D01*
X218100Y250400D02*X219100D01*
X217600Y251400D02*X219600Y253400D01*
X220800Y254400D02*X222800D01*
X220800D02*Y252400D01*
X221300Y252900D01*
X222300D01*
X222800Y252400D01*
Y250900D01*
X222300Y250400D02*X222800Y250900D01*
X221300Y250400D02*X222300D01*
X220800Y250900D02*X221300Y250400D01*
X260037Y296911D02*Y295411D01*
X260537Y297411D02*X260037Y296911D01*
X260537Y297411D02*X263537D01*
X264037Y296911D01*
Y295411D01*
X262037Y294211D02*X264037Y292211D01*
X262037Y294211D02*Y291711D01*
X260037Y292211D02*X264037D01*
X260037Y290011D02*Y289011D01*
Y289511D02*X264037D01*
X263037Y290511D02*X264037Y289511D01*
Y286311D02*X263537Y285811D01*
X264037Y287311D02*Y286311D01*
X263537Y287811D02*X264037Y287311D01*
X260537Y287811D02*X263537D01*
X260537D02*X260037Y287311D01*
X262037Y286311D02*X261537Y285811D01*
X262037Y287811D02*Y286311D01*
X260037Y287311D02*Y286311D01*
X260537Y285811D01*
X261537D01*
X252513Y297397D02*Y295897D01*
X253013Y297897D02*X252513Y297397D01*
X253013Y297897D02*X256013D01*
X256513Y297397D01*
Y295897D01*
X254513Y294697D02*X256513Y292697D01*
X254513Y294697D02*Y292197D01*
X252513Y292697D02*X256513D01*
X252513Y290497D02*Y289497D01*
Y289997D02*X256513D01*
X255513Y290997D02*X256513Y289997D01*
X252513Y288297D02*X255013Y285797D01*
X256513D01*
Y288297D02*Y285797D01*
X260737Y182160D02*Y180660D01*
X261237Y182660D02*X260737Y182160D01*
X261237Y182660D02*X264237D01*
X264737Y182160D01*
Y180660D01*
X262737Y179460D02*X264737Y177460D01*
X262737Y179460D02*Y176960D01*
X260737Y177460D02*X264737D01*
X261237Y175760D02*X260737Y175260D01*
X261237Y175760D02*X264237D01*
X264737Y175260D01*
Y174260D01*
X264237Y173760D01*
X261237D02*X264237D01*
X260737Y174260D02*X261237Y173760D01*
X260737Y175260D02*Y174260D01*
X261737Y175760D02*X263737Y173760D01*
X261237Y172560D02*X260737Y172060D01*
X261237Y172560D02*X262237D01*
X262737Y172060D01*
Y171060D01*
X262237Y170560D01*
X261237D02*X262237D01*
X260737Y171060D02*X261237Y170560D01*
X260737Y172060D02*Y171060D01*
X263237Y172560D02*X262737Y172060D01*
X263237Y172560D02*X264237D01*
X264737Y172060D01*
Y171060D01*
X264237Y170560D01*
X263237D02*X264237D01*
X262737Y171060D02*X263237Y170560D01*
X237600Y244300D02*X241100D01*
X237600D02*X237100Y243800D01*
Y242800D01*
X237600Y242300D01*
X241100D01*
X239100Y241100D02*X241100Y239100D01*
X239100Y241100D02*Y238600D01*
X237100Y239100D02*X241100D01*
X237600Y237400D02*X237100Y236900D01*
X237600Y237400D02*X240600D01*
X241100Y236900D01*
Y235900D01*
X240600Y235400D01*
X237600D02*X240600D01*
X237100Y235900D02*X237600Y235400D01*
X237100Y236900D02*Y235900D01*
X238100Y237400D02*X240100Y235400D01*
X237100Y233700D02*Y232700D01*
Y233200D02*X241100D01*
X240100Y234200D02*X241100Y233200D01*
X101300Y8900D02*X105300D01*
Y10900D02*Y8900D01*
X103300Y12100D02*X101300Y14100D01*
X103300Y14600D02*Y12100D01*
X101300Y14100D02*X105300D01*
X104800Y15800D02*X105300Y16300D01*
X101800Y15800D02*X104800D01*
X101800D02*X101300Y16300D01*
Y17300D02*Y16300D01*
Y17300D02*X101800Y17800D01*
X104800D01*
X105300Y17300D02*X104800Y17800D01*
X105300Y17300D02*Y16300D01*
X104300Y15800D02*X102300Y17800D01*
X105300Y20500D02*Y19500D01*
X101300Y20000D02*X105300D01*
X102300Y19000D02*X101300Y20000D01*
X151400Y17800D02*Y14300D01*
X151900Y13800D01*
X152900D01*
X153400Y14300D01*
Y17800D02*Y14300D01*
X154600Y15800D02*X156600Y17800D01*
X154600Y15800D02*X157100D01*
X156600Y17800D02*Y13800D01*
X158300Y14300D02*X158800Y13800D01*
X158300Y17300D02*Y14300D01*
Y17300D02*X158800Y17800D01*
X159800D01*
X160300Y17300D01*
Y14300D01*
X159800Y13800D02*X160300Y14300D01*
X158800Y13800D02*X159800D01*
X158300Y14800D02*X160300Y16800D01*
X163000Y17800D02*X163500Y17300D01*
X162000Y17800D02*X163000D01*
X161500Y17300D02*X162000Y17800D01*
X161500Y17300D02*Y14300D01*
X162000Y13800D01*
X163000Y15800D02*X163500Y15300D01*
X161500Y15800D02*X163000D01*
X162000Y13800D02*X163000D01*
X163500Y14300D01*
Y15300D02*Y14300D01*
X260000Y102000D02*X261500D01*
X259500Y102500D02*X260000Y102000D01*
X259500Y105500D02*Y102500D01*
Y105500D02*X260000Y106000D01*
X261500D01*
X262700Y105500D02*X263200Y106000D01*
X264700D01*
X265200Y105500D01*
Y104500D01*
X262700Y102000D02*X265200Y104500D01*
X262700Y102000D02*X265200D01*
X266400Y102500D02*X266900Y102000D01*
X266400Y105500D02*Y102500D01*
Y105500D02*X266900Y106000D01*
X267900D01*
X268400Y105500D01*
Y102500D01*
X267900Y102000D02*X268400Y102500D01*
X266900Y102000D02*X267900D01*
X266400Y103000D02*X268400Y105000D01*
X269600Y106000D02*X271600D01*
X269600D02*Y104000D01*
X270100Y104500D01*
X271100D01*
X271600Y104000D01*
Y102500D01*
X271100Y102000D02*X271600Y102500D01*
X270100Y102000D02*X271100D01*
X269600Y102500D02*X270100Y102000D01*
X292800Y68200D02*X296300D01*
X292800D02*X292300Y67700D01*
Y66700D01*
X292800Y66200D01*
X296300D01*
X295800Y65000D02*X296300Y64500D01*
Y63000D01*
X295800Y62500D01*
X294800D02*X295800D01*
X292300Y65000D02*X294800Y62500D01*
X292300Y65000D02*Y62500D01*
X292800Y61300D02*X292300Y60800D01*
X292800Y61300D02*X295800D01*
X296300Y60800D01*
Y59800D01*
X295800Y59300D01*
X292800D02*X295800D01*
X292300Y59800D02*X292800Y59300D01*
X292300Y60800D02*Y59800D01*
X293300Y61300D02*X295300Y59300D01*
X294300Y58100D02*X296300Y56100D01*
X294300Y58100D02*Y55600D01*
X292300Y56100D02*X296300D01*
X247600Y56300D02*Y52800D01*
X248100Y52300D01*
X249100D01*
X249600Y52800D01*
Y56300D02*Y52800D01*
X250800Y55800D02*X251300Y56300D01*
X252800D01*
X253300Y55800D01*
Y54800D01*
X250800Y52300D02*X253300Y54800D01*
X250800Y52300D02*X253300D01*
X254500Y52800D02*X255000Y52300D01*
X254500Y55800D02*Y52800D01*
Y55800D02*X255000Y56300D01*
X256000D01*
X256500Y55800D01*
Y52800D01*
X256000Y52300D02*X256500Y52800D01*
X255000Y52300D02*X256000D01*
X254500Y53300D02*X256500Y55300D01*
X257700Y55800D02*X258200Y56300D01*
X259700D01*
X260200Y55800D01*
Y54800D01*
X257700Y52300D02*X260200Y54800D01*
X257700Y52300D02*X260200D01*
X226500Y55000D02*Y53500D01*
X226000Y53000D02*X226500Y53500D01*
X223000Y53000D02*X226000D01*
X223000D02*X222500Y53500D01*
Y55000D02*Y53500D01*
X223000Y56200D02*X222500Y56700D01*
Y58200D02*Y56700D01*
Y58200D02*X223000Y58700D01*
X224000D01*
X226500Y56200D02*X224000Y58700D01*
X226500D02*Y56200D01*
X226000Y59900D02*X226500Y60400D01*
X223000Y59900D02*X226000D01*
X223000D02*X222500Y60400D01*
Y61400D02*Y60400D01*
Y61400D02*X223000Y61900D01*
X226000D01*
X226500Y61400D02*X226000Y61900D01*
X226500Y61400D02*Y60400D01*
X225500Y59900D02*X223500Y61900D01*
X226500Y64600D02*Y63600D01*
X222500Y64100D02*X226500D01*
X223500Y63100D02*X222500Y64100D01*
X232500Y54500D02*X236500D01*
Y56500D02*Y54500D01*
X233000Y57700D02*X232500Y58200D01*
Y59700D02*Y58200D01*
Y59700D02*X233000Y60200D01*
X234000D01*
X236500Y57700D02*X234000Y60200D01*
X236500D02*Y57700D01*
X236000Y61400D02*X236500Y61900D01*
X233000Y61400D02*X236000D01*
X233000D02*X232500Y61900D01*
Y62900D02*Y61900D01*
Y62900D02*X233000Y63400D01*
X236000D01*
X236500Y62900D02*X236000Y63400D01*
X236500Y62900D02*Y61900D01*
X235500Y61400D02*X233500Y63400D01*
X236500Y66100D02*Y65100D01*
X232500Y65600D02*X236500D01*
X233500Y64600D02*X232500Y65600D01*
X235000Y5000D02*X237000D01*
X237500Y5500D01*
Y6500D02*Y5500D01*
X237000Y7000D02*X237500Y6500D01*
X235500Y7000D02*X237000D01*
X235500Y9000D02*Y5000D01*
X235000Y9000D02*X237000D01*
X237500Y8500D01*
Y7500D01*
X237000Y7000D02*X237500Y7500D01*
X238700Y7000D02*X240700Y9000D01*
X238700Y7000D02*X241200D01*
X240700Y9000D02*Y5000D01*
X242400Y5500D02*X242900Y5000D01*
X242400Y8500D02*Y5500D01*
Y8500D02*X242900Y9000D01*
X243900D01*
X244400Y8500D01*
Y5500D01*
X243900Y5000D02*X244400Y5500D01*
X242900Y5000D02*X243900D01*
X242400Y6000D02*X244400Y8000D01*
X246100Y5000D02*X247100D01*
X246600Y9000D02*Y5000D01*
X245600Y8000D02*X246600Y9000D01*
X188100Y63600D02*X192100D01*
X188100Y65100D02*X188600Y65600D01*
X191600D01*
X192100Y65100D02*X191600Y65600D01*
X192100Y65100D02*Y63100D01*
X188100Y65100D02*Y63100D01*
X190100Y66800D02*X188100Y68800D01*
X190100Y69300D02*Y66800D01*
X188100Y68800D02*X192100D01*
X191600Y70500D02*X192100Y71000D01*
X188600Y70500D02*X191600D01*
X188600D02*X188100Y71000D01*
Y72000D02*Y71000D01*
Y72000D02*X188600Y72500D01*
X191600D01*
X192100Y72000D02*X191600Y72500D01*
X192100Y72000D02*Y71000D01*
X191100Y70500D02*X189100Y72500D01*
X192100Y75200D02*Y74200D01*
X188100Y74700D02*X192100D01*
X189100Y73700D02*X188100Y74700D01*
X175600Y59700D02*Y58200D01*
X175100Y57700D02*X175600Y58200D01*
X172100Y57700D02*X175100D01*
X172100D02*X171600Y58200D01*
Y59700D02*Y58200D01*
X173600Y60900D02*X171600Y62900D01*
X173600Y63400D02*Y60900D01*
X171600Y62900D02*X175600D01*
X172100Y64600D02*X171600Y65100D01*
Y66600D02*Y65100D01*
Y66600D02*X172100Y67100D01*
X173100D01*
X175600Y64600D02*X173100Y67100D01*
X175600D02*Y64600D01*
X172100Y68300D02*X171600Y68800D01*
Y69800D02*Y68800D01*
Y69800D02*X172100Y70300D01*
X175100D01*
X175600Y69800D02*X175100Y70300D01*
X175600Y69800D02*Y68800D01*
X175100Y68300D02*X175600Y68800D01*
X173600Y70300D02*Y68800D01*
X181300Y91100D02*Y89600D01*
X180800Y89100D02*X181300Y89600D01*
X177800Y89100D02*X180800D01*
X177800D02*X177300Y89600D01*
Y91100D02*Y89600D01*
X177800Y92300D02*X177300Y92800D01*
Y94300D02*Y92800D01*
Y94300D02*X177800Y94800D01*
X178800D01*
X181300Y92300D02*X178800Y94800D01*
X181300D02*Y92300D01*
X177800Y96000D02*X177300Y96500D01*
Y98000D02*Y96500D01*
Y98000D02*X177800Y98500D01*
X178800D01*
X181300Y96000D02*X178800Y98500D01*
X181300D02*Y96000D01*
X180800Y99700D02*X181300Y100200D01*
X179800Y99700D02*X180800D01*
X179800D02*X179300Y100200D01*
Y101200D02*Y100200D01*
Y101200D02*X179800Y101700D01*
X180800D01*
X181300Y101200D02*X180800Y101700D01*
X181300Y101200D02*Y100200D01*
X178800Y99700D02*X179300Y100200D01*
X177800Y99700D02*X178800D01*
X177800D02*X177300Y100200D01*
Y101200D02*Y100200D01*
Y101200D02*X177800Y101700D01*
X178800D01*
X179300Y101200D02*X178800Y101700D01*
X176600Y334100D02*Y332100D01*
Y334100D02*X177100Y334600D01*
X178100D01*
X178600Y334100D02*X178100Y334600D01*
X178600Y334100D02*Y332600D01*
X176600D02*X180600D01*
X178600D02*X180600Y334600D01*
X176600Y336300D02*X180600D01*
X176600Y337800D02*Y335800D01*
Y337800D02*X177100Y338300D01*
X178100D01*
X178600Y337800D02*X178100Y338300D01*
X178600Y337800D02*Y336300D01*
X177100Y339500D02*X176600Y340000D01*
Y341000D02*Y340000D01*
Y341000D02*X177100Y341500D01*
X180100D01*
X180600Y341000D02*X180100Y341500D01*
X180600Y341000D02*Y340000D01*
X180100Y339500D02*X180600Y340000D01*
X178600Y341500D02*Y340000D01*
X180100Y342700D02*X180600Y343200D01*
X177100Y342700D02*X180100D01*
X177100D02*X176600Y343200D01*
Y344200D02*Y343200D01*
Y344200D02*X177100Y344700D01*
X180100D01*
X180600Y344200D02*X180100Y344700D01*
X180600Y344200D02*Y343200D01*
X179600Y342700D02*X177600Y344700D01*
X180600Y347400D02*Y346400D01*
X176600Y346900D02*X180600D01*
X177600Y345900D02*X176600Y346900D01*
X174600Y362200D02*X176100D01*
Y358700D01*
X175600Y358200D02*X176100Y358700D01*
X175100Y358200D02*X175600D01*
X174600Y358700D02*X175100Y358200D01*
X177300Y361700D02*X177800Y362200D01*
X178800D01*
X179300Y361700D01*
Y358700D01*
X178800Y358200D02*X179300Y358700D01*
X177800Y358200D02*X178800D01*
X177300Y358700D02*X177800Y358200D01*
Y360200D02*X179300D01*
X180500Y358700D02*X181000Y358200D01*
X180500Y361700D02*Y358700D01*
Y361700D02*X181000Y362200D01*
X182000D01*
X182500Y361700D01*
Y358700D01*
X182000Y358200D02*X182500Y358700D01*
X181000Y358200D02*X182000D01*
X180500Y359200D02*X182500Y361200D01*
X184200Y358200D02*X185200D01*
X184700Y362200D02*Y358200D01*
X183700Y361200D02*X184700Y362200D01*
X137879Y351201D02*Y349701D01*
X137379Y349201D02*X137879Y349701D01*
X134379Y349201D02*X137379D01*
X134379D02*X133879Y349701D01*
Y351201D02*Y349701D01*
X134379Y352401D02*X133879Y352901D01*
Y354401D02*Y352901D01*
Y354401D02*X134379Y354901D01*
X135379D01*
X137879Y352401D02*X135379Y354901D01*
X137879D02*Y352401D01*
Y357601D02*Y356601D01*
X133879Y357101D02*X137879D01*
X134879Y356101D02*X133879Y357101D01*
X137379Y358801D02*X137879Y359301D01*
X134379Y358801D02*X137379D01*
X134379D02*X133879Y359301D01*
Y360301D02*Y359301D01*
Y360301D02*X134379Y360801D01*
X137379D01*
X137879Y360301D02*X137379Y360801D01*
X137879Y360301D02*Y359301D01*
X136879Y358801D02*X134879Y360801D01*
X100300Y371400D02*X101800D01*
Y367900D01*
X101300Y367400D02*X101800Y367900D01*
X100800Y367400D02*X101300D01*
X100300Y367900D02*X100800Y367400D01*
X103000Y370900D02*X103500Y371400D01*
X105000D01*
X105500Y370900D01*
Y369900D01*
X103000Y367400D02*X105500Y369900D01*
X103000Y367400D02*X105500D01*
X107200D02*X108200D01*
X107700Y371400D02*Y367400D01*
X106700Y370400D02*X107700Y371400D01*
X109400Y367900D02*X109900Y367400D01*
X109400Y370900D02*Y367900D01*
Y370900D02*X109900Y371400D01*
X110900D01*
X111400Y370900D01*
Y367900D01*
X110900Y367400D02*X111400Y367900D01*
X109900Y367400D02*X110900D01*
X109400Y368400D02*X111400Y370400D01*
X92400Y345200D02*Y341700D01*
X92900Y341200D01*
X93900D01*
X94400Y341700D01*
Y345200D02*Y341700D01*
X95600Y344700D02*X96100Y345200D01*
X97100D01*
X97600Y344700D01*
Y341700D01*
X97100Y341200D02*X97600Y341700D01*
X96100Y341200D02*X97100D01*
X95600Y341700D02*X96100Y341200D01*
Y343200D02*X97600D01*
X98800Y341700D02*X99300Y341200D01*
X98800Y344700D02*Y341700D01*
Y344700D02*X99300Y345200D01*
X100300D01*
X100800Y344700D01*
Y341700D01*
X100300Y341200D02*X100800Y341700D01*
X99300Y341200D02*X100300D01*
X98800Y342200D02*X100800Y344200D01*
X102500Y341200D02*X103500D01*
X103000Y345200D02*Y341200D01*
X102000Y344200D02*X103000Y345200D01*
X233401Y269121D02*X235401D01*
X235901Y268621D01*
Y267621D01*
X235401Y267121D02*X235901Y267621D01*
X233901Y267121D02*X235401D01*
X233901Y269121D02*Y265121D01*
Y267121D02*X235901Y265121D01*
X237101Y267121D02*X239101Y269121D01*
X237101Y267121D02*X239601D01*
X239101Y269121D02*Y265121D01*
X240801Y265621D02*X241301Y265121D01*
X240801Y268621D02*Y265621D01*
Y268621D02*X241301Y269121D01*
X242301D01*
X242801Y268621D01*
Y265621D01*
X242301Y265121D02*X242801Y265621D01*
X241301Y265121D02*X242301D01*
X240801Y266121D02*X242801Y268121D01*
X244001Y268621D02*X244501Y269121D01*
X246001D01*
X246501Y268621D01*
Y267621D01*
X244001Y265121D02*X246501Y267621D01*
X244001Y265121D02*X246501D01*
X265600Y260600D02*X267100D01*
Y257100D01*
X266600Y256600D02*X267100Y257100D01*
X266100Y256600D02*X266600D01*
X265600Y257100D02*X266100Y256600D01*
X268300Y258600D02*X270300Y260600D01*
X268300Y258600D02*X270800D01*
X270300Y260600D02*Y256600D01*
X272000Y257100D02*X272500Y256600D01*
X272000Y260100D02*Y257100D01*
Y260100D02*X272500Y260600D01*
X273500D01*
X274000Y260100D01*
Y257100D01*
X273500Y256600D02*X274000Y257100D01*
X272500Y256600D02*X273500D01*
X272000Y257600D02*X274000Y259600D01*
X275200Y258600D02*X277200Y260600D01*
X275200Y258600D02*X277700D01*
X277200Y260600D02*Y256600D01*
X279300Y295300D02*Y293800D01*
X279800Y295800D02*X279300Y295300D01*
X279800Y295800D02*X282800D01*
X283300Y295300D01*
Y293800D01*
X281300Y292600D02*X283300Y290600D01*
X281300Y292600D02*Y290100D01*
X279300Y290600D02*X283300D01*
X279300Y288400D02*Y287400D01*
Y287900D02*X283300D01*
X282300Y288900D02*X283300Y287900D01*
Y286200D02*Y284200D01*
X281300Y286200D02*X283300D01*
X281300D02*X281800Y285700D01*
Y284700D01*
X281300Y284200D01*
X279800D02*X281300D01*
X279300Y284700D02*X279800Y284200D01*
X279300Y285700D02*Y284700D01*
X279800Y286200D02*X279300Y285700D01*
X268621Y294599D02*Y293099D01*
X269121Y295099D02*X268621Y294599D01*
X269121Y295099D02*X272121D01*
X272621Y294599D01*
Y293099D01*
X270621Y291899D02*X272621Y289899D01*
X270621Y291899D02*Y289399D01*
X268621Y289899D02*X272621D01*
X272121Y288199D02*X272621Y287699D01*
Y286199D01*
X272121Y285699D01*
X271121D02*X272121D01*
X268621Y288199D02*X271121Y285699D01*
X268621Y288199D02*Y285699D01*
X269121Y284499D02*X268621Y283999D01*
X269121Y284499D02*X272121D01*
X272621Y283999D01*
Y282999D01*
X272121Y282499D01*
X269121D02*X272121D01*
X268621Y282999D02*X269121Y282499D01*
X268621Y283999D02*Y282999D01*
X269621Y284499D02*X271621Y282499D01*
X233200Y313300D02*X235200D01*
X235700Y312800D01*
Y311800D01*
X235200Y311300D02*X235700Y311800D01*
X233700Y311300D02*X235200D01*
X233700Y313300D02*Y309300D01*
Y311300D02*X235700Y309300D01*
X236900Y311300D02*X238900Y313300D01*
X236900Y311300D02*X239400D01*
X238900Y313300D02*Y309300D01*
X240600Y309800D02*X241100Y309300D01*
X240600Y312800D02*Y309800D01*
Y312800D02*X241100Y313300D01*
X242100D01*
X242600Y312800D01*
Y309800D01*
X242100Y309300D02*X242600Y309800D01*
X241100Y309300D02*X242100D01*
X240600Y310300D02*X242600Y312300D01*
X244300Y309300D02*X245300D01*
X244800Y313300D02*Y309300D01*
X243800Y312300D02*X244800Y313300D01*
X299500Y255000D02*X301500D01*
X302000Y254500D01*
Y253500D01*
X301500Y253000D02*X302000Y253500D01*
X300000Y253000D02*X301500D01*
X300000Y255000D02*Y251000D01*
Y253000D02*X302000Y251000D01*
X303200Y253000D02*X305200Y255000D01*
X303200Y253000D02*X305700D01*
X305200Y255000D02*Y251000D01*
X307400D02*X308400D01*
X307900Y255000D02*Y251000D01*
X306900Y254000D02*X307900Y255000D01*
X309600Y254500D02*X310100Y255000D01*
X311600D01*
X312100Y254500D01*
Y253500D01*
X309600Y251000D02*X312100Y253500D01*
X309600Y251000D02*X312100D01*
X299500Y235000D02*X301500D01*
X302000Y234500D01*
Y233500D01*
X301500Y233000D02*X302000Y233500D01*
X300000Y233000D02*X301500D01*
X300000Y235000D02*Y231000D01*
Y233000D02*X302000Y231000D01*
X303200Y233000D02*X305200Y235000D01*
X303200Y233000D02*X305700D01*
X305200Y235000D02*Y231000D01*
X307400D02*X308400D01*
X307900Y235000D02*Y231000D01*
X306900Y234000D02*X307900Y235000D01*
X309600Y231500D02*X310100Y231000D01*
X309600Y234500D02*Y231500D01*
Y234500D02*X310100Y235000D01*
X311100D01*
X311600Y234500D01*
Y231500D01*
X311100Y231000D02*X311600Y231500D01*
X310100Y231000D02*X311100D01*
X309600Y232000D02*X311600Y234000D01*
X299500Y225000D02*X301500D01*
X302000Y224500D01*
Y223500D01*
X301500Y223000D02*X302000Y223500D01*
X300000Y223000D02*X301500D01*
X300000Y225000D02*Y221000D01*
Y223000D02*X302000Y221000D01*
X303200Y223000D02*X305200Y225000D01*
X303200Y223000D02*X305700D01*
X305200Y225000D02*Y221000D01*
X306900Y221500D02*X307400Y221000D01*
X306900Y224500D02*Y221500D01*
Y224500D02*X307400Y225000D01*
X308400D01*
X308900Y224500D01*
Y221500D01*
X308400Y221000D02*X308900Y221500D01*
X307400Y221000D02*X308400D01*
X306900Y222000D02*X308900Y224000D01*
X311600Y225000D02*X312100Y224500D01*
X310600Y225000D02*X311600D01*
X310100Y224500D02*X310600Y225000D01*
X310100Y224500D02*Y221500D01*
X310600Y221000D01*
X311600Y223000D02*X312100Y222500D01*
X310100Y223000D02*X311600D01*
X310600Y221000D02*X311600D01*
X312100Y221500D01*
Y222500D02*Y221500D01*
X299500Y245000D02*X301500D01*
X302000Y244500D01*
Y243500D01*
X301500Y243000D02*X302000Y243500D01*
X300000Y243000D02*X301500D01*
X300000Y245000D02*Y241000D01*
Y243000D02*X302000Y241000D01*
X303200Y243000D02*X305200Y245000D01*
X303200Y243000D02*X305700D01*
X305200Y245000D02*Y241000D01*
X307400D02*X308400D01*
X307900Y245000D02*Y241000D01*
X306900Y244000D02*X307900Y245000D01*
X310100Y241000D02*X311100D01*
X310600Y245000D02*Y241000D01*
X309600Y244000D02*X310600Y245000D01*
X290400Y262700D02*Y261200D01*
X290900Y263200D02*X290400Y262700D01*
X290900Y263200D02*X293900D01*
X294400Y262700D01*
Y261200D01*
X292400Y260000D02*X294400Y258000D01*
X292400Y260000D02*Y257500D01*
X290400Y258000D02*X294400D01*
X290400Y255800D02*Y254800D01*
Y255300D02*X294400D01*
X293400Y256300D02*X294400Y255300D01*
X290900Y253600D02*X290400Y253100D01*
X290900Y253600D02*X293900D01*
X294400Y253100D01*
Y252100D01*
X293900Y251600D01*
X290900D02*X293900D01*
X290400Y252100D02*X290900Y251600D01*
X290400Y253100D02*Y252100D01*
X291400Y253600D02*X293400Y251600D01*
X299500Y305000D02*X301500D01*
X302000Y304500D01*
Y303500D01*
X301500Y303000D02*X302000Y303500D01*
X300000Y303000D02*X301500D01*
X300000Y305000D02*Y301000D01*
Y303000D02*X302000Y301000D01*
X303200Y303000D02*X305200Y305000D01*
X303200Y303000D02*X305700D01*
X305200Y305000D02*Y301000D01*
X306900Y304500D02*X307400Y305000D01*
X308900D01*
X309400Y304500D01*
Y303500D01*
X306900Y301000D02*X309400Y303500D01*
X306900Y301000D02*X309400D01*
X311100D02*X312100D01*
X311600Y305000D02*Y301000D01*
X310600Y304000D02*X311600Y305000D01*
X307000Y393000D02*Y389000D01*
X309500Y393000D02*Y389000D01*
X307000Y391000D02*X309500D01*
X310700Y392500D02*X311200Y393000D01*
X312700D01*
X313200Y392500D01*
Y391500D01*
X310700Y389000D02*X313200Y391500D01*
X310700Y389000D02*X313200D01*
X314400Y389500D02*X314900Y389000D01*
X314400Y392500D02*Y389500D01*
Y392500D02*X314900Y393000D01*
X315900D01*
X316400Y392500D01*
Y389500D01*
X315900Y389000D02*X316400Y389500D01*
X314900Y389000D02*X315900D01*
X314400Y390000D02*X316400Y392000D01*
X317600Y393000D02*X319600D01*
X317600D02*Y391000D01*
X318100Y391500D01*
X319100D01*
X319600Y391000D01*
Y389500D01*
X319100Y389000D02*X319600Y389500D01*
X318100Y389000D02*X319100D01*
X317600Y389500D02*X318100Y389000D01*
X299500Y365000D02*X301500D01*
X302000Y364500D01*
Y363500D01*
X301500Y363000D02*X302000Y363500D01*
X300000Y363000D02*X301500D01*
X300000Y365000D02*Y361000D01*
Y363000D02*X302000Y361000D01*
X303200Y363000D02*X305200Y365000D01*
X303200Y363000D02*X305700D01*
X305200Y365000D02*Y361000D01*
X307400D02*X308400D01*
X307900Y365000D02*Y361000D01*
X306900Y364000D02*X307900Y365000D01*
X311100D02*X311600Y364500D01*
X310100Y365000D02*X311100D01*
X309600Y364500D02*X310100Y365000D01*
X309600Y364500D02*Y361500D01*
X310100Y361000D01*
X311100Y363000D02*X311600Y362500D01*
X309600Y363000D02*X311100D01*
X310100Y361000D02*X311100D01*
X311600Y361500D01*
Y362500D02*Y361500D01*
X321700Y384100D02*X323200D01*
Y380600D01*
X322700Y380100D02*X323200Y380600D01*
X322200Y380100D02*X322700D01*
X321700Y380600D02*X322200Y380100D01*
X324400Y382100D02*X326400Y384100D01*
X324400Y382100D02*X326900D01*
X326400Y384100D02*Y380100D01*
X328100Y380600D02*X328600Y380100D01*
X328100Y383600D02*Y380600D01*
Y383600D02*X328600Y384100D01*
X329600D01*
X330100Y383600D01*
Y380600D01*
X329600Y380100D02*X330100Y380600D01*
X328600Y380100D02*X329600D01*
X328100Y381100D02*X330100Y383100D01*
X331300Y383600D02*X331800Y384100D01*
X333300D01*
X333800Y383600D01*
Y382600D01*
X331300Y380100D02*X333800Y382600D01*
X331300Y380100D02*X333800D01*
X299500Y375000D02*X301500D01*
X302000Y374500D01*
Y373500D01*
X301500Y373000D02*X302000Y373500D01*
X300000Y373000D02*X301500D01*
X300000Y375000D02*Y371000D01*
Y373000D02*X302000Y371000D01*
X303200Y373000D02*X305200Y375000D01*
X303200Y373000D02*X305700D01*
X305200Y375000D02*Y371000D01*
X307400D02*X308400D01*
X307900Y375000D02*Y371000D01*
X306900Y374000D02*X307900Y375000D01*
X309600Y371000D02*X312100Y373500D01*
Y375000D02*Y373500D01*
X309600Y375000D02*X312100D01*
X244981Y382035D02*X246981D01*
X247481Y381535D01*
Y380535D01*
X246981Y380035D02*X247481Y380535D01*
X245481Y380035D02*X246981D01*
X245481Y382035D02*Y378035D01*
Y380035D02*X247481Y378035D01*
X248681Y380035D02*X250681Y382035D01*
X248681Y380035D02*X251181D01*
X250681Y382035D02*Y378035D01*
X252381Y378535D02*X252881Y378035D01*
X252381Y381535D02*Y378535D01*
Y381535D02*X252881Y382035D01*
X253881D01*
X254381Y381535D01*
Y378535D01*
X253881Y378035D02*X254381Y378535D01*
X252881Y378035D02*X253881D01*
X252381Y379035D02*X254381Y381035D01*
X255581Y381535D02*X256081Y382035D01*
X257081D01*
X257581Y381535D01*
Y378535D01*
X257081Y378035D02*X257581Y378535D01*
X256081Y378035D02*X257081D01*
X255581Y378535D02*X256081Y378035D01*
Y380035D02*X257581D01*
X276000Y375500D02*X277500D01*
X275500Y376000D02*X276000Y375500D01*
X275500Y379000D02*Y376000D01*
Y379000D02*X276000Y379500D01*
X277500D01*
X278700Y377500D02*X280700Y379500D01*
X278700Y377500D02*X281200D01*
X280700Y379500D02*Y375500D01*
X282900D02*X283900D01*
X283400Y379500D02*Y375500D01*
X282400Y378500D02*X283400Y379500D01*
X285100Y377500D02*X287100Y379500D01*
X285100Y377500D02*X287600D01*
X287100Y379500D02*Y375500D01*
X299500Y335000D02*X301500D01*
X302000Y334500D01*
Y333500D01*
X301500Y333000D02*X302000Y333500D01*
X300000Y333000D02*X301500D01*
X300000Y335000D02*Y331000D01*
Y333000D02*X302000Y331000D01*
X303200Y333000D02*X305200Y335000D01*
X303200Y333000D02*X305700D01*
X305200Y335000D02*Y331000D01*
X307400D02*X308400D01*
X307900Y335000D02*Y331000D01*
X306900Y334000D02*X307900Y335000D01*
X309600Y331500D02*X310100Y331000D01*
X309600Y332500D02*Y331500D01*
Y332500D02*X310100Y333000D01*
X311100D01*
X311600Y332500D01*
Y331500D01*
X311100Y331000D02*X311600Y331500D01*
X310100Y331000D02*X311100D01*
X309600Y333500D02*X310100Y333000D01*
X309600Y334500D02*Y333500D01*
Y334500D02*X310100Y335000D01*
X311100D01*
X311600Y334500D01*
Y333500D01*
X311100Y333000D02*X311600Y333500D01*
X299500Y355000D02*X301500D01*
X302000Y354500D01*
Y353500D01*
X301500Y353000D02*X302000Y353500D01*
X300000Y353000D02*X301500D01*
X300000Y355000D02*Y351000D01*
Y353000D02*X302000Y351000D01*
X303200Y353000D02*X305200Y355000D01*
X303200Y353000D02*X305700D01*
X305200Y355000D02*Y351000D01*
X307400D02*X308400D01*
X307900Y355000D02*Y351000D01*
X306900Y354000D02*X307900Y355000D01*
X309600D02*X311600D01*
X309600D02*Y353000D01*
X310100Y353500D01*
X311100D01*
X311600Y353000D01*
Y351500D01*
X311100Y351000D02*X311600Y351500D01*
X310100Y351000D02*X311100D01*
X309600Y351500D02*X310100Y351000D01*
X299500Y345000D02*X301500D01*
X302000Y344500D01*
Y343500D01*
X301500Y343000D02*X302000Y343500D01*
X300000Y343000D02*X301500D01*
X300000Y345000D02*Y341000D01*
Y343000D02*X302000Y341000D01*
X303200Y343000D02*X305200Y345000D01*
X303200Y343000D02*X305700D01*
X305200Y345000D02*Y341000D01*
X307400D02*X308400D01*
X307900Y345000D02*Y341000D01*
X306900Y344000D02*X307900Y345000D01*
X309600Y343000D02*X311600Y345000D01*
X309600Y343000D02*X312100D01*
X311600Y345000D02*Y341000D01*
X299500Y325000D02*X301500D01*
X302000Y324500D01*
Y323500D01*
X301500Y323000D02*X302000Y323500D01*
X300000Y323000D02*X301500D01*
X300000Y325000D02*Y321000D01*
Y323000D02*X302000Y321000D01*
X303200Y323000D02*X305200Y325000D01*
X303200Y323000D02*X305700D01*
X305200Y325000D02*Y321000D01*
X307400D02*X308400D01*
X307900Y325000D02*Y321000D01*
X306900Y324000D02*X307900Y325000D01*
X309600Y321000D02*X311600Y323000D01*
Y324500D02*Y323000D01*
X311100Y325000D02*X311600Y324500D01*
X310100Y325000D02*X311100D01*
X309600Y324500D02*X310100Y325000D01*
X309600Y324500D02*Y323500D01*
X310100Y323000D01*
X311600D01*
X237500Y359700D02*X241000D01*
X237500D02*X237000Y359200D01*
Y358200D01*
X237500Y357700D01*
X241000D01*
X239000Y356500D02*X241000Y354500D01*
X239000Y356500D02*Y354000D01*
X237000Y354500D02*X241000D01*
X237500Y352800D02*X237000Y352300D01*
X237500Y352800D02*X240500D01*
X241000Y352300D01*
Y351300D01*
X240500Y350800D01*
X237500D02*X240500D01*
X237000Y351300D02*X237500Y350800D01*
X237000Y352300D02*Y351300D01*
X238000Y352800D02*X240000Y350800D01*
X239000Y349600D02*X241000Y347600D01*
X239000Y349600D02*Y347100D01*
X237000Y347600D02*X241000D01*
X299500Y215000D02*X301500D01*
X302000Y214500D01*
Y213500D01*
X301500Y213000D02*X302000Y213500D01*
X300000Y213000D02*X301500D01*
X300000Y215000D02*Y211000D01*
Y213000D02*X302000Y211000D01*
X303200Y213000D02*X305200Y215000D01*
X303200Y213000D02*X305700D01*
X305200Y215000D02*Y211000D01*
X306900Y211500D02*X307400Y211000D01*
X306900Y214500D02*Y211500D01*
Y214500D02*X307400Y215000D01*
X308400D01*
X308900Y214500D01*
Y211500D01*
X308400Y211000D02*X308900Y211500D01*
X307400Y211000D02*X308400D01*
X306900Y212000D02*X308900Y214000D01*
X310100Y211000D02*X312600Y213500D01*
Y215000D02*Y213500D01*
X310100Y215000D02*X312600D01*
X299500Y205000D02*X301500D01*
X302000Y204500D01*
Y203500D01*
X301500Y203000D02*X302000Y203500D01*
X300000Y203000D02*X301500D01*
X300000Y205000D02*Y201000D01*
Y203000D02*X302000Y201000D01*
X303200Y203000D02*X305200Y205000D01*
X303200Y203000D02*X305700D01*
X305200Y205000D02*Y201000D01*
X306900Y201500D02*X307400Y201000D01*
X306900Y204500D02*Y201500D01*
Y204500D02*X307400Y205000D01*
X308400D01*
X308900Y204500D01*
Y201500D01*
X308400Y201000D02*X308900Y201500D01*
X307400Y201000D02*X308400D01*
X306900Y202000D02*X308900Y204000D01*
X310100Y201500D02*X310600Y201000D01*
X310100Y202500D02*Y201500D01*
Y202500D02*X310600Y203000D01*
X311600D01*
X312100Y202500D01*
Y201500D01*
X311600Y201000D02*X312100Y201500D01*
X310600Y201000D02*X311600D01*
X310100Y203500D02*X310600Y203000D01*
X310100Y204500D02*Y203500D01*
Y204500D02*X310600Y205000D01*
X311600D01*
X312100Y204500D01*
Y203500D01*
X311600Y203000D02*X312100Y203500D01*
X299500Y265000D02*X301500D01*
X302000Y264500D01*
Y263500D01*
X301500Y263000D02*X302000Y263500D01*
X300000Y263000D02*X301500D01*
X300000Y265000D02*Y261000D01*
Y263000D02*X302000Y261000D01*
X303200Y263000D02*X305200Y265000D01*
X303200Y263000D02*X305700D01*
X305200Y265000D02*Y261000D01*
X307400D02*X308400D01*
X307900Y265000D02*Y261000D01*
X306900Y264000D02*X307900Y265000D01*
X309600Y264500D02*X310100Y265000D01*
X311100D01*
X311600Y264500D01*
Y261500D01*
X311100Y261000D02*X311600Y261500D01*
X310100Y261000D02*X311100D01*
X309600Y261500D02*X310100Y261000D01*
Y263000D02*X311600D01*
X322800Y274200D02*X324300D01*
Y270700D01*
X323800Y270200D02*X324300Y270700D01*
X323300Y270200D02*X323800D01*
X322800Y270700D02*X323300Y270200D01*
X325500Y272200D02*X327500Y274200D01*
X325500Y272200D02*X328000D01*
X327500Y274200D02*Y270200D01*
X329200Y270700D02*X329700Y270200D01*
X329200Y273700D02*Y270700D01*
Y273700D02*X329700Y274200D01*
X330700D01*
X331200Y273700D01*
Y270700D01*
X330700Y270200D02*X331200Y270700D01*
X329700Y270200D02*X330700D01*
X329200Y271200D02*X331200Y273200D01*
X332900Y270200D02*X333900D01*
X333400Y274200D02*Y270200D01*
X332400Y273200D02*X333400Y274200D01*
X289900Y277551D02*Y276051D01*
X290400Y278051D02*X289900Y277551D01*
X290400Y278051D02*X293400D01*
X293900Y277551D01*
Y276051D01*
X291900Y274851D02*X293900Y272851D01*
X291900Y274851D02*Y272351D01*
X289900Y272851D02*X293900D01*
X293400Y271151D02*X293900Y270651D01*
Y269151D01*
X293400Y268651D01*
X292400D02*X293400D01*
X289900Y271151D02*X292400Y268651D01*
X289900Y271151D02*Y268651D01*
Y266951D02*Y265951D01*
Y266451D02*X293900D01*
X292900Y267451D02*X293900Y266451D01*
X323321Y294399D02*Y292899D01*
X323821Y294899D02*X323321Y294399D01*
X323821Y294899D02*X326821D01*
X327321Y294399D01*
Y292899D01*
X325321Y291699D02*X327321Y289699D01*
X325321Y291699D02*Y289199D01*
X323321Y289699D02*X327321D01*
X326821Y287999D02*X327321Y287499D01*
Y285999D01*
X326821Y285499D01*
X325821D02*X326821D01*
X323321Y287999D02*X325821Y285499D01*
X323321Y287999D02*Y285499D01*
X326821Y284299D02*X327321Y283799D01*
Y282299D01*
X326821Y281799D01*
X325821D02*X326821D01*
X323321Y284299D02*X325821Y281799D01*
X323321Y284299D02*Y281799D01*
X285300Y296700D02*X287300D01*
X286300D02*Y292700D01*
X288500Y294700D02*X290500Y296700D01*
X288500Y294700D02*X291000D01*
X290500Y296700D02*Y292700D01*
X292200Y293200D02*X292700Y292700D01*
X292200Y296200D02*Y293200D01*
Y296200D02*X292700Y296700D01*
X293700D01*
X294200Y296200D01*
Y293200D01*
X293700Y292700D02*X294200Y293200D01*
X292700Y292700D02*X293700D01*
X292200Y293700D02*X294200Y295700D01*
X295900Y292700D02*X296900D01*
X296400Y296700D02*Y292700D01*
X295400Y295700D02*X296400Y296700D01*
X299500Y315000D02*X301500D01*
X302000Y314500D01*
Y313500D01*
X301500Y313000D02*X302000Y313500D01*
X300000Y313000D02*X301500D01*
X300000Y315000D02*Y311000D01*
Y313000D02*X302000Y311000D01*
X303200Y313000D02*X305200Y315000D01*
X303200Y313000D02*X305700D01*
X305200Y315000D02*Y311000D01*
X306900Y314500D02*X307400Y315000D01*
X308900D01*
X309400Y314500D01*
Y313500D01*
X306900Y311000D02*X309400Y313500D01*
X306900Y311000D02*X309400D01*
X310600Y311500D02*X311100Y311000D01*
X310600Y314500D02*Y311500D01*
Y314500D02*X311100Y315000D01*
X312100D01*
X312600Y314500D01*
Y311500D01*
X312100Y311000D02*X312600Y311500D01*
X311100Y311000D02*X312100D01*
X310600Y312000D02*X312600Y314000D01*
X63900Y368600D02*X65400D01*
Y365100D01*
X64900Y364600D02*X65400Y365100D01*
X64400Y364600D02*X64900D01*
X63900Y365100D02*X64400Y364600D01*
X66600Y368100D02*X67100Y368600D01*
X68600D01*
X69100Y368100D01*
Y367100D01*
X66600Y364600D02*X69100Y367100D01*
X66600Y364600D02*X69100D01*
X70300Y365100D02*X70800Y364600D01*
X70300Y368100D02*Y365100D01*
Y368100D02*X70800Y368600D01*
X71800D01*
X72300Y368100D01*
Y365100D01*
X71800Y364600D02*X72300Y365100D01*
X70800Y364600D02*X71800D01*
X70300Y365600D02*X72300Y367600D01*
X73500Y364600D02*X75500Y366600D01*
Y368100D02*Y366600D01*
X75000Y368600D02*X75500Y368100D01*
X74000Y368600D02*X75000D01*
X73500Y368100D02*X74000Y368600D01*
X73500Y368100D02*Y367100D01*
X74000Y366600D01*
X75500D01*
X183000Y398500D02*X184500D01*
Y395000D01*
X184000Y394500D02*X184500Y395000D01*
X183500Y394500D02*X184000D01*
X183000Y395000D02*X183500Y394500D01*
X185700Y398000D02*X186200Y398500D01*
X187700D01*
X188200Y398000D01*
Y397000D01*
X185700Y394500D02*X188200Y397000D01*
X185700Y394500D02*X188200D01*
X189400Y395000D02*X189900Y394500D01*
X189400Y398000D02*Y395000D01*
Y398000D02*X189900Y398500D01*
X190900D01*
X191400Y398000D01*
Y395000D01*
X190900Y394500D02*X191400Y395000D01*
X189900Y394500D02*X190900D01*
X189400Y395500D02*X191400Y397500D01*
X192600Y396500D02*X194600Y398500D01*
X192600Y396500D02*X195100D01*
X194600Y398500D02*Y394500D01*
X3400Y371600D02*Y367600D01*
X5900Y371600D02*Y367600D01*
X3400Y369600D02*X5900D01*
X7100Y371100D02*X7600Y371600D01*
X9100D01*
X9600Y371100D01*
Y370100D01*
X7100Y367600D02*X9600Y370100D01*
X7100Y367600D02*X9600D01*
X10800Y368100D02*X11300Y367600D01*
X10800Y371100D02*Y368100D01*
Y371100D02*X11300Y371600D01*
X12300D01*
X12800Y371100D01*
Y368100D01*
X12300Y367600D02*X12800Y368100D01*
X11300Y367600D02*X12300D01*
X10800Y368600D02*X12800Y370600D01*
X14000Y371100D02*X14500Y371600D01*
X15500D01*
X16000Y371100D01*
Y368100D01*
X15500Y367600D02*X16000Y368100D01*
X14500Y367600D02*X15500D01*
X14000Y368100D02*X14500Y367600D01*
Y369600D02*X16000D01*
X118000Y398500D02*X119500D01*
Y395000D01*
X119000Y394500D02*X119500Y395000D01*
X118500Y394500D02*X119000D01*
X118000Y395000D02*X118500Y394500D01*
X120700Y398000D02*X121200Y398500D01*
X122700D01*
X123200Y398000D01*
Y397000D01*
X120700Y394500D02*X123200Y397000D01*
X120700Y394500D02*X123200D01*
X124400Y395000D02*X124900Y394500D01*
X124400Y398000D02*Y395000D01*
Y398000D02*X124900Y398500D01*
X125900D01*
X126400Y398000D01*
Y395000D01*
X125900Y394500D02*X126400Y395000D01*
X124900Y394500D02*X125900D01*
X124400Y395500D02*X126400Y397500D01*
X127600Y398000D02*X128100Y398500D01*
X129100D01*
X129600Y398000D01*
Y395000D01*
X129100Y394500D02*X129600Y395000D01*
X128100Y394500D02*X129100D01*
X127600Y395000D02*X128100Y394500D01*
Y396500D02*X129600D01*
X54600Y341300D02*X56600D01*
X57100Y340800D01*
Y339800D01*
X56600Y339300D02*X57100Y339800D01*
X55100Y339300D02*X56600D01*
X55100Y341300D02*Y337300D01*
Y339300D02*X57100Y337300D01*
X58300Y340800D02*X58800Y341300D01*
X59800D01*
X60300Y340800D01*
Y337800D01*
X59800Y337300D02*X60300Y337800D01*
X58800Y337300D02*X59800D01*
X58300Y337800D02*X58800Y337300D01*
Y339300D02*X60300D01*
X61500Y337800D02*X62000Y337300D01*
X61500Y340800D02*Y337800D01*
Y340800D02*X62000Y341300D01*
X63000D01*
X63500Y340800D01*
Y337800D01*
X63000Y337300D02*X63500Y337800D01*
X62000Y337300D02*X63000D01*
X61500Y338300D02*X63500Y340300D01*
X64700Y340800D02*X65200Y341300D01*
X66200D01*
X66700Y340800D01*
Y337800D01*
X66200Y337300D02*X66700Y337800D01*
X65200Y337300D02*X66200D01*
X64700Y337800D02*X65200Y337300D01*
Y339300D02*X66700D01*
X37200Y323800D02*Y319800D01*
X39200D01*
X40400Y321800D02*X41900D01*
X40400Y319800D02*X42400D01*
X40400Y323800D02*Y319800D01*
Y323800D02*X42400D01*
X44100D02*Y319800D01*
X45600Y323800D02*X46100Y323300D01*
Y320300D01*
X45600Y319800D02*X46100Y320300D01*
X43600Y319800D02*X45600D01*
X43600Y323800D02*X45600D01*
X47300Y323300D02*X47800Y323800D01*
X48800D01*
X49300Y323300D01*
Y320300D01*
X48800Y319800D02*X49300Y320300D01*
X47800Y319800D02*X48800D01*
X47300Y320300D02*X47800Y319800D01*
Y321800D02*X49300D01*
X50500Y320300D02*X51000Y319800D01*
X50500Y323300D02*Y320300D01*
Y323300D02*X51000Y323800D01*
X52000D01*
X52500Y323300D01*
Y320300D01*
X52000Y319800D02*X52500Y320300D01*
X51000Y319800D02*X52000D01*
X50500Y320800D02*X52500Y322800D01*
X53700Y323300D02*X54200Y323800D01*
X55700D01*
X56200Y323300D01*
Y322300D01*
X53700Y319800D02*X56200Y322300D01*
X53700Y319800D02*X56200D01*
X37200Y318200D02*Y314200D01*
X39200D01*
X40400Y316200D02*X41900D01*
X40400Y314200D02*X42400D01*
X40400Y318200D02*Y314200D01*
Y318200D02*X42400D01*
X44100D02*Y314200D01*
X45600Y318200D02*X46100Y317700D01*
Y314700D01*
X45600Y314200D02*X46100Y314700D01*
X43600Y314200D02*X45600D01*
X43600Y318200D02*X45600D01*
X47300Y317700D02*X47800Y318200D01*
X48800D01*
X49300Y317700D01*
Y314700D01*
X48800Y314200D02*X49300Y314700D01*
X47800Y314200D02*X48800D01*
X47300Y314700D02*X47800Y314200D01*
Y316200D02*X49300D01*
X50500Y314700D02*X51000Y314200D01*
X50500Y317700D02*Y314700D01*
Y317700D02*X51000Y318200D01*
X52000D01*
X52500Y317700D01*
Y314700D01*
X52000Y314200D02*X52500Y314700D01*
X51000Y314200D02*X52000D01*
X50500Y315200D02*X52500Y317200D01*
X53700Y317700D02*X54200Y318200D01*
X55200D01*
X55700Y317700D01*
Y314700D01*
X55200Y314200D02*X55700Y314700D01*
X54200Y314200D02*X55200D01*
X53700Y314700D02*X54200Y314200D01*
Y316200D02*X55700D01*
X75000Y338500D02*X76500D01*
X74500Y339000D02*X75000Y338500D01*
X74500Y342000D02*Y339000D01*
Y342000D02*X75000Y342500D01*
X76500D01*
X77700Y342000D02*X78200Y342500D01*
X79700D01*
X80200Y342000D01*
Y341000D01*
X77700Y338500D02*X80200Y341000D01*
X77700Y338500D02*X80200D01*
X81900D02*X82900D01*
X82400Y342500D02*Y338500D01*
X81400Y341500D02*X82400Y342500D01*
X84600Y338500D02*X85600D01*
X85100Y342500D02*Y338500D01*
X84100Y341500D02*X85100Y342500D01*
X29700Y304900D02*Y302900D01*
Y304900D02*X30200Y305400D01*
X31200D01*
X31700Y304900D02*X31200Y305400D01*
X31700Y304900D02*Y303400D01*
X29700D02*X33700D01*
X31700D02*X33700Y305400D01*
X30200Y306600D02*X29700Y307100D01*
Y308100D02*Y307100D01*
Y308100D02*X30200Y308600D01*
X33200D01*
X33700Y308100D02*X33200Y308600D01*
X33700Y308100D02*Y307100D01*
X33200Y306600D02*X33700Y307100D01*
X31700Y308600D02*Y307100D01*
X33200Y309800D02*X33700Y310300D01*
X30200Y309800D02*X33200D01*
X30200D02*X29700Y310300D01*
Y311300D02*Y310300D01*
Y311300D02*X30200Y311800D01*
X33200D01*
X33700Y311300D02*X33200Y311800D01*
X33700Y311300D02*Y310300D01*
X32700Y309800D02*X30700Y311800D01*
X33700Y314500D02*Y313500D01*
X29700Y314000D02*X33700D01*
X30700Y313000D02*X29700Y314000D01*
X6401Y284300D02*Y282800D01*
Y284300D02*X9901D01*
X10401Y283800D02*X9901Y284300D01*
X10401Y283800D02*Y283300D01*
X9901Y282800D02*X10401Y283300D01*
X6901Y285500D02*X6401Y286000D01*
Y287500D02*Y286000D01*
Y287500D02*X6901Y288000D01*
X7901D01*
X10401Y285500D02*X7901Y288000D01*
X10401D02*Y285500D01*
X9901Y289200D02*X10401Y289700D01*
X6901Y289200D02*X9901D01*
X6901D02*X6401Y289700D01*
Y290700D02*Y289700D01*
Y290700D02*X6901Y291200D01*
X9901D01*
X10401Y290700D02*X9901Y291200D01*
X10401Y290700D02*Y289700D01*
X9401Y289200D02*X7401Y291200D01*
X6901Y292400D02*X6401Y292900D01*
Y294400D02*Y292900D01*
Y294400D02*X6901Y294900D01*
X7901D01*
X10401Y292400D02*X7901Y294900D01*
X10401D02*Y292400D01*
X4800Y342800D02*X6300D01*
Y339300D01*
X5800Y338800D02*X6300Y339300D01*
X5300Y338800D02*X5800D01*
X4800Y339300D02*X5300Y338800D01*
X7500Y342300D02*X8000Y342800D01*
X9500D01*
X10000Y342300D01*
Y341300D01*
X7500Y338800D02*X10000Y341300D01*
X7500Y338800D02*X10000D01*
X11200Y339300D02*X11700Y338800D01*
X11200Y342300D02*Y339300D01*
Y342300D02*X11700Y342800D01*
X12700D01*
X13200Y342300D01*
Y339300D01*
X12700Y338800D02*X13200Y339300D01*
X11700Y338800D02*X12700D01*
X11200Y339800D02*X13200Y341800D01*
X14400Y338800D02*X16900Y341300D01*
Y342800D02*Y341300D01*
X14400Y342800D02*X16900D01*
X27100Y356800D02*X28600D01*
Y353300D01*
X28100Y352800D02*X28600Y353300D01*
X27600Y352800D02*X28100D01*
X27100Y353300D02*X27600Y352800D01*
X29800Y356300D02*X30300Y356800D01*
X31800D01*
X32300Y356300D01*
Y355300D01*
X29800Y352800D02*X32300Y355300D01*
X29800Y352800D02*X32300D01*
X33500Y353300D02*X34000Y352800D01*
X33500Y356300D02*Y353300D01*
Y356300D02*X34000Y356800D01*
X35000D01*
X35500Y356300D01*
Y353300D01*
X35000Y352800D02*X35500Y353300D01*
X34000Y352800D02*X35000D01*
X33500Y353800D02*X35500Y355800D01*
X36700Y353300D02*X37200Y352800D01*
X36700Y354300D02*Y353300D01*
Y354300D02*X37200Y354800D01*
X38200D01*
X38700Y354300D01*
Y353300D01*
X38200Y352800D02*X38700Y353300D01*
X37200Y352800D02*X38200D01*
X36700Y355300D02*X37200Y354800D01*
X36700Y356300D02*Y355300D01*
Y356300D02*X37200Y356800D01*
X38200D01*
X38700Y356300D01*
Y355300D01*
X38200Y354800D02*X38700Y355300D01*
X22300Y304900D02*Y302900D01*
Y304900D02*X22800Y305400D01*
X23800D01*
X24300Y304900D02*X23800Y305400D01*
X24300Y304900D02*Y303400D01*
X22300D02*X26300D01*
X24300D02*X26300Y305400D01*
X22800Y306600D02*X22300Y307100D01*
Y308100D02*Y307100D01*
Y308100D02*X22800Y308600D01*
X25800D01*
X26300Y308100D02*X25800Y308600D01*
X26300Y308100D02*Y307100D01*
X25800Y306600D02*X26300Y307100D01*
X24300Y308600D02*Y307100D01*
X25800Y309800D02*X26300Y310300D01*
X22800Y309800D02*X25800D01*
X22800D02*X22300Y310300D01*
Y311300D02*Y310300D01*
Y311300D02*X22800Y311800D01*
X25800D01*
X26300Y311300D02*X25800Y311800D01*
X26300Y311300D02*Y310300D01*
X25300Y309800D02*X23300Y311800D01*
X22800Y313000D02*X22300Y313500D01*
Y315000D02*Y313500D01*
Y315000D02*X22800Y315500D01*
X23800D01*
X26300Y313000D02*X23800Y315500D01*
X26300D02*Y313000D01*
X85828Y122865D02*Y120865D01*
Y122865D02*X86328Y123365D01*
X87328D01*
X87828Y122865D02*X87328Y123365D01*
X87828Y122865D02*Y121365D01*
X85828D02*X89828D01*
X87828D02*X89828Y123365D01*
X85828Y125065D02*X89828D01*
X85828Y126565D02*Y124565D01*
Y126565D02*X86328Y127065D01*
X87328D01*
X87828Y126565D02*X87328Y127065D01*
X87828Y126565D02*Y125065D01*
X89828Y129765D02*Y128765D01*
X85828Y129265D02*X89828D01*
X86828Y128265D02*X85828Y129265D01*
X89328Y130965D02*X89828Y131465D01*
X86328Y130965D02*X89328D01*
X86328D02*X85828Y131465D01*
Y132465D02*Y131465D01*
Y132465D02*X86328Y132965D01*
X89328D01*
X89828Y132465D02*X89328Y132965D01*
X89828Y132465D02*Y131465D01*
X88828Y130965D02*X86828Y132965D01*
X86328Y134165D02*X85828Y134665D01*
Y135665D02*Y134665D01*
Y135665D02*X86328Y136165D01*
X89328D01*
X89828Y135665D02*X89328Y136165D01*
X89828Y135665D02*Y134665D01*
X89328Y134165D02*X89828Y134665D01*
X87828Y136165D02*Y134665D01*
X73130Y254919D02*X75130D01*
X75630Y254419D01*
Y253419D01*
X75130Y252919D02*X75630Y253419D01*
X73630Y252919D02*X75130D01*
X73630Y254919D02*Y250919D01*
Y252919D02*X75630Y250919D01*
X77330Y254919D02*Y250919D01*
X76830Y254919D02*X78830D01*
X79330Y254419D01*
Y253419D01*
X78830Y252919D02*X79330Y253419D01*
X77330Y252919D02*X78830D01*
X80530Y254419D02*X81030Y254919D01*
X82030D01*
X82530Y254419D01*
Y251419D01*
X82030Y250919D02*X82530Y251419D01*
X81030Y250919D02*X82030D01*
X80530Y251419D02*X81030Y250919D01*
Y252919D02*X82530D01*
X83730Y251419D02*X84230Y250919D01*
X83730Y254419D02*Y251419D01*
Y254419D02*X84230Y254919D01*
X85230D01*
X85730Y254419D01*
Y251419D01*
X85230Y250919D02*X85730Y251419D01*
X84230Y250919D02*X85230D01*
X83730Y251919D02*X85730Y253919D01*
X86930Y254419D02*X87430Y254919D01*
X88930D01*
X89430Y254419D01*
Y253419D01*
X86930Y250919D02*X89430Y253419D01*
X86930Y250919D02*X89430D01*
X133700Y208600D02*Y205100D01*
X134200Y204600D01*
X135200D01*
X135700Y205100D01*
Y208600D02*Y205100D01*
X137400Y204600D02*X138400D01*
X137900Y208600D02*Y204600D01*
X136900Y207600D02*X137900Y208600D01*
X139600Y205100D02*X140100Y204600D01*
X139600Y208100D02*Y205100D01*
Y208100D02*X140100Y208600D01*
X141100D01*
X141600Y208100D01*
Y205100D01*
X141100Y204600D02*X141600Y205100D01*
X140100Y204600D02*X141100D01*
X139600Y205600D02*X141600Y207600D01*
X142800Y208100D02*X143300Y208600D01*
X144800D01*
X145300Y208100D01*
Y207100D01*
X142800Y204600D02*X145300Y207100D01*
X142800Y204600D02*X145300D01*
X119200Y216300D02*X120700D01*
Y212800D01*
X120200Y212300D02*X120700Y212800D01*
X119700Y212300D02*X120200D01*
X119200Y212800D02*X119700Y212300D01*
X121900Y215800D02*X122400Y216300D01*
X123900D01*
X124400Y215800D01*
Y214800D01*
X121900Y212300D02*X124400Y214800D01*
X121900Y212300D02*X124400D01*
X125600Y212800D02*X126100Y212300D01*
X125600Y215800D02*Y212800D01*
Y215800D02*X126100Y216300D01*
X127100D01*
X127600Y215800D01*
Y212800D01*
X127100Y212300D02*X127600Y212800D01*
X126100Y212300D02*X127100D01*
X125600Y213300D02*X127600Y215300D01*
X130300Y216300D02*X130800Y215800D01*
X129300Y216300D02*X130300D01*
X128800Y215800D02*X129300Y216300D01*
X128800Y215800D02*Y212800D01*
X129300Y212300D01*
X130300Y214300D02*X130800Y213800D01*
X128800Y214300D02*X130300D01*
X129300Y212300D02*X130300D01*
X130800Y212800D01*
Y213800D02*Y212800D01*
X65500Y200000D02*Y198000D01*
Y199000D02*X69500D01*
Y202700D02*Y201700D01*
X65500Y202200D02*X69500D01*
X66500Y201200D02*X65500Y202200D01*
X69000Y203900D02*X69500Y204400D01*
X66000Y203900D02*X69000D01*
X66000D02*X65500Y204400D01*
Y205400D02*Y204400D01*
Y205400D02*X66000Y205900D01*
X69000D01*
X69500Y205400D02*X69000Y205900D01*
X69500Y205400D02*Y204400D01*
X68500Y203900D02*X66500Y205900D01*
X69500Y208600D02*Y207600D01*
X65500Y208100D02*X69500D01*
X66500Y207100D02*X65500Y208100D01*
X87593Y212553D02*X89593D01*
X90093Y212053D01*
Y211053D01*
X89593Y210553D02*X90093Y211053D01*
X88093Y210553D02*X89593D01*
X88093Y212553D02*Y208553D01*
Y210553D02*X90093Y208553D01*
X91793Y212553D02*Y208553D01*
X91293Y212553D02*X93293D01*
X93793Y212053D01*
Y211053D01*
X93293Y210553D02*X93793Y211053D01*
X91793Y210553D02*X93293D01*
X95493Y208553D02*X96493D01*
X95993Y212553D02*Y208553D01*
X94993Y211553D02*X95993Y212553D01*
X97693Y209053D02*X98193Y208553D01*
X97693Y212053D02*Y209053D01*
Y212053D02*X98193Y212553D01*
X99193D01*
X99693Y212053D01*
Y209053D01*
X99193Y208553D02*X99693Y209053D01*
X98193Y208553D02*X99193D01*
X97693Y209553D02*X99693Y211553D01*
X101393Y208553D02*X102393D01*
X101893Y212553D02*Y208553D01*
X100893Y211553D02*X101893Y212553D01*
X76401Y195529D02*Y194029D01*
X75901Y193529D02*X76401Y194029D01*
X72901Y193529D02*X75901D01*
X72901D02*X72401Y194029D01*
Y195529D02*Y194029D01*
X76401Y198229D02*Y197229D01*
X72401Y197729D02*X76401D01*
X73401Y196729D02*X72401Y197729D01*
X75901Y199429D02*X76401Y199929D01*
X72901Y199429D02*X75901D01*
X72901D02*X72401Y199929D01*
Y200929D02*Y199929D01*
Y200929D02*X72901Y201429D01*
X75901D01*
X76401Y200929D02*X75901Y201429D01*
X76401Y200929D02*Y199929D01*
X75401Y199429D02*X73401Y201429D01*
X76401Y204129D02*Y203129D01*
X72401Y203629D02*X76401D01*
X73401Y202629D02*X72401Y203629D01*
X121338Y205189D02*Y203689D01*
X117838D02*X121338D01*
X117338Y204189D02*X117838Y203689D01*
X117338Y204689D02*Y204189D01*
X117838Y205189D02*X117338Y204689D01*
Y201989D02*Y200989D01*
Y201489D02*X121338D01*
X120338Y202489D02*X121338Y201489D01*
X117838Y199789D02*X117338Y199289D01*
X117838Y199789D02*X120838D01*
X121338Y199289D01*
Y198289D01*
X120838Y197789D01*
X117838D02*X120838D01*
X117338Y198289D02*X117838Y197789D01*
X117338Y199289D02*Y198289D01*
X118338Y199789D02*X120338Y197789D01*
X119338Y196589D02*X121338Y194589D01*
X119338Y196589D02*Y194089D01*
X117338Y194589D02*X121338D01*
X68100Y128600D02*Y127100D01*
Y128600D02*X71600D01*
X72100Y128100D02*X71600Y128600D01*
X72100Y128100D02*Y127600D01*
X71600Y127100D02*X72100Y127600D01*
Y131300D02*Y130300D01*
X68100Y130800D02*X72100D01*
X69100Y129800D02*X68100Y130800D01*
X71600Y132500D02*X72100Y133000D01*
X68600Y132500D02*X71600D01*
X68600D02*X68100Y133000D01*
Y134000D02*Y133000D01*
Y134000D02*X68600Y134500D01*
X71600D01*
X72100Y134000D02*X71600Y134500D01*
X72100Y134000D02*Y133000D01*
X71100Y132500D02*X69100Y134500D01*
X68100Y137700D02*Y135700D01*
X70100D01*
X69600Y136200D01*
Y137200D02*Y136200D01*
Y137200D02*X70100Y137700D01*
X71600D01*
X72100Y137200D02*X71600Y137700D01*
X72100Y137200D02*Y136200D01*
X71600Y135700D02*X72100Y136200D01*
X70200Y177200D02*X73700D01*
X74200Y177700D01*
Y178700D02*Y177700D01*
Y178700D02*X73700Y179200D01*
X70200D02*X73700D01*
X74200Y181900D02*Y180900D01*
X70200Y181400D02*X74200D01*
X71200Y180400D02*X70200Y181400D01*
X73700Y183100D02*X74200Y183600D01*
X70700Y183100D02*X73700D01*
X70700D02*X70200Y183600D01*
Y184600D02*Y183600D01*
Y184600D02*X70700Y185100D01*
X73700D01*
X74200Y184600D02*X73700Y185100D01*
X74200Y184600D02*Y183600D01*
X73200Y183100D02*X71200Y185100D01*
X72200Y186300D02*X70200Y188300D01*
X72200Y188800D02*Y186300D01*
X70200Y188300D02*X74200D01*
X6500Y139500D02*Y138000D01*
Y139500D02*X10000D01*
X10500Y139000D02*X10000Y139500D01*
X10500Y139000D02*Y138500D01*
X10000Y138000D02*X10500Y138500D01*
Y142200D02*Y141200D01*
X6500Y141700D02*X10500D01*
X7500Y140700D02*X6500Y141700D01*
X10000Y143400D02*X10500Y143900D01*
X7000Y143400D02*X10000D01*
X7000D02*X6500Y143900D01*
Y144900D02*Y143900D01*
Y144900D02*X7000Y145400D01*
X10000D01*
X10500Y144900D02*X10000Y145400D01*
X10500Y144900D02*Y143900D01*
X9500Y143400D02*X7500Y145400D01*
X7000Y146600D02*X6500Y147100D01*
Y148600D02*Y147100D01*
Y148600D02*X7000Y149100D01*
X8000D01*
X10500Y146600D02*X8000Y149100D01*
X10500D02*Y146600D01*
X94662Y156111D02*X98162D01*
X98662Y156611D01*
Y157611D02*Y156611D01*
Y157611D02*X98162Y158111D01*
X94662D02*X98162D01*
X98662Y160811D02*Y159811D01*
X94662Y160311D02*X98662D01*
X95662Y159311D02*X94662Y160311D01*
X98162Y162011D02*X98662Y162511D01*
X95162Y162011D02*X98162D01*
X95162D02*X94662Y162511D01*
Y163511D02*Y162511D01*
Y163511D02*X95162Y164011D01*
X98162D01*
X98662Y163511D02*X98162Y164011D01*
X98662Y163511D02*Y162511D01*
X97662Y162011D02*X95662Y164011D01*
X98662Y166711D02*Y165711D01*
X94662Y166211D02*X98662D01*
X95662Y165211D02*X94662Y166211D01*
X36500Y139500D02*Y138000D01*
Y139500D02*X40000D01*
X40500Y139000D02*X40000Y139500D01*
X40500Y139000D02*Y138500D01*
X40000Y138000D02*X40500Y138500D01*
Y142200D02*Y141200D01*
X36500Y141700D02*X40500D01*
X37500Y140700D02*X36500Y141700D01*
X40000Y143400D02*X40500Y143900D01*
X37000Y143400D02*X40000D01*
X37000D02*X36500Y143900D01*
Y144900D02*Y143900D01*
Y144900D02*X37000Y145400D01*
X40000D01*
X40500Y144900D02*X40000Y145400D01*
X40500Y144900D02*Y143900D01*
X39500Y143400D02*X37500Y145400D01*
X37000Y146600D02*X36500Y147100D01*
Y148100D02*Y147100D01*
Y148100D02*X37000Y148600D01*
X40000D01*
X40500Y148100D02*X40000Y148600D01*
X40500Y148100D02*Y147100D01*
X40000Y146600D02*X40500Y147100D01*
X38500Y148600D02*Y147100D01*
X90063Y140787D02*Y139287D01*
X89563Y138787D02*X90063Y139287D01*
X86563Y138787D02*X89563D01*
X86563D02*X86063Y139287D01*
Y140787D02*Y139287D01*
X90063Y143487D02*Y142487D01*
X86063Y142987D02*X90063D01*
X87063Y141987D02*X86063Y142987D01*
X89563Y144687D02*X90063Y145187D01*
X86563Y144687D02*X89563D01*
X86563D02*X86063Y145187D01*
Y146187D02*Y145187D01*
Y146187D02*X86563Y146687D01*
X89563D01*
X90063Y146187D02*X89563Y146687D01*
X90063Y146187D02*Y145187D01*
X89063Y144687D02*X87063Y146687D01*
X86563Y147887D02*X86063Y148387D01*
Y149887D02*Y148387D01*
Y149887D02*X86563Y150387D01*
X87563D01*
X90063Y147887D02*X87563Y150387D01*
X90063D02*Y147887D01*
X123779Y176503D02*X125779D01*
X126279Y176003D01*
Y175003D01*
X125779Y174503D02*X126279Y175003D01*
X124279Y174503D02*X125779D01*
X124279Y176503D02*Y172503D01*
Y174503D02*X126279Y172503D01*
X127979D02*X128979D01*
X128479Y176503D02*Y172503D01*
X127479Y175503D02*X128479Y176503D01*
X130179Y173003D02*X130679Y172503D01*
X130179Y176003D02*Y173003D01*
Y176003D02*X130679Y176503D01*
X131679D01*
X132179Y176003D01*
Y173003D01*
X131679Y172503D02*X132179Y173003D01*
X130679Y172503D02*X131679D01*
X130179Y173503D02*X132179Y175503D01*
X133379Y176003D02*X133879Y176503D01*
X135379D01*
X135879Y176003D01*
Y175003D01*
X133379Y172503D02*X135879Y175003D01*
X133379Y172503D02*X135879D01*
X205500Y56500D02*X207500D01*
X208000Y56000D01*
Y55000D01*
X207500Y54500D02*X208000Y55000D01*
X206000Y54500D02*X207500D01*
X206000Y56500D02*Y52500D01*
Y54500D02*X208000Y52500D01*
X209200Y56000D02*X209700Y56500D01*
X211200D01*
X211700Y56000D01*
Y55000D01*
X209200Y52500D02*X211700Y55000D01*
X209200Y52500D02*X211700D01*
X212900Y53000D02*X213400Y52500D01*
X212900Y56000D02*Y53000D01*
Y56000D02*X213400Y56500D01*
X214400D01*
X214900Y56000D01*
Y53000D01*
X214400Y52500D02*X214900Y53000D01*
X213400Y52500D02*X214400D01*
X212900Y53500D02*X214900Y55500D01*
X216600Y52500D02*X217600D01*
X217100Y56500D02*Y52500D01*
X216100Y55500D02*X217100Y56500D01*
X205500Y62000D02*X207500D01*
X208000Y61500D01*
Y60500D01*
X207500Y60000D02*X208000Y60500D01*
X206000Y60000D02*X207500D01*
X206000Y62000D02*Y58000D01*
Y60000D02*X208000Y58000D01*
X209200Y61500D02*X209700Y62000D01*
X211200D01*
X211700Y61500D01*
Y60500D01*
X209200Y58000D02*X211700Y60500D01*
X209200Y58000D02*X211700D01*
X212900Y58500D02*X213400Y58000D01*
X212900Y61500D02*Y58500D01*
Y61500D02*X213400Y62000D01*
X214400D01*
X214900Y61500D01*
Y58500D01*
X214400Y58000D02*X214900Y58500D01*
X213400Y58000D02*X214400D01*
X212900Y59000D02*X214900Y61000D01*
X216100Y61500D02*X216600Y62000D01*
X218100D01*
X218600Y61500D01*
Y60500D01*
X216100Y58000D02*X218600Y60500D01*
X216100Y58000D02*X218600D01*
X188700Y47400D02*Y45400D01*
Y47400D02*X189200Y47900D01*
X190200D01*
X190700Y47400D02*X190200Y47900D01*
X190700Y47400D02*Y45900D01*
X188700D02*X192700D01*
X190700D02*X192700Y47900D01*
X190700Y49100D02*X188700Y51100D01*
X190700Y51600D02*Y49100D01*
X188700Y51100D02*X192700D01*
X192200Y52800D02*X192700Y53300D01*
X189200Y52800D02*X192200D01*
X189200D02*X188700Y53300D01*
Y54300D02*Y53300D01*
Y54300D02*X189200Y54800D01*
X192200D01*
X192700Y54300D02*X192200Y54800D01*
X192700Y54300D02*Y53300D01*
X191700Y52800D02*X189700Y54800D01*
X188700Y58000D02*Y56000D01*
X190700D01*
X190200Y56500D01*
Y57500D02*Y56500D01*
Y57500D02*X190700Y58000D01*
X192200D01*
X192700Y57500D02*X192200Y58000D01*
X192700Y57500D02*Y56500D01*
X192200Y56000D02*X192700Y56500D01*
X189500Y116500D02*X191500D01*
X192000Y116000D01*
Y115000D01*
X191500Y114500D02*X192000Y115000D01*
X190000Y114500D02*X191500D01*
X190000Y116500D02*Y112500D01*
Y114500D02*X192000Y112500D01*
X193200Y116000D02*X193700Y116500D01*
X195200D01*
X195700Y116000D01*
Y115000D01*
X193200Y112500D02*X195700Y115000D01*
X193200Y112500D02*X195700D01*
X196900Y113000D02*X197400Y112500D01*
X196900Y116000D02*Y113000D01*
Y116000D02*X197400Y116500D01*
X198400D01*
X198900Y116000D01*
Y113000D01*
X198400Y112500D02*X198900Y113000D01*
X197400Y112500D02*X198400D01*
X196900Y113500D02*X198900Y115500D01*
X200100Y114500D02*X202100Y116500D01*
X200100Y114500D02*X202600D01*
X202100Y116500D02*Y112500D01*
X168000Y89000D02*Y87500D01*
X167500Y87000D02*X168000Y87500D01*
X164500Y87000D02*X167500D01*
X164500D02*X164000Y87500D01*
Y89000D02*Y87500D01*
X164500Y90200D02*X164000Y90700D01*
Y92200D02*Y90700D01*
Y92200D02*X164500Y92700D01*
X165500D01*
X168000Y90200D02*X165500Y92700D01*
X168000D02*Y90200D01*
X164500Y93900D02*X164000Y94400D01*
Y95900D02*Y94400D01*
Y95900D02*X164500Y96400D01*
X165500D01*
X168000Y93900D02*X165500Y96400D01*
X168000D02*Y93900D01*
X164000Y99100D02*X164500Y99600D01*
X164000Y99100D02*Y98100D01*
X164500Y97600D02*X164000Y98100D01*
X164500Y97600D02*X167500D01*
X168000Y98100D01*
X166000Y99100D02*X166500Y99600D01*
X166000Y99100D02*Y97600D01*
X168000Y99100D02*Y98100D01*
Y99100D02*X167500Y99600D01*
X166500D02*X167500D01*
X188500Y92000D02*Y90000D01*
Y92000D02*X189000Y92500D01*
X190000D01*
X190500Y92000D02*X190000Y92500D01*
X190500Y92000D02*Y90500D01*
X188500D02*X192500D01*
X190500D02*X192500Y92500D01*
X189000Y93700D02*X188500Y94200D01*
Y95700D02*Y94200D01*
Y95700D02*X189000Y96200D01*
X190000D01*
X192500Y93700D02*X190000Y96200D01*
X192500D02*Y93700D01*
X192000Y97400D02*X192500Y97900D01*
X189000Y97400D02*X192000D01*
X189000D02*X188500Y97900D01*
Y98900D02*Y97900D01*
Y98900D02*X189000Y99400D01*
X192000D01*
X192500Y98900D02*X192000Y99400D01*
X192500Y98900D02*Y97900D01*
X191500Y97400D02*X189500Y99400D01*
X192000Y100600D02*X192500Y101100D01*
X191000Y100600D02*X192000D01*
X191000D02*X190500Y101100D01*
Y102100D02*Y101100D01*
Y102100D02*X191000Y102600D01*
X192000D01*
X192500Y102100D02*X192000Y102600D01*
X192500Y102100D02*Y101100D01*
X190000Y100600D02*X190500Y101100D01*
X189000Y100600D02*X190000D01*
X189000D02*X188500Y101100D01*
Y102100D02*Y101100D01*
Y102100D02*X189000Y102600D01*
X190000D01*
X190500Y102100D02*X190000Y102600D01*
X252637Y182911D02*Y181411D01*
X253137Y183411D02*X252637Y182911D01*
X253137Y183411D02*X256137D01*
X256637Y182911D01*
Y181411D01*
X254637Y180211D02*X256637Y178211D01*
X254637Y180211D02*Y177711D01*
X252637Y178211D02*X256637D01*
X253137Y176511D02*X252637Y176011D01*
X253137Y176511D02*X256137D01*
X256637Y176011D01*
Y175011D01*
X256137Y174511D01*
X253137D02*X256137D01*
X252637Y175011D02*X253137Y174511D01*
X252637Y176011D02*Y175011D01*
X253637Y176511D02*X255637Y174511D01*
X252637Y173311D02*X254637Y171311D01*
X256137D01*
X256637Y171811D02*X256137Y171311D01*
X256637Y172811D02*Y171811D01*
X256137Y173311D02*X256637Y172811D01*
X255137Y173311D02*X256137D01*
X255137D02*X254637Y172811D01*
Y171311D01*
X190000Y86000D02*Y82500D01*
X190500Y82000D01*
X191500D01*
X192000Y82500D01*
Y86000D02*Y82500D01*
X193200Y85500D02*X193700Y86000D01*
X195200D01*
X195700Y85500D01*
Y84500D01*
X193200Y82000D02*X195700Y84500D01*
X193200Y82000D02*X195700D01*
X196900Y82500D02*X197400Y82000D01*
X196900Y85500D02*Y82500D01*
Y85500D02*X197400Y86000D01*
X198400D01*
X198900Y85500D01*
Y82500D01*
X198400Y82000D02*X198900Y82500D01*
X197400Y82000D02*X198400D01*
X196900Y83000D02*X198900Y85000D01*
X200600Y82000D02*X201600D01*
X201100Y86000D02*Y82000D01*
X200100Y85000D02*X201100Y86000D01*
X65846Y57303D02*Y55803D01*
Y57303D02*X69346D01*
X69846Y56803D02*X69346Y57303D01*
X69846Y56803D02*Y56303D01*
X69346Y55803D02*X69846Y56303D01*
Y60003D02*Y59003D01*
X65846Y59503D02*X69846D01*
X66846Y58503D02*X65846Y59503D01*
X69346Y61203D02*X69846Y61703D01*
X66346Y61203D02*X69346D01*
X66346D02*X65846Y61703D01*
Y62703D02*Y61703D01*
Y62703D02*X66346Y63203D01*
X69346D01*
X69846Y62703D02*X69346Y63203D01*
X69846Y62703D02*Y61703D01*
X68846Y61203D02*X66846Y63203D01*
X65846Y65903D02*X66346Y66403D01*
X65846Y65903D02*Y64903D01*
X66346Y64403D02*X65846Y64903D01*
X66346Y64403D02*X69346D01*
X69846Y64903D01*
X67846Y65903D02*X68346Y66403D01*
X67846Y65903D02*Y64403D01*
X69846Y65903D02*Y64903D01*
Y65903D02*X69346Y66403D01*
X68346D02*X69346D01*
X88800Y47500D02*Y45500D01*
Y47500D02*X89300Y48000D01*
X90300D01*
X90800Y47500D02*X90300Y48000D01*
X90800Y47500D02*Y46000D01*
X88800D02*X92800D01*
X90800D02*X92800Y48000D01*
X90800Y49200D02*X88800Y51200D01*
X90800Y51700D02*Y49200D01*
X88800Y51200D02*X92800D01*
X92300Y52900D02*X92800Y53400D01*
X89300Y52900D02*X92300D01*
X89300D02*X88800Y53400D01*
Y54400D02*Y53400D01*
Y54400D02*X89300Y54900D01*
X92300D01*
X92800Y54400D02*X92300Y54900D01*
X92800Y54400D02*Y53400D01*
X91800Y52900D02*X89800Y54900D01*
X90800Y56100D02*X88800Y58100D01*
X90800Y58600D02*Y56100D01*
X88800Y58100D02*X92800D01*
X67600Y75100D02*X69600D01*
X70100Y74600D01*
Y73600D01*
X69600Y73100D02*X70100Y73600D01*
X68100Y73100D02*X69600D01*
X68100Y75100D02*Y71100D01*
Y73100D02*X70100Y71100D01*
X71800D02*X72800D01*
X72300Y75100D02*Y71100D01*
X71300Y74100D02*X72300Y75100D01*
X74000Y71600D02*X74500Y71100D01*
X74000Y74600D02*Y71600D01*
Y74600D02*X74500Y75100D01*
X75500D01*
X76000Y74600D01*
Y71600D01*
X75500Y71100D02*X76000Y71600D01*
X74500Y71100D02*X75500D01*
X74000Y72100D02*X76000Y74100D01*
X77200Y71600D02*X77700Y71100D01*
X77200Y72600D02*Y71600D01*
Y72600D02*X77700Y73100D01*
X78700D01*
X79200Y72600D01*
Y71600D01*
X78700Y71100D02*X79200Y71600D01*
X77700Y71100D02*X78700D01*
X77200Y73600D02*X77700Y73100D01*
X77200Y74600D02*Y73600D01*
Y74600D02*X77700Y75100D01*
X78700D01*
X79200Y74600D01*
Y73600D01*
X78700Y73100D02*X79200Y73600D01*
X74600Y64700D02*X76600D01*
X77100Y64200D01*
Y63200D01*
X76600Y62700D02*X77100Y63200D01*
X75100Y62700D02*X76600D01*
X75100Y64700D02*Y60700D01*
Y62700D02*X77100Y60700D01*
X78300Y62700D02*X80300Y64700D01*
X78300Y62700D02*X80800D01*
X80300Y64700D02*Y60700D01*
X82000Y64200D02*X82500Y64700D01*
X84000D01*
X84500Y64200D01*
Y63200D01*
X82000Y60700D02*X84500Y63200D01*
X82000Y60700D02*X84500D01*
X85700Y64200D02*X86200Y64700D01*
X87200D01*
X87700Y64200D01*
Y61200D01*
X87200Y60700D02*X87700Y61200D01*
X86200Y60700D02*X87200D01*
X85700Y61200D02*X86200Y60700D01*
Y62700D02*X87700D01*
X45300Y23300D02*X46800D01*
Y19800D01*
X46300Y19300D02*X46800Y19800D01*
X45800Y19300D02*X46300D01*
X45300Y19800D02*X45800Y19300D01*
X48000Y21300D02*X50000Y23300D01*
X48000Y21300D02*X50500D01*
X50000Y23300D02*Y19300D01*
X51700Y19800D02*X52200Y19300D01*
X51700Y22800D02*Y19800D01*
Y22800D02*X52200Y23300D01*
X53200D01*
X53700Y22800D01*
Y19800D01*
X53200Y19300D02*X53700Y19800D01*
X52200Y19300D02*X53200D01*
X51700Y20300D02*X53700Y22300D01*
X56400Y23300D02*X56900Y22800D01*
X55400Y23300D02*X56400D01*
X54900Y22800D02*X55400Y23300D01*
X54900Y22800D02*Y19800D01*
X55400Y19300D01*
X56400Y21300D02*X56900Y20800D01*
X54900Y21300D02*X56400D01*
X55400Y19300D02*X56400D01*
X56900Y19800D01*
Y20800D02*Y19800D01*
X6100Y34600D02*Y30600D01*
X8600Y34600D02*Y30600D01*
X6100Y32600D02*X8600D01*
X9800Y34100D02*X10300Y34600D01*
X11800D01*
X12300Y34100D01*
Y33100D01*
X9800Y30600D02*X12300Y33100D01*
X9800Y30600D02*X12300D01*
X13500Y31100D02*X14000Y30600D01*
X13500Y34100D02*Y31100D01*
Y34100D02*X14000Y34600D01*
X15000D01*
X15500Y34100D01*
Y31100D01*
X15000Y30600D02*X15500Y31100D01*
X14000Y30600D02*X15000D01*
X13500Y31600D02*X15500Y33600D01*
X17200Y30600D02*X18200D01*
X17700Y34600D02*Y30600D01*
X16700Y33600D02*X17700Y34600D01*
X67100Y113200D02*X69100D01*
X69600Y112700D01*
Y111700D01*
X69100Y111200D02*X69600Y111700D01*
X67600Y111200D02*X69100D01*
X67600Y113200D02*Y109200D01*
Y111200D02*X69600Y109200D01*
X71300D02*X72300D01*
X71800Y113200D02*Y109200D01*
X70800Y112200D02*X71800Y113200D01*
X73500Y109700D02*X74000Y109200D01*
X73500Y112700D02*Y109700D01*
Y112700D02*X74000Y113200D01*
X75000D01*
X75500Y112700D01*
Y109700D01*
X75000Y109200D02*X75500Y109700D01*
X74000Y109200D02*X75000D01*
X73500Y110200D02*X75500Y112200D01*
X76700Y109200D02*X79200Y111700D01*
Y113200D02*Y111700D01*
X76700Y113200D02*X79200D01*
X145000Y105500D02*Y102000D01*
X145500Y101500D01*
X146500D01*
X147000Y102000D01*
Y105500D02*Y102000D01*
X148200Y105000D02*X148700Y105500D01*
X150200D01*
X150700Y105000D01*
Y104000D01*
X148200Y101500D02*X150700Y104000D01*
X148200Y101500D02*X150700D01*
X151900Y102000D02*X152400Y101500D01*
X151900Y105000D02*Y102000D01*
Y105000D02*X152400Y105500D01*
X153400D01*
X153900Y105000D01*
Y102000D01*
X153400Y101500D02*X153900Y102000D01*
X152400Y101500D02*X153400D01*
X151900Y102500D02*X153900Y104500D01*
X155100Y105000D02*X155600Y105500D01*
X156600D01*
X157100Y105000D01*
Y102000D01*
X156600Y101500D02*X157100Y102000D01*
X155600Y101500D02*X156600D01*
X155100Y102000D02*X155600Y101500D01*
Y103500D02*X157100D01*
X93800Y84400D02*X95800D01*
X96300Y83900D01*
Y82900D01*
X95800Y82400D02*X96300Y82900D01*
X94300Y82400D02*X95800D01*
X94300Y84400D02*Y80400D01*
Y82400D02*X96300Y80400D01*
X97500Y82400D02*X99500Y84400D01*
X97500Y82400D02*X100000D01*
X99500Y84400D02*Y80400D01*
X101200Y83900D02*X101700Y84400D01*
X103200D01*
X103700Y83900D01*
Y82900D01*
X101200Y80400D02*X103700Y82900D01*
X101200Y80400D02*X103700D01*
X104900Y83900D02*X105400Y84400D01*
X106900D01*
X107400Y83900D01*
Y82900D01*
X104900Y80400D02*X107400Y82900D01*
X104900Y80400D02*X107400D01*
X91641Y116628D02*X93641D01*
X94141Y116128D01*
Y115128D01*
X93641Y114628D02*X94141Y115128D01*
X92141Y114628D02*X93641D01*
X92141Y116628D02*Y112628D01*
Y114628D02*X94141Y112628D01*
X95841D02*X96841D01*
X96341Y116628D02*Y112628D01*
X95341Y115628D02*X96341Y116628D01*
X98041Y113128D02*X98541Y112628D01*
X98041Y116128D02*Y113128D01*
Y116128D02*X98541Y116628D01*
X99541D01*
X100041Y116128D01*
Y113128D01*
X99541Y112628D02*X100041Y113128D01*
X98541Y112628D02*X99541D01*
X98041Y113628D02*X100041Y115628D01*
X102741Y116628D02*X103241Y116128D01*
X101741Y116628D02*X102741D01*
X101241Y116128D02*X101741Y116628D01*
X101241Y116128D02*Y113128D01*
X101741Y112628D01*
X102741Y114628D02*X103241Y114128D01*
X101241Y114628D02*X102741D01*
X101741Y112628D02*X102741D01*
X103241Y113128D01*
Y114128D02*Y113128D01*
M02*
