G04 start of page 7 for group -4063 idx -4063 *
G04 Title: (unknown), componentmask *
G04 Creator: pcb 20110918 *
G04 CreationDate: Tue 10 Apr 2012 05:20:11 AM GMT UTC *
G04 For: haunma *
G04 Format: Gerber/RS-274X *
G04 PCB-Dimensions: 360000 400000 *
G04 PCB-Coordinate-Origin: lower left *
%MOIN*%
%FSLAX25Y25*%
%LNTOPMASK*%
%ADD178C,0.0220*%
%ADD177R,0.0220X0.0220*%
%ADD176R,0.0335X0.0335*%
%ADD175R,0.0690X0.0690*%
%ADD174R,0.1010X0.1010*%
%ADD173R,0.0140X0.0140*%
%ADD172R,0.0257X0.0257*%
%ADD171R,0.0300X0.0300*%
%ADD170R,0.0190X0.0190*%
%ADD169R,0.0261X0.0261*%
%ADD168R,0.0891X0.0891*%
%ADD167R,0.0532X0.0532*%
%ADD166R,0.0367X0.0367*%
%ADD165R,0.0710X0.0710*%
%ADD164R,0.0560X0.0560*%
%ADD163C,0.0160*%
%ADD162R,0.0473X0.0473*%
%ADD161R,0.0454X0.0454*%
%ADD160R,0.0651X0.0651*%
%ADD159R,0.0375X0.0375*%
%ADD158R,0.0454X0.0454*%
%ADD157R,0.0214X0.0214*%
%ADD156R,0.0572X0.0572*%
%ADD155C,0.1060*%
%ADD154C,0.1020*%
%ADD153C,0.1640*%
%ADD152C,0.0250*%
%ADD151C,0.0680*%
%ADD150C,0.0700*%
%ADD149C,0.2500*%
%ADD148C,0.0660*%
%ADD147C,0.0760*%
%ADD146C,0.0780*%
%ADD145C,0.0001*%
G54D145*G36*
X325500Y197400D02*Y189600D01*
X333300D01*
Y197400D01*
X325500D01*
G37*
G54D146*X319400Y193500D03*
X329400Y203500D03*
X319400D03*
X329400Y213500D03*
X319400D03*
X329400Y223500D03*
Y233500D03*
Y243500D03*
Y253500D03*
Y263500D03*
G54D145*G36*
X325500Y307500D02*Y299700D01*
X333300D01*
Y307500D01*
X325500D01*
G37*
G54D146*X319400Y223500D03*
Y233500D03*
Y243500D03*
Y253500D03*
Y263500D03*
G54D147*X285200Y286600D03*
G54D146*X319400Y303600D03*
X329400Y313600D03*
X319400D03*
Y323600D03*
Y333600D03*
X329400Y323600D03*
Y333600D03*
Y343600D03*
Y353600D03*
Y363600D03*
Y373600D03*
X319400Y343600D03*
Y353600D03*
Y363600D03*
Y373600D03*
G54D148*X233500Y162500D03*
Y132500D03*
G54D145*G36*
X345600Y115900D02*Y108100D01*
X353400D01*
Y115900D01*
X345600D01*
G37*
G54D146*X349500Y122000D03*
Y132000D03*
X339500Y112000D03*
Y122000D03*
Y132000D03*
Y142000D03*
Y152000D03*
Y162000D03*
X349500Y142000D03*
Y152000D03*
Y162000D03*
Y172000D03*
X339500D03*
G54D149*X295000Y115000D03*
G54D150*X17500Y192500D03*
Y202500D03*
Y212500D03*
X27500Y192500D03*
Y202500D03*
Y212500D03*
Y222500D03*
Y232500D03*
Y242500D03*
X17500Y162500D03*
X27500D03*
X17500Y172500D03*
X27500D03*
G54D145*G36*
X14000Y146000D02*Y139000D01*
X21000D01*
Y146000D01*
X14000D01*
G37*
G54D150*X27500Y142500D03*
X17500Y152500D03*
X27500D03*
X17500Y182500D03*
X27500D03*
G54D147*X67500Y192500D03*
G54D150*X27500Y262500D03*
Y272500D03*
X47500D03*
X17500Y222500D03*
Y232500D03*
Y242500D03*
Y252500D03*
X27500D03*
X47500D03*
X57500D03*
X17500Y262500D03*
Y272500D03*
X57500Y222500D03*
X47500Y232500D03*
X57500D03*
X47500Y242500D03*
X57500D03*
X47500Y262500D03*
X57500D03*
Y272500D03*
G54D145*G36*
X183600Y381400D02*Y373600D01*
X191400D01*
Y381400D01*
X183600D01*
G37*
G54D146*X187500Y387500D03*
X197500Y377500D03*
Y387500D03*
X207500D03*
X217500D03*
X227500D03*
X237500D03*
X207500Y377500D03*
X217500D03*
X227500D03*
X237500D03*
G54D149*X295000Y385000D03*
G54D145*G36*
X176200Y354800D02*Y348200D01*
X182800D01*
Y354800D01*
X176200D01*
G37*
G54D148*X189500Y351500D03*
X199500D03*
X209500D03*
X219500D03*
X229500D03*
G54D145*G36*
X108038Y203489D02*Y196889D01*
X114638D01*
Y203489D01*
X108038D01*
G37*
G54D148*X111338Y190189D03*
G54D150*X107900Y233500D03*
Y223500D03*
X97900Y233500D03*
X87900D03*
X97900Y223500D03*
X87900D03*
G54D145*G36*
X76038Y164489D02*Y157889D01*
X82638D01*
Y164489D01*
X76038D01*
G37*
G54D148*X79338Y151189D03*
Y141189D03*
Y131189D03*
G54D145*G36*
X44000Y146000D02*Y139000D01*
X51000D01*
Y146000D01*
X44000D01*
G37*
G54D150*X57500Y142500D03*
X47500Y152500D03*
X57500D03*
X47500Y162500D03*
Y172500D03*
Y182500D03*
X57500Y162500D03*
Y172500D03*
Y182500D03*
Y192500D03*
Y202500D03*
Y212500D03*
X47500Y192500D03*
Y202500D03*
Y212500D03*
Y222500D03*
G54D149*X15000Y385000D03*
G54D145*G36*
X118600Y381400D02*Y373600D01*
X126400D01*
Y381400D01*
X118600D01*
G37*
G54D146*X122500Y387500D03*
X132500Y377500D03*
Y387500D03*
X142500Y377500D03*
Y387500D03*
X152500Y377500D03*
Y387500D03*
X162500Y377500D03*
X172500D03*
X162500Y387500D03*
X172500D03*
G54D150*X77900Y233500D03*
Y223500D03*
G54D145*G36*
X6200Y305800D02*Y299200D01*
X12800D01*
Y305800D01*
X6200D01*
G37*
G54D148*X9500Y312500D03*
Y322500D03*
Y332500D03*
G54D145*G36*
X206000Y315500D02*Y308500D01*
X213000D01*
Y315500D01*
X206000D01*
G37*
G54D150*X219500Y312000D03*
X209500Y302000D03*
X219500D03*
X209500Y292000D03*
X219500D03*
X209500Y282000D03*
X219500D03*
X209500Y262000D03*
X219500D03*
G54D145*G36*
X270600Y272800D02*Y266200D01*
X277200D01*
Y272800D01*
X270600D01*
G37*
G54D148*X266828Y276571D03*
G54D150*X209500Y272000D03*
X219500D03*
G54D148*X173500Y162500D03*
Y132500D03*
G54D151*X42343Y93437D03*
G54D152*X219564Y92500D03*
X223500D03*
Y86596D03*
X219564D03*
X221532Y89548D03*
G54D145*G36*
X124400Y237000D02*Y230000D01*
X131400D01*
Y237000D01*
X124400D01*
G37*
G54D150*X127900Y223500D03*
X117900Y233500D03*
Y223500D03*
G54D151*X52657Y103280D03*
Y93437D03*
Y85563D03*
Y75720D03*
G54D153*X54035Y63634D03*
G54D151*X42343Y103280D03*
G54D153*X31673Y115366D03*
X54035D03*
G54D151*X42343Y85563D03*
Y75720D03*
G54D153*X31673Y63634D03*
G54D154*X76300Y28300D03*
G54D155*X66300Y38300D03*
Y18300D03*
X86300Y38300D03*
Y18300D03*
G54D149*X15000Y15000D03*
G54D156*X131060Y96693D02*Y95907D01*
X138540Y96693D02*Y95907D01*
X158107Y88260D02*X158893D01*
X158107Y95740D02*X158893D01*
G54D157*X146441Y91658D02*Y89256D01*
X151559Y91658D02*Y89256D01*
Y98744D02*Y96342D01*
G54D158*X172500Y100143D02*Y99749D01*
Y93451D02*Y93057D01*
G54D157*X149000Y98744D02*Y96342D01*
X146441Y98744D02*Y96342D01*
G54D159*X162654Y70398D02*X166591D01*
X162654Y74728D02*X166591D01*
X162654Y79059D02*X166591D01*
G54D160*X146428Y215976D02*Y215582D01*
Y225818D02*Y225424D01*
X137372Y225818D02*Y225424D01*
Y215976D02*Y215582D01*
G54D156*X185760Y242893D02*Y242107D01*
X193240Y242893D02*Y242107D01*
X126107Y123760D02*X126893D01*
X126107Y131240D02*X126893D01*
G54D161*X160406Y132500D02*X160602D01*
G54D162*X152236Y125709D02*X156764D01*
G54D156*X135607Y131240D02*X136393D01*
X135607Y123760D02*X136393D01*
G54D162*X152236Y139291D02*X156764D01*
G54D156*X127838Y166475D02*Y165689D01*
X135318Y166475D02*Y165689D01*
G54D148*X173500Y164000D02*Y161000D01*
Y134000D02*Y131000D01*
G54D156*X208260Y111393D02*Y110607D01*
G54D158*X208457Y119500D02*X208851D01*
G54D156*X215740Y111393D02*Y110607D01*
Y101893D02*Y101107D01*
X225107Y108740D02*X225893D01*
X225107Y101260D02*X225893D01*
G54D158*X215149Y119500D02*X215543D01*
G54D156*X208260Y101893D02*Y101107D01*
X198107Y93760D02*X198893D01*
X198107Y101240D02*X198893D01*
G54D163*X214132Y93485D02*X216847D01*
G54D145*G36*
X213332Y94285D02*Y92685D01*
X214932D01*
Y94285D01*
X213332D01*
G37*
G54D163*X214132Y91516D02*X216847D01*
G54D145*G36*
X213332Y92316D02*Y90716D01*
X214932D01*
Y92316D01*
X213332D01*
G37*
G54D156*X225107Y70260D02*X225893D01*
X225107Y77740D02*X225893D01*
X208260Y77893D02*Y77107D01*
X215740Y77893D02*Y77107D01*
G54D163*X214132Y85611D02*X216847D01*
G54D145*G36*
X213332Y86411D02*Y84811D01*
X214932D01*
Y86411D01*
X213332D01*
G37*
G54D164*X181900Y75450D02*X183100D01*
G54D158*X173500Y75851D02*Y75457D01*
Y82543D02*Y82149D01*
G54D163*X214132Y89548D02*X216847D01*
G54D145*G36*
X213332Y90348D02*Y88748D01*
X214932D01*
Y90348D01*
X213332D01*
G37*
G54D163*X214132Y87580D02*X216847D01*
G54D145*G36*
X213332Y88380D02*Y86780D01*
X214932D01*
Y88380D01*
X213332D01*
G37*
G54D163*X226217Y85611D02*X228932D01*
G54D145*G36*
X228132Y86411D02*Y84811D01*
X229732D01*
Y86411D01*
X228132D01*
G37*
G54D163*X226217Y87580D02*X228932D01*
G54D145*G36*
X228132Y88380D02*Y86780D01*
X229732D01*
Y88380D01*
X228132D01*
G37*
G54D163*X226217Y89548D02*X228932D01*
G54D145*G36*
X228132Y90348D02*Y88748D01*
X229732D01*
Y90348D01*
X228132D01*
G37*
G54D163*X226217Y91516D02*X228932D01*
G54D145*G36*
X228132Y92316D02*Y90716D01*
X229732D01*
Y92316D01*
X228132D01*
G37*
G54D163*X226217Y93485D02*X228932D01*
G54D145*G36*
X228132Y94285D02*Y92685D01*
X229732D01*
Y94285D01*
X228132D01*
G37*
G54D165*X221532Y91024D02*Y88072D01*
G54D166*Y99548D02*Y79548D01*
G54D148*X233500Y164000D02*Y161000D01*
Y134000D02*Y131000D01*
G54D156*X270240Y96393D02*Y95607D01*
X262760Y96393D02*Y95607D01*
G54D167*X239212Y95435D02*X240788D01*
X239212Y112365D02*X240788D01*
G54D145*G36*
X234938Y86468D02*Y81144D01*
X240262D01*
Y86468D01*
X234938D01*
G37*
G36*
Y74656D02*Y69332D01*
X240262D01*
Y74656D01*
X234938D01*
G37*
G54D168*X254689Y79638D02*Y69362D01*
G54D158*X248555Y33398D02*X252492D01*
G54D169*X275162Y64500D02*X281460D01*
X275162Y69500D02*X281460D01*
X275162Y74500D02*X281460D01*
X275162Y79500D02*X281460D01*
X275162Y84500D02*X281460D01*
G54D170*X312823Y149189D02*Y144583D01*
X315382Y149189D02*Y144583D01*
X317941Y149189D02*Y144583D01*
X320500Y149189D02*Y144583D01*
X325618Y137417D02*Y132811D01*
X323059Y137417D02*Y132811D01*
Y149189D02*Y144583D01*
X325618Y149189D02*Y144583D01*
X328177Y137417D02*Y132811D01*
Y149189D02*Y144583D01*
Y172417D02*Y167811D01*
X320500Y137417D02*Y132811D01*
X317941Y137417D02*Y132811D01*
X315382Y137417D02*Y132811D01*
X312823Y137417D02*Y132811D01*
X325618Y172417D02*Y167811D01*
G54D156*X347340Y193493D02*Y192707D01*
X339860Y193493D02*Y192707D01*
G54D170*X323059Y172417D02*Y167811D01*
X320500Y172417D02*Y167811D01*
X317941Y172417D02*Y167811D01*
X315382Y172417D02*Y167811D01*
X312823Y172417D02*Y167811D01*
G54D156*X345307Y90340D02*X346093D01*
X345307Y82860D02*X346093D01*
X335307Y90340D02*X336093D01*
X335307Y82860D02*X336093D01*
X326240Y95393D02*Y94607D01*
X304520Y75686D02*Y74900D01*
X312000Y75686D02*Y74900D01*
X321867Y66033D02*X322653D01*
G54D171*X301910Y65993D02*X304310D01*
X301910Y62293D02*X304310D01*
X301910Y58593D02*X304310D01*
X312210D02*X314610D01*
X312210Y65993D02*X314610D01*
G54D156*X321867Y58553D02*X322653D01*
X312000Y49686D02*Y48900D01*
X304520Y49686D02*Y48900D01*
X318760Y95393D02*Y94607D01*
G54D158*X318957Y104000D02*X319351D01*
G54D170*X312823Y114189D02*Y109583D01*
X315382Y114189D02*Y109583D01*
X317941Y114189D02*Y109583D01*
X328177Y114189D02*Y109583D01*
X320500Y114189D02*Y109583D01*
G54D158*X325649Y104000D02*X326043D01*
G54D170*X323059Y114189D02*Y109583D01*
X325618Y114189D02*Y109583D01*
G54D172*X184376Y336345D02*Y334770D01*
X187526Y336345D02*Y334770D01*
X190674Y336345D02*Y334770D01*
X193824Y336345D02*Y334770D01*
Y343430D02*Y341855D01*
X190674Y343430D02*Y341855D01*
X187526Y343430D02*Y341855D01*
X184376Y343430D02*Y341855D01*
G54D156*X208260Y68393D02*Y67607D01*
X215740Y68393D02*Y67607D01*
X182107Y48260D02*X182893D01*
X182107Y55740D02*X182893D01*
G54D158*X183398Y33398D02*X187335D01*
G54D164*X181900Y62550D02*X183100D01*
G54D173*X170421Y258052D02*X173819D01*
X170421Y260020D02*X173819D01*
X170421Y261989D02*X173819D01*
X170421Y263957D02*X173819D01*
X170421Y265926D02*X173819D01*
X170421Y267894D02*X173819D01*
X170421Y269863D02*X173819D01*
G54D156*X183107Y259740D02*X183893D01*
X183107Y252260D02*X183893D01*
G54D173*X170421Y271831D02*X173819D01*
X170421Y273800D02*X173819D01*
X170421Y275768D02*X173819D01*
X170421Y277737D02*X173819D01*
X170421Y279705D02*X173819D01*
X170421Y281674D02*X173819D01*
X170421Y283642D02*X173819D01*
X170421Y285611D02*X173819D01*
G54D159*X162654Y32602D02*X166591D01*
X162654Y36933D02*X166591D01*
X162654Y41264D02*X166591D01*
X162654Y53075D02*X166591D01*
X162654Y57406D02*X166591D01*
X162654Y61736D02*X166591D01*
X162654Y66067D02*X166591D01*
G54D173*X170421Y287579D02*X173819D01*
X170421Y289548D02*X173819D01*
X170421Y291516D02*X173819D01*
X170421Y293485D02*X173819D01*
X170421Y295453D02*X173819D01*
X170421Y297422D02*X173819D01*
X170421Y299390D02*X173819D01*
X170421Y301359D02*X173819D01*
X170421Y303327D02*X173819D01*
X170421Y305296D02*X173819D01*
X170421Y307264D02*X173819D01*
X170421Y309233D02*X173819D01*
X170421Y311201D02*X173819D01*
X170421Y313170D02*X173819D01*
X170421Y315138D02*X173819D01*
X170421Y317107D02*X173819D01*
X170421Y319075D02*X173819D01*
X170421Y321044D02*X173819D01*
X170421Y323012D02*X173819D01*
X170421Y324981D02*X173819D01*
X170421Y326949D02*X173819D01*
G54D156*X271307Y194040D02*X272093D01*
X281207D02*X281993D01*
X281207Y186560D02*X281993D01*
G54D173*X269885Y204664D02*Y201266D01*
X271853Y204664D02*Y201266D01*
X273822Y204664D02*Y201266D01*
X275790Y204664D02*Y201266D01*
X277759Y204664D02*Y201266D01*
X279727Y204664D02*Y201266D01*
X281696Y204664D02*Y201266D01*
X283664Y204664D02*Y201266D01*
X244766Y232289D02*X248164D01*
X244766Y230321D02*X248164D01*
X244766Y228352D02*X248164D01*
X244766Y226384D02*X248164D01*
X244766Y224415D02*X248164D01*
X244766Y222447D02*X248164D01*
X244766Y220478D02*X248164D01*
X244766Y218510D02*X248164D01*
X244766Y216541D02*X248164D01*
X244766Y214573D02*X248164D01*
X244766Y212604D02*X248164D01*
X244766Y210636D02*X248164D01*
X267915Y249534D02*Y246136D01*
X265947Y249534D02*Y246136D01*
X263978Y249534D02*Y246136D01*
X262010Y249534D02*Y246136D01*
X260041Y249534D02*Y246136D01*
X258073Y249534D02*Y246136D01*
X256104Y249534D02*Y246136D01*
X254136Y249534D02*Y246136D01*
X244766Y240163D02*X248164D01*
X244766Y238195D02*X248164D01*
X244766Y236226D02*X248164D01*
X244766Y234258D02*X248164D01*
G54D158*X255176Y310129D02*Y309735D01*
Y303437D02*Y303043D01*
G54D156*X271307Y186560D02*X272093D01*
G54D158*X255100Y195543D02*Y195149D01*
Y188851D02*Y188457D01*
X262893Y195503D02*Y195109D01*
Y188811D02*Y188417D01*
G54D173*X254137Y204664D02*Y201266D01*
X256105Y204664D02*Y201266D01*
X258074Y204664D02*Y201266D01*
X260042Y204664D02*Y201266D01*
X262011Y204664D02*Y201266D01*
X263979Y204664D02*Y201266D01*
X265948Y204664D02*Y201266D01*
X267916Y204664D02*Y201266D01*
X289636Y210637D02*X293034D01*
X289636Y212605D02*X293034D01*
X289636Y214574D02*X293034D01*
X289636Y216542D02*X293034D01*
X289636Y218511D02*X293034D01*
X289636Y220479D02*X293034D01*
X289636Y222448D02*X293034D01*
X289636Y224416D02*X293034D01*
X289636Y226385D02*X293034D01*
X289636Y228353D02*X293034D01*
X289636Y230322D02*X293034D01*
X289636Y232290D02*X293034D01*
X289636Y234259D02*X293034D01*
X289636Y236227D02*X293034D01*
X289636Y238196D02*X293034D01*
X289636Y240164D02*X293034D01*
X138858Y336319D02*Y332921D01*
X136889Y336319D02*Y332921D01*
X134921Y336319D02*Y332921D01*
X132952Y336319D02*Y332921D01*
G54D156*X127207Y353160D02*X127993D01*
G54D173*X130984Y336319D02*Y332921D01*
X129015Y336319D02*Y332921D01*
X127047Y336319D02*Y332921D01*
X125078Y336319D02*Y332921D01*
X123110Y336319D02*Y332921D01*
X121141Y336319D02*Y332921D01*
X119173Y336319D02*Y332921D01*
G54D174*X37750Y394450D02*Y378950D01*
G54D164*X55000Y396700D02*Y376700D01*
G54D174*X72250Y394450D02*Y378950D01*
X77750Y394450D02*Y378950D01*
G54D161*X15206Y353000D02*X15402D01*
G54D158*X24000Y327943D02*Y327549D01*
Y321251D02*Y320857D01*
G54D162*X7036Y359791D02*X11564D01*
X7036Y346209D02*X11564D01*
G54D161*X37206Y367900D02*X37402D01*
G54D162*X29036Y374691D02*X33564D01*
X29036Y361109D02*X33564D01*
G54D173*X164448Y336319D02*Y332921D01*
X162480Y336319D02*Y332921D01*
X160511Y336319D02*Y332921D01*
X158543Y336319D02*Y332921D01*
X156574Y336319D02*Y332921D01*
X154606Y336319D02*Y332921D01*
X152637Y336319D02*Y332921D01*
X150669Y336319D02*Y332921D01*
X148700Y336319D02*Y332921D01*
X146732Y336319D02*Y332921D01*
X144763Y336319D02*Y332921D01*
X142795Y336319D02*Y332921D01*
X140826Y336319D02*Y332921D01*
G54D156*X127207Y360640D02*X127993D01*
G54D164*X95000Y396700D02*Y376700D01*
G54D174*X112250Y394450D02*Y378950D01*
G54D173*X86181Y311200D02*X89579D01*
X117204Y336319D02*Y332921D01*
X115236Y336319D02*Y332921D01*
X113267Y336319D02*Y332921D01*
X111299Y336319D02*Y332921D01*
X109330Y336319D02*Y332921D01*
X107362Y336319D02*Y332921D01*
X105393Y336319D02*Y332921D01*
X103425Y336319D02*Y332921D01*
X101456Y336319D02*Y332921D01*
X99488Y336319D02*Y332921D01*
X97519Y336319D02*Y332921D01*
X95551Y336319D02*Y332921D01*
X158544Y252079D02*Y248681D01*
X160512Y252079D02*Y248681D01*
X162481Y252079D02*Y248681D01*
X148701Y252079D02*Y248681D01*
X150670Y252079D02*Y248681D01*
X152638Y252079D02*Y248681D01*
X154607Y252079D02*Y248681D01*
X156575Y252079D02*Y248681D01*
X164449Y252079D02*Y248681D01*
X86181Y261988D02*X89579D01*
X86181Y260019D02*X89579D01*
X86181Y258051D02*X89579D01*
G54D172*X80070Y247174D02*X81645D01*
X87155D02*X88730D01*
X80070Y244026D02*X81645D01*
X87155D02*X88730D01*
G54D173*X95552Y252079D02*Y248681D01*
X97520Y252079D02*Y248681D01*
X99489Y252079D02*Y248681D01*
X101457Y252079D02*Y248681D01*
X103426Y252079D02*Y248681D01*
X105394Y252079D02*Y248681D01*
X107363Y252079D02*Y248681D01*
X109331Y252079D02*Y248681D01*
X111300Y252079D02*Y248681D01*
X113268Y252079D02*Y248681D01*
X115237Y252079D02*Y248681D01*
X117205Y252079D02*Y248681D01*
X119174Y252079D02*Y248681D01*
X121142Y252079D02*Y248681D01*
X123111Y252079D02*Y248681D01*
X125079Y252079D02*Y248681D01*
X127048Y252079D02*Y248681D01*
X129016Y252079D02*Y248681D01*
X130985Y252079D02*Y248681D01*
X132953Y252079D02*Y248681D01*
X134922Y252079D02*Y248681D01*
X136890Y252079D02*Y248681D01*
X138859Y252079D02*Y248681D01*
X140827Y252079D02*Y248681D01*
X142796Y252079D02*Y248681D01*
X144764Y252079D02*Y248681D01*
X146733Y252079D02*Y248681D01*
G54D156*X65840Y332193D02*Y331407D01*
X58360Y332193D02*Y331407D01*
X48040Y338293D02*Y337507D01*
Y330093D02*Y329307D01*
X40560Y338293D02*Y337507D01*
Y330093D02*Y329307D01*
G54D158*X32000Y327943D02*Y327549D01*
Y321251D02*Y320857D01*
G54D156*X85740Y333393D02*Y332607D01*
X78260Y333393D02*Y332607D01*
G54D173*X86181Y326948D02*X89579D01*
X86181Y324980D02*X89579D01*
X86181Y323011D02*X89579D01*
X86181Y321043D02*X89579D01*
X86181Y319074D02*X89579D01*
X86181Y309232D02*X89579D01*
X86181Y317106D02*X89579D01*
X86181Y315137D02*X89579D01*
X86181Y313169D02*X89579D01*
X86181Y307263D02*X89579D01*
X86181Y305295D02*X89579D01*
X86181Y303326D02*X89579D01*
X86181Y301358D02*X89579D01*
X86181Y299389D02*X89579D01*
X86181Y297421D02*X89579D01*
X86181Y295452D02*X89579D01*
X86181Y293484D02*X89579D01*
X86181Y291515D02*X89579D01*
X86181Y289547D02*X89579D01*
X86181Y287578D02*X89579D01*
X86181Y285610D02*X89579D01*
X86181Y283641D02*X89579D01*
X86181Y281673D02*X89579D01*
X86181Y279704D02*X89579D01*
X86181Y277736D02*X89579D01*
X86181Y275767D02*X89579D01*
X86181Y273799D02*X89579D01*
X86181Y271830D02*X89579D01*
X86181Y269862D02*X89579D01*
X86181Y267893D02*X89579D01*
X86181Y265925D02*X89579D01*
X86181Y263956D02*X89579D01*
G54D172*X89188Y197679D02*Y196104D01*
X92338Y197679D02*Y196104D01*
X95486Y197679D02*Y196104D01*
X98636Y197679D02*Y196104D01*
Y204764D02*Y203189D01*
X95486Y204764D02*Y203189D01*
X92338Y204764D02*Y203189D01*
X89188Y204764D02*Y203189D01*
G54D158*X81838Y197391D02*Y196997D01*
Y204083D02*Y203689D01*
G54D171*X77838Y188689D02*X84138D01*
X77838Y183689D02*X84138D01*
X77838Y178689D02*X84138D01*
X77838Y173689D02*X84138D01*
X96738D02*X103038D01*
X96738Y178689D02*X103038D01*
X96738Y183689D02*X103038D01*
X96738Y188689D02*X103038D01*
G54D170*X102544Y143189D02*Y138583D01*
G54D158*X94500Y148043D02*Y147649D01*
Y141351D02*Y140957D01*
G54D172*X94110Y133481D02*X95685D01*
X94110Y130333D02*X95685D01*
G54D170*X105103Y143189D02*Y138583D01*
G54D172*X101195Y130333D02*X102770D01*
X101195Y133481D02*X102770D01*
G54D170*X115338Y166417D02*Y161811D01*
X112779Y166417D02*Y161811D01*
X110221Y166417D02*Y161811D01*
X107662Y166417D02*Y161811D01*
X105103Y166417D02*Y161811D01*
X102544Y166417D02*Y161811D01*
G54D156*X95200Y123100D02*Y122314D01*
X102680Y123100D02*Y122314D01*
G54D170*X107662Y143189D02*Y138583D01*
X110221Y143189D02*Y138583D01*
X112779Y143189D02*Y138583D01*
X120456Y166417D02*Y161811D01*
X117897Y166417D02*Y161811D01*
X115338Y143189D02*Y138583D01*
X117897Y143189D02*Y138583D01*
X120456Y143189D02*Y138583D01*
G54D156*X116707Y131240D02*X117493D01*
X116707Y123760D02*X117493D01*
G54D175*X75511Y102665D02*Y98335D01*
X64489Y102665D02*Y98335D01*
X74511Y85865D02*Y81535D01*
X63489Y85865D02*Y81535D01*
X98935Y42389D02*X103265D01*
X98935Y53411D02*X103265D01*
G54D176*X99400Y29135D02*Y28348D01*
Y34252D02*Y33465D01*
G54D159*X115409Y41264D02*X119346D01*
X115409Y36933D02*X119346D01*
X115409Y32602D02*X119346D01*
X115409Y28272D02*X119346D01*
X115409Y23941D02*X119346D01*
X162654D02*X166591D01*
X162654Y28272D02*X166591D01*
X115409Y79059D02*X119346D01*
X115409Y74728D02*X119346D01*
X115409Y70398D02*X119346D01*
X115409Y66067D02*X119346D01*
X115409Y61736D02*X119346D01*
X115409Y57406D02*X119346D01*
X115409Y53075D02*X119346D01*
G54D156*X97360Y74693D02*Y73907D01*
X104840Y74693D02*Y73907D01*
X93760Y65093D02*Y64307D01*
X101240Y65093D02*Y64307D01*
X316507Y290840D02*X317293D01*
X316507Y283360D02*X317293D01*
X339800Y253486D02*Y252700D01*
X347280Y253486D02*Y252700D01*
X339740Y263414D02*Y262628D01*
X347220Y263414D02*Y262628D01*
X339820Y233500D02*Y232714D01*
X347300Y233500D02*Y232714D01*
X347280Y223486D02*Y222700D01*
X339800Y223486D02*Y222700D01*
X347300Y213486D02*Y212700D01*
X339820Y213486D02*Y212700D01*
X347300Y203486D02*Y202700D01*
X339820Y203486D02*Y202700D01*
X339800Y243500D02*Y242714D01*
X347280Y243500D02*Y242714D01*
X347194Y333600D02*Y332814D01*
X347200Y353586D02*Y352800D01*
X347180Y343586D02*Y342800D01*
X347200Y323600D02*Y322814D01*
Y313600D02*Y312814D01*
X347260Y303593D02*Y302807D01*
X339714Y333600D02*Y332814D01*
X339720Y353586D02*Y352800D01*
X339700Y343586D02*Y342800D01*
X339720Y323600D02*Y322814D01*
Y313600D02*Y312814D01*
X339780Y303593D02*Y302807D01*
X339660Y363593D02*Y362807D01*
X347140Y363593D02*Y362807D01*
X339620Y373586D02*Y372800D01*
X347100Y373586D02*Y372800D01*
X256140Y372293D02*Y371507D01*
X248660Y372293D02*Y371507D01*
G54D158*X289600Y370843D02*Y370449D01*
G54D173*X279826Y364134D02*Y360736D01*
X277858Y364134D02*Y360736D01*
X275889Y364134D02*Y360736D01*
X273921Y364134D02*Y360736D01*
X271952Y364134D02*Y360736D01*
X269984Y364134D02*Y360736D01*
X268015Y364134D02*Y360736D01*
X266047Y364134D02*Y360736D01*
X264078Y364134D02*Y360736D01*
X262110Y364134D02*Y360736D01*
X260141Y364134D02*Y360736D01*
X258173Y364134D02*Y360736D01*
X256204Y364134D02*Y360736D01*
X254236Y364134D02*Y360736D01*
G54D158*X289600Y364151D02*Y363757D01*
G54D173*X283763Y364134D02*Y360736D01*
X281795Y364134D02*Y360736D01*
G54D156*X281107Y309540D02*X281893D01*
X281107Y302060D02*X281893D01*
G54D173*X283764Y319264D02*Y315866D01*
G54D156*X271207Y308640D02*X271993D01*
X271207Y301160D02*X271993D01*
G54D158*X263000Y310143D02*Y309749D01*
Y303451D02*Y303057D01*
G54D156*X236460Y319593D02*Y318807D01*
X243940Y319593D02*Y318807D01*
G54D173*X244866Y354763D02*X248264D01*
X244866Y352795D02*X248264D01*
X244866Y350826D02*X248264D01*
X244866Y348858D02*X248264D01*
G54D156*X237460Y259093D02*Y258307D01*
X244940Y259093D02*Y258307D01*
G54D173*X244866Y346889D02*X248264D01*
X244866Y344921D02*X248264D01*
X244866Y342952D02*X248264D01*
X244866Y340984D02*X248264D01*
X244866Y339015D02*X248264D01*
X244866Y337047D02*X248264D01*
X244866Y335078D02*X248264D01*
X244866Y333110D02*X248264D01*
X244866Y331141D02*X248264D01*
X244866Y329173D02*X248264D01*
X244866Y327204D02*X248264D01*
X244866Y325236D02*X248264D01*
X254237Y319264D02*Y315866D01*
X256205Y319264D02*Y315866D01*
X258174Y319264D02*Y315866D01*
X260142Y319264D02*Y315866D01*
X262111Y319264D02*Y315866D01*
X264079Y319264D02*Y315866D01*
X266048Y319264D02*Y315866D01*
X268016Y319264D02*Y315866D01*
X269985Y319264D02*Y315866D01*
X271953Y319264D02*Y315866D01*
X273922Y319264D02*Y315866D01*
X275890Y319264D02*Y315866D01*
X277859Y319264D02*Y315866D01*
X279827Y319264D02*Y315866D01*
X281796Y319264D02*Y315866D01*
G54D177*X290400Y286600D02*X292600D01*
G54D173*X289736Y325237D02*X293134D01*
X289736Y327205D02*X293134D01*
X289736Y329174D02*X293134D01*
X289736Y331142D02*X293134D01*
X289736Y333111D02*X293134D01*
X289736Y335079D02*X293134D01*
X289736Y337048D02*X293134D01*
X289736Y339016D02*X293134D01*
X289736Y340985D02*X293134D01*
X289736Y342953D02*X293134D01*
X289736Y344922D02*X293134D01*
X289736Y346890D02*X293134D01*
X289736Y348859D02*X293134D01*
X289736Y350827D02*X293134D01*
X289736Y352796D02*X293134D01*
X289736Y354764D02*X293134D01*
G54D177*X307100Y289100D02*X309300D01*
X290400Y289200D02*X292600D01*
G54D158*X284800Y269751D02*Y269357D01*
Y276443D02*Y276049D01*
G54D178*X307100Y281400D02*X309300D01*
G54D177*X307100Y284000D02*X309300D01*
X307100Y286500D02*X309300D01*
X290400Y284100D02*X292600D01*
X290400Y281500D02*X292600D01*
G54D158*X285100Y254751D02*Y254357D01*
G54D173*X283663Y249534D02*Y246136D01*
G54D158*X285100Y261443D02*Y261049D01*
G54D173*X281695Y249534D02*Y246136D01*
X279726Y249534D02*Y246136D01*
X277758Y249534D02*Y246136D01*
X275789Y249534D02*Y246136D01*
X273821Y249534D02*Y246136D01*
X271852Y249534D02*Y246136D01*
X269884Y249534D02*Y246136D01*
M02*
